SplineFontDB: 3.0
FontName: WebAtlas-light
FullName: WebAtlas-light
FamilyName: WebAtlas-light
Weight: light
Copyright: MIT License 2018, Louis MORAES.
Version: 1.0.0
ItalicAngle: 0
UnderlinePosition: -170
UnderlineWidth: 50
Ascent: 800
Descent: 200
InvalidEm: 0
sfntRevision: 0x00010000
LayerCount: 2
Layer: 0 1 "Arri+AOgA-re" 1
Layer: 1 1 "Avant" 0
XUID: [1021 206 1625637039 13492]
StyleMap: 0x0040
FSType: 8
OS2Version: 3
OS2_WeightWidthSlopeOnly: 0
OS2_UseTypoMetrics: 0
CreationTime: 1375896762
ModificationTime: 1575153815
PfmFamily: 81
TTFWeight: 400
TTFWidth: 5
LineGap: 0
VLineGap: 0
Panose: 0 0 5 0 0 0 0 0 0 0
OS2TypoAscent: 700
OS2TypoAOffset: 0
OS2TypoDescent: -201
OS2TypoDOffset: 0
OS2TypoLinegap: 299
OS2WinAscent: 999
OS2WinAOffset: 0
OS2WinDescent: 201
OS2WinDOffset: 0
HheadAscent: 999
HheadAOffset: 0
HheadDescent: -201
HheadDOffset: 0
OS2SubXSize: 650
OS2SubYSize: 600
OS2SubXOff: 0
OS2SubYOff: 75
OS2SupXSize: 650
OS2SupYSize: 600
OS2SupXOff: 0
OS2SupYOff: 350
OS2StrikeYSize: 50
OS2StrikeYPos: 292
OS2CapHeight: 690
OS2XHeight: 487
OS2Vendor: 'UKWN'
OS2CodePages: 20000097.00000000
OS2UnicodeRanges: 00000207.00000000.00000000.00000000
Lookup: 258 0 0 "'kern' Cr+AOkA-nage horizontal dans Latin lookup 0" { "'kern' Cr+AOkA-nage horizontal dans Latin lookup 0-1" [150,15,0] } ['kern' ('DFLT' <'dflt' > 'latn' <'dflt' > ) ]
MarkAttachClasses: 1
DEI: 91125
KernClass2: 4 4 "'kern' Cr+AOkA-nage horizontal dans Latin lookup 0-1"
 3 T Y
 3 V F
 196 a c d e g m n o p q r s u v w x y z agrave aacute acircumflex adieresis egrave eacute ecircumflex edieresis ograve oacute ocircumflex odieresis ugrave uacute ucircumflex udieresis yacute ydieresis
 3 T Y
 1 V
 196 a c d e g m n o p q r s u v w x y z agrave aacute acircumflex adieresis egrave eacute ecircumflex edieresis ograve oacute ocircumflex odieresis ugrave uacute ucircumflex udieresis yacute ydieresis
 0 {} 0 {} 0 {} 0 {} 0 {} 70 {} 50 {} -80 {} 0 {} 50 {} 30 {} -40 {} 0 {} -80 {} -40 {} 0 {}
TtTable: prep
MPPEM
PUSHW_1

StartChar: asterisk
Encoding: 42 42 0
Width: 421
VWidth: 0
GlyphClass: 2
Flags: W
LayerCount: 2
Fore
SplineSet
209.5234375 785.013671875 m 0,0,1
 224.817382812 785.666015625 224.817382812 785.666015625 230.306640625 780.381835938 c 128,-1,2
 235.794921875 775.098632812 235.794921875 775.098632812 236.01953125 760.114257812 c 0,3,4
 236.125 733.405273438 236.125 733.405273438 236.3359375 680.385742188 c 2,5,-1
 236.416992188 659.907226562 l 1,6,-1
 255.916992188 666.162109375 l 2,7,8
 321.255859375 687.12109375 321.255859375 687.12109375 331.891601562 690.568359375 c 0,9,10
 347.456054688 695.671875 347.456054688 695.671875 354.131835938 691.869140625 c 128,-1,11
 360.807617188 688.065429688 360.807617188 688.065429688 364.618164062 671.795898438 c 0,12,13
 367.640625 658.900390625 367.640625 658.900390625 364.059570312 652.658203125 c 128,-1,14
 360.478515625 646.416015625 360.478515625 646.416015625 347.594726562 642.225585938 c 0,15,16
 333.278320312 637.543945312 333.278320312 637.543945312 307.091796875 628.900390625 c 128,-1,17
 280.938476562 620.268554688 280.938476562 620.268554688 271.8359375 617.28515625 c 2,18,-1
 252.350585938 610.8984375 l 1,19,-1
 264.337890625 594.262695312 l 2,20,21
 303.283203125 540.209960938 303.283203125 540.209960938 311.00390625 529.586914062 c 0,22,23
 315.4296875 523.481445312 315.4296875 523.481445312 317.5234375 518.280273438 c 0,24,25
 322.208007812 510.658203125 322.208007812 510.658203125 317.532226562 503.41015625 c 128,-1,26
 312.857421875 496.163085938 312.857421875 496.163085938 294.453125 489.016601562 c 0,27,28
 281.157226562 484.151367188 281.157226562 484.151367188 269.837890625 499.739257812 c 0,29,30
 261.05078125 511.776367188 261.05078125 511.776367188 244.881835938 533.818359375 c 128,-1,31
 228.723632812 555.858398438 228.723632812 555.858398438 222.717773438 564.065429688 c 2,32,-1
 210.615234375 580.603515625 l 1,33,-1
 198.509765625 564.067382812 l 2,34,35
 160.418945312 512.034179688 160.418945312 512.034179688 151.515625 499.911132812 c 0,36,37
 142.856445312 488.66796875 142.856445312 488.66796875 135.423828125 487.64453125 c 128,-1,38
 127.990234375 486.620117188 127.990234375 486.620117188 116.54296875 494.98828125 c 128,-1,39
 104.923828125 503.434570312 104.923828125 503.434570312 103.6796875 510.862304688 c 128,-1,40
 102.436523438 518.2890625 102.436523438 518.2890625 110.432617188 529.763671875 c 0,41,42
 118.342773438 540.750976562 118.342773438 540.750976562 135.201171875 564.099609375 c 128,-1,43
 152.053710938 587.444335938 152.053710938 587.444335938 156.966796875 594.256835938 c 2,44,-1
 168.948242188 610.87109375 l 1,45,-1
 149.4921875 617.278320312 l 2,46,47
 85.396484375 638.385742188 85.396484375 638.385742188 73.8046875 642.19140625 c 0,48,49
 60.109375 646.873046875 60.109375 646.873046875 56.779296875 653.6484375 c 128,-1,50
 53.4482421875 660.422851562 53.4482421875 660.422851562 57.935546875 674.044921875 c 0,51,52
 62.4306640625 687.896484375 62.4306640625 687.896484375 69.16796875 691.349609375 c 128,-1,53
 75.90625 694.802734375 75.90625 694.802734375 89.44921875 690.53125 c 0,54,55
 100.948242188 686.783203125 100.948242188 686.783203125 126.700195312 678.555664062 c 128,-1,56
 152.3828125 670.349609375 152.3828125 670.349609375 165.267578125 666.17578125 c 2,57,-1
 184.818359375 659.841796875 l 1,58,-1
 184.890625 680.392578125 l 2,59,60
 184.9375 693.674804688 184.9375 693.674804688 185.04296875 720.276367188 c 128,-1,61
 185.1484375 746.86328125 185.1484375 746.86328125 185.206054688 760.083007812 c 0,62,63
 185.41015625 773.892578125 185.41015625 773.892578125 190.561523438 779.154296875 c 128,-1,64
 195.712890625 784.415039062 195.712890625 784.415039062 209.5234375 785.013671875 c 0,0,1
EndSplineSet
EndChar

StartChar: plus
Encoding: 43 43 1
Width: 462
VWidth: 37
GlyphClass: 2
Flags: W
LayerCount: 2
Fore
SplineSet
230.380859375 526.790039062 m 0,0,1
 245.877929688 527 245.877929688 527 251.740234375 520.116210938 c 128,-1,2
 257.588867188 513.334960938 257.588867188 513.334960938 257.588867188 495.858398438 c 2,3,-1
 257.588867188 370.946289062 l 1,4,-1
 257.588867188 355.946289062 l 1,5,-1
 270.563476562 355.946289062 l 1,6,-1
 386.056640625 355.946289062 l 2,7,8
 403.877929688 356 403.877929688 356 410.368164062 349.315429688 c 0,9,10
 416.877929688 343 416.877929688 343 417 325.014648438 c 0,11,12
 416.877929688 307 416.877929688 307 410.3671875 300.703125 c 0,13,14
 403.946289062 294.0703125 403.946289062 294.0703125 386.056640625 294.0703125 c 2,15,-1
 270.563476562 294.0703125 l 1,16,-1
 257.588867188 294.0703125 l 1,17,-1
 257.588867188 279.0703125 l 1,18,-1
 257.588867188 154.796875 l 2,19,20
 257.877929688 137 257.877929688 137 251.8125 129.768554688 c 0,21,22
 245.877929688 123 245.877929688 123 230.831054688 122.959960938 c 128,-1,23
 215.877929688 123 215.877929688 123 209.809570312 129.58984375 c 0,24,25
 204.073242188 135.7890625 204.073242188 135.7890625 204.075195312 153.890625 c 2,26,-1
 204.087890625 279.069335938 l 1,27,-1
 204.088867188 294.0703125 l 1,28,-1
 191.112304688 294.0703125 l 1,29,-1
 75.69921875 294.0703125 l 2,30,31
 57.8779296875 294 57.8779296875 294 51.388671875 300.703125 c 0,32,33
 44.8779296875 307 44.8779296875 307 44.755859375 325.014648438 c 0,34,35
 44.8779296875 343 44.8779296875 343 51.3876953125 349.31640625 c 0,36,37
 57.826171875 355.946289062 57.826171875 355.946289062 75.69921875 355.946289062 c 2,38,-1
 191.112304688 355.946289062 l 1,39,-1
 204.087890625 355.946289062 l 1,40,-1
 204.087890625 370.946289062 l 1,41,-1
 204.087890625 495.158203125 l 2,42,43
 203.877929688 513 203.877929688 513 209.745117188 519.775390625 c 0,44,45
 215.877929688 527 215.877929688 527 230.380859375 526.790039062 c 0,0,1
EndSplineSet
EndChar

StartChar: hyphen
Encoding: 45 45 2
Width: 333
VWidth: 37
GlyphClass: 2
Flags: W
LayerCount: 2
Fore
SplineSet
76.2529296875 278.049804688 m 2,0,-1
 256.436523438 278.049804688 l 2,1,2
 274.689453125 278 274.689453125 278 281.247070312 271.390625 c 0,3,4
 287.689453125 265 287.689453125 265 288 247.138671875 c 0,5,6
 287.689453125 229 287.689453125 229 281.375 222.852539062 c 0,7,8
 274.911132812 216.227539062 274.911132812 216.227539062 257.087890625 216.227539062 c 2,9,-1
 76.2529296875 216.227539062 l 2,10,11
 58.689453125 216 58.689453125 216 51.4423828125 222.88671875 c 0,12,13
 44.689453125 230 44.689453125 230 44.689453125 247.138671875 c 0,14,15
 44.689453125 265 44.689453125 265 51.4423828125 271.390625 c 0,16,17
 58.689453125 278 58.689453125 278 76.2529296875 278.049804688 c 2,0,-1
EndSplineSet
EndChar

StartChar: less
Encoding: 60 60 3
Width: 524
GlyphClass: 2
Flags: W
LayerCount: 2
Fore
SplineSet
443.442382812 568.014648438 m 0,0,1
 456.147460938 567.638671875 456.147460938 567.638671875 465.139648438 558.375976562 c 128,-1,2
 474.130859375 549.114257812 474.130859375 549.114257812 474.130859375 536.404296875 c 0,3,4
 474.130859375 528.115234375 474.130859375 528.115234375 468.828125 519.740234375 c 128,-1,5
 463.526367188 511.365234375 463.526367188 511.365234375 456.034179688 507.819335938 c 2,6,-1
 133.399414062 349.500976562 l 1,7,-1
 456.034179688 191.182617188 l 2,8,9
 463.521484375 187.635742188 463.521484375 187.635742188 468.821289062 179.26171875 c 128,-1,10
 474.12109375 170.887695312 474.12109375 170.887695312 474.12109375 162.602539062 c 0,11,12
 474.12109375 149.509765625 474.12109375 149.509765625 464.85546875 140.244140625 c 128,-1,13
 455.588867188 130.978515625 455.588867188 130.978515625 442.49609375 130.978515625 c 0,14,15
 434.924804688 130.978515625 434.924804688 130.978515625 428.173828125 134.407226562 c 2,16,-1
 47.6875 321.11328125 l 2,17,18
 40.365234375 324.708007812 40.365234375 324.708007812 35.1826171875 333.025390625 c 128,-1,19
 30 341.342773438 30 341.342773438 30 349.500976562 c 128,-1,20
 30 357.658203125 30 357.658203125 35.1826171875 365.975585938 c 128,-1,21
 40.3642578125 374.29296875 40.3642578125 374.29296875 47.6875 377.888671875 c 2,22,-1
 428.173828125 564.59375 l 2,23,24
 434.92578125 568.028320312 434.92578125 568.028320312 442.505859375 568.028320312 c 0,25,26
 442.991210938 568.028320312 442.991210938 568.028320312 443.442382812 568.014648438 c 0,0,1
EndSplineSet
EndChar

StartChar: greater
Encoding: 62 62 4
Width: 524
GlyphClass: 2
Flags: W
LayerCount: 2
Fore
SplineSet
80.5576171875 568.014648438 m 0,0,1
 81.0087890625 568.028320312 81.0087890625 568.028320312 81.494140625 568.028320312 c 0,2,3
 89.07421875 568.028320312 89.07421875 568.028320312 95.826171875 564.59375 c 2,4,-1
 476.3125 377.888671875 l 2,5,6
 483.635742188 374.29296875 483.635742188 374.29296875 488.817382812 365.975585938 c 128,-1,7
 494 357.658203125 494 357.658203125 494 349.500976562 c 128,-1,8
 494 341.342773438 494 341.342773438 488.817382812 333.025390625 c 128,-1,9
 483.634765625 324.708007812 483.634765625 324.708007812 476.3125 321.11328125 c 2,10,-1
 95.826171875 134.407226562 l 2,11,12
 89.0751953125 130.978515625 89.0751953125 130.978515625 81.50390625 130.978515625 c 0,13,14
 68.4111328125 130.978515625 68.4111328125 130.978515625 59.14453125 140.244140625 c 128,-1,15
 49.87890625 149.509765625 49.87890625 149.509765625 49.87890625 162.602539062 c 0,16,17
 49.87890625 170.887695312 49.87890625 170.887695312 55.1787109375 179.26171875 c 128,-1,18
 60.478515625 187.635742188 60.478515625 187.635742188 67.9658203125 191.182617188 c 2,19,-1
 390.600585938 349.500976562 l 1,20,-1
 67.9658203125 507.819335938 l 2,21,22
 60.4736328125 511.365234375 60.4736328125 511.365234375 55.171875 519.740234375 c 128,-1,23
 49.869140625 528.115234375 49.869140625 528.115234375 49.869140625 536.404296875 c 0,24,25
 49.869140625 549.114257812 49.869140625 549.114257812 58.8603515625 558.375976562 c 128,-1,26
 67.8525390625 567.638671875 67.8525390625 567.638671875 80.5576171875 568.014648438 c 0,0,1
EndSplineSet
EndChar

StartChar: K
Encoding: 75 75 5
Width: 486
VWidth: 0
GlyphClass: 2
Flags: W
LayerCount: 2
Fore
SplineSet
435.77734375 698.48046875 m 4,0,1
 448.74609375 698.491210938 448.74609375 698.491210938 457.373046875 689.864257812 c 132,-1,2
 466 681.237304688 466 681.237304688 466 669.047851562 c 4,3,4
 466 656.549804688 466 656.549804688 457.009765625 647.869140625 c 6,5,-1
 158.327148438 351.106445312 l 5,6,-1
 457.109375 49.9736328125 l 6,7,8
 465.91015625 41.3212890625 465.91015625 41.3212890625 465.91015625 28.9794921875 c 132,-1,9
 465.91015625 16.7900390625 465.91015625 16.7900390625 457.283203125 8.1630859375 c 132,-1,10
 448.657226562 -0.4638671875 448.657226562 -0.4638671875 436.467773438 -0.4638671875 c 4,11,12
 423.989257812 -0.4638671875 423.989257812 -0.4638671875 415.310546875 8.5029296875 c 6,13,-1
 108.76171875 317.462890625 l 5,14,-1
 108.76171875 28.4306640625 l 6,15,16
 108.764648438 15.8291015625 108.764648438 15.8291015625 100.137695312 7.2021484375 c 132,-1,17
 91.5107421875 -1.4248046875 91.5107421875 -1.4248046875 79.3212890625 -1.4248046875 c 132,-1,18
 67.1318359375 -1.4248046875 67.1318359375 -1.4248046875 58.5048828125 7.2021484375 c 132,-1,19
 49.8779296875 15.828125 49.8779296875 15.828125 49.8779296875 28.017578125 c 4,20,-1
 49.880859375 668.250976562 l 5,21,-1
 49.8779296875 668.66796875 l 6,22,23
 49.8779296875 680.67578125 49.8779296875 680.67578125 58.375 689.301757812 c 132,-1,24
 66.8720703125 697.927734375 66.8720703125 697.927734375 78.8779296875 698.107421875 c 4,25,26
 91.5107421875 698.111328125 91.5107421875 698.111328125 100.137695312 689.484375 c 132,-1,27
 108.764648438 680.857421875 108.764648438 680.857421875 108.764648438 668.66796875 c 6,28,-1
 108.76171875 668.250976562 l 5,29,-1
 108.76171875 384.86328125 l 5,30,-1
 415.510742188 689.637695312 l 6,31,32
 423.852539062 698.166015625 423.852539062 698.166015625 435.77734375 698.48046875 c 4,0,1
EndSplineSet
EndChar

StartChar: L
Encoding: 76 76 6
Width: 387
VWidth: 0
GlyphClass: 2
Flags: W
LayerCount: 2
Fore
SplineSet
79.2216796875 701.8359375 m 4,0,1
 91.939453125 701.838867188 91.939453125 701.838867188 100.623046875 693.155273438 c 132,-1,2
 109.306640625 684.470703125 109.306640625 684.470703125 109.306640625 672.200195312 c 4,3,-1
 109.303710938 205.827148438 l 6,4,5
 109.303710938 101.536132812 109.303710938 101.536132812 110.079101562 92.521484375 c 4,6,7
 112.1875 67.9951171875 112.1875 67.9951171875 119.267578125 63.533203125 c 4,8,9
 130.853515625 56.2294921875 130.853515625 56.2294921875 179.127929688 55.6796875 c 4,10,11
 196.43359375 55.482421875 196.43359375 55.482421875 248.513671875 56.314453125 c 132,-1,12
 300.59375 57.146484375 300.59375 57.146484375 336.915039062 57.146484375 c 4,13,14
 349.631835938 57.1494140625 349.631835938 57.1494140625 358.315429688 48.46484375 c 132,-1,15
 367 39.78125 367 39.78125 367 27.5107421875 c 132,-1,16
 367 15.240234375 367 15.240234375 358.315429688 6.556640625 c 132,-1,17
 349.631835938 -2.1279296875 349.631835938 -2.1279296875 337.361328125 -2.1279296875 c 4,18,19
 301.790039062 -2.125 301.790039062 -2.125 249.622070312 -2.9658203125 c 132,-1,20
 197.455078125 -3.8056640625 197.455078125 -3.8056640625 178.453125 -3.58984375 c 4,21,22
 113.427734375 -2.8486328125 113.427734375 -2.8486328125 87.6640625 13.3896484375 c 4,23,24
 55.658203125 33.560546875 55.658203125 33.560546875 51.025390625 87.443359375 c 4,25,26
 50.03125 99.0048828125 50.03125 99.0048828125 50.03125 205.827148438 c 6,27,-1
 50.03125 671.78125 l 6,28,29
 50.0283203125 684.288085938 50.0283203125 684.288085938 58.58203125 692.971679688 c 132,-1,30
 67.1357421875 701.654296875 67.1357421875 701.654296875 79.2216796875 701.8359375 c 4,0,1
EndSplineSet
EndChar

StartChar: M
Encoding: 77 77 7
Width: 547
VWidth: 0
GlyphClass: 2
Flags: W
LayerCount: 2
Fore
SplineSet
79.00390625 701.892578125 m 0,0,1
 88.5712890625 701.895507812 88.5712890625 701.895507812 96.8486328125 695.701171875 c 128,-1,2
 105.125976562 689.505859375 105.125976562 689.505859375 107.69921875 680.752929688 c 2,3,-1
 268.78515625 131.271484375 l 1,4,-1
 429.872070312 680.752929688 l 2,5,6
 432.4453125 689.505859375 432.4453125 689.505859375 440.72265625 695.701171875 c 128,-1,7
 449 701.896484375 449 701.896484375 458.124023438 701.896484375 c 0,8,9
 470.315429688 701.896484375 470.315429688 701.896484375 478.943359375 693.268554688 c 128,-1,10
 487.571289062 684.640625 487.571289062 684.640625 487.571289062 672.44921875 c 0,11,-1
 486.701171875 26.072265625 l 2,12,13
 486.704101562 13.505859375 486.704101562 13.505859375 478.076171875 4.8779296875 c 128,-1,14
 469.448242188 -3.75 469.448242188 -3.75 457.256835938 -3.75 c 128,-1,15
 445.065429688 -3.75 445.065429688 -3.75 436.436523438 4.8779296875 c 128,-1,16
 427.80859375 13.505859375 427.80859375 13.505859375 427.80859375 25.697265625 c 0,17,-1
 428.405273438 466.421875 l 1,18,-1
 297.040039062 18.32421875 l 2,19,20
 294.46875 9.5673828125 294.46875 9.5673828125 286.190429688 3.369140625 c 128,-1,21
 277.912109375 -2.8291015625 277.912109375 -2.8291015625 268.78515625 -2.8291015625 c 128,-1,22
 259.658203125 -2.8291015625 259.658203125 -2.8291015625 251.37890625 3.369140625 c 128,-1,23
 243.100585938 9.5673828125 243.100585938 9.5673828125 240.529296875 18.32421875 c 2,24,-1
 109.06640625 466.759765625 l 1,25,-1
 109.446289062 26.0048828125 l 2,26,27
 109.450195312 13.373046875 109.450195312 13.373046875 100.822265625 4.7451171875 c 128,-1,28
 92.1943359375 -3.8828125 92.1943359375 -3.8828125 80.0029296875 -3.8828125 c 128,-1,29
 67.8115234375 -3.8828125 67.8115234375 -3.8828125 59.18359375 4.7451171875 c 128,-1,30
 50.5546875 13.373046875 50.5546875 13.373046875 50.5546875 25.564453125 c 0,31,-1
 50 672.443359375 l 2,32,33
 50 684.45703125 50 684.45703125 58.498046875 693.083984375 c 128,-1,34
 66.99609375 701.711914062 66.99609375 701.711914062 79.00390625 701.892578125 c 0,0,1
EndSplineSet
EndChar

StartChar: N
Encoding: 78 78 8
Width: 546
VWidth: 0
GlyphClass: 2
Flags: W
LayerCount: 2
Fore
SplineSet
456.905273438 702.821289062 m 4,0,-1
 457.315429688 702.823242188 l 6,1,2
 469.518554688 702.823242188 469.518554688 702.823242188 478.154296875 694.186523438 c 132,-1,3
 486.791015625 685.55078125 486.791015625 685.55078125 486.791015625 673.34765625 c 4,4,-1
 485.918945312 28.4111328125 l 6,5,6
 485.8984375 16.228515625 485.8984375 16.228515625 477.26171875 7.607421875 c 132,-1,7
 468.625976562 -1.0146484375 468.625976562 -1.0146484375 456.443359375 -1.0146484375 c 4,8,9
 439.543945312 -1.0146484375 439.543945312 -1.0146484375 431.005859375 13.5703125 c 6,10,-1
 109.0390625 564.014648438 l 5,11,-1
 109.500976562 28.34765625 l 6,12,13
 109.504882812 15.7158203125 109.504882812 15.7158203125 100.868164062 7.080078125 c 132,-1,14
 92.232421875 -1.556640625 92.232421875 -1.556640625 80.029296875 -1.556640625 c 132,-1,15
 67.826171875 -1.556640625 67.826171875 -1.556640625 59.1904296875 7.080078125 c 132,-1,16
 50.5537109375 15.7158203125 50.5537109375 15.7158203125 50.5537109375 27.9189453125 c 4,17,-1
 50 672.919921875 l 6,18,19
 50 685.139648438 50 685.139648438 58.63671875 693.775390625 c 132,-1,20
 67.2724609375 702.412109375 67.2724609375 702.412109375 79.4755859375 702.412109375 c 4,21,22
 96.3759765625 702.412109375 96.3759765625 702.412109375 104.9140625 687.827148438 c 6,23,-1
 427.11328125 136.971679688 l 5,24,-1
 427.8359375 672.971679688 l 6,25,26
 427.833984375 685.385742188 427.833984375 685.385742188 436.3515625 694.020507812 c 132,-1,27
 444.869140625 702.65625 444.869140625 702.65625 456.905273438 702.821289062 c 4,0,-1
EndSplineSet
Validated: 1
EndChar

StartChar: O
Encoding: 79 79 9
Width: 581
VWidth: 0
GlyphClass: 2
Flags: W
LayerCount: 2
Fore
SplineSet
285.750976562 702.05078125 m 132,-1,1
 347.165039062 702.041992188 347.165039062 702.041992188 385.655273438 689.02734375 c 4,2,3
 402.666992188 683.275390625 402.666992188 683.275390625 430.703125 666.063476562 c 4,4,5
 463.995117188 645.624023438 463.995117188 645.624023438 480.98046875 607.240234375 c 132,-1,6
 497.96484375 568.856445312 497.96484375 568.856445312 508.048828125 513.018554688 c 4,7,8
 521.356445312 439.336914062 521.356445312 439.336914062 521.50390625 338.418945312 c 4,9,10
 521.727539062 254.07421875 521.727539062 254.07421875 502.89453125 174.29296875 c 4,11,12
 491.133789062 124.473632812 491.133789062 124.473632812 475.235351562 91.5263671875 c 132,-1,13
 459.336914062 58.5791015625 459.336914062 58.5791015625 430.412109375 40.71484375 c 4,14,15
 429.584960938 40.2041015625 429.584960938 40.2041015625 422.79296875 35.9443359375 c 132,-1,16
 416.000976562 31.685546875 416.000976562 31.685546875 413.83984375 30.4140625 c 132,-1,17
 411.678710938 29.142578125 411.678710938 29.142578125 404.328125 25.041015625 c 132,-1,18
 396.977539062 20.939453125 396.977539062 20.939453125 392.903320312 19.26953125 c 132,-1,19
 388.830078125 17.6005859375 388.830078125 17.6005859375 380.485351562 14.1171875 c 132,-1,20
 372.139648438 10.6337890625 372.139648438 10.6337890625 365.717773438 9.02734375 c 132,-1,21
 359.294921875 7.419921875 359.294921875 7.419921875 349.51953125 5.0166015625 c 132,-1,22
 339.744140625 2.6123046875 339.744140625 2.6123046875 330.536132812 1.529296875 c 132,-1,23
 321.329101562 0.4462890625 321.329101562 0.4462890625 309.686523438 -0.4169921875 c 132,-1,24
 298.043945312 -1.28125 298.043945312 -1.28125 285.756835938 -1.28125 c 132,-1,25
 273.469726562 -1.28125 273.469726562 -1.28125 261.826171875 -0.4169921875 c 132,-1,26
 250.18359375 0.4462890625 250.18359375 0.4462890625 240.975585938 1.529296875 c 132,-1,27
 231.766601562 2.6123046875 231.766601562 2.6123046875 221.991210938 5.0166015625 c 132,-1,28
 212.215820312 7.419921875 212.215820312 7.419921875 205.791992188 9.02734375 c 132,-1,29
 199.368164062 10.6337890625 199.368164062 10.6337890625 191.0234375 14.1171875 c 132,-1,30
 182.678710938 17.599609375 182.678710938 17.599609375 178.603515625 19.26953125 c 132,-1,31
 174.52734375 20.9404296875 174.52734375 20.9404296875 167.177734375 25.041015625 c 132,-1,32
 159.828125 29.1416015625 159.828125 29.1416015625 157.665039062 30.4140625 c 132,-1,33
 155.500976562 31.6865234375 155.500976562 31.6865234375 148.7109375 35.9443359375 c 132,-1,34
 141.919921875 40.2021484375 141.919921875 40.2021484375 141.08984375 40.71484375 c 4,35,36
 112.165039062 58.58203125 112.165039062 58.58203125 96.2802734375 91.5263671875 c 132,-1,37
 80.3955078125 124.470703125 80.3955078125 124.470703125 68.642578125 174.303710938 c 4,38,39
 49.8583984375 253.948242188 49.8583984375 253.948242188 50.0009765625 338.404296875 c 4,40,-1
 50.0009765625 338.440429688 l 6,41,42
 50.2958984375 439.77734375 50.2958984375 439.77734375 63.50390625 513.018554688 c 4,43,44
 73.5751953125 568.872070312 73.5751953125 568.872070312 90.5419921875 607.25390625 c 132,-1,45
 107.508789062 645.634765625 107.508789062 645.634765625 140.803710938 666.07421875 c 4,46,47
 168.844726562 683.287109375 168.844726562 683.287109375 185.848632812 689.036132812 c 4,48,0
 224.340820312 702.05078125 224.340820312 702.05078125 285.750976562 702.05078125 c 132,-1,1
285.728515625 642.83203125 m 132,-1,50
 234.052734375 642.836914062 234.052734375 642.836914062 204.791015625 632.943359375 c 4,51,52
 194.106445312 629.330078125 194.106445312 629.330078125 171.760742188 615.611328125 c 4,53,54
 157.328125 606.747070312 157.328125 606.747070312 143.28515625 575.3828125 c 132,-1,55
 129.2421875 544.018554688 129.2421875 544.018554688 121.756835938 502.509765625 c 4,56,57
 109.474609375 434.403320312 109.474609375 434.403320312 109.19140625 338.309570312 c 4,58,-1
 109.19140625 338.272460938 l 6,59,60
 109.067382812 260.77734375 109.067382812 260.77734375 126.255859375 187.89453125 c 4,61,62
 134.563476562 152.66796875 134.563476562 152.66796875 148.27734375 125.029296875 c 132,-1,63
 161.991210938 97.390625 161.991210938 97.390625 172.182617188 91.095703125 c 4,64,65
 176.1875 88.625 176.1875 88.625 185.7109375 82.3525390625 c 132,-1,66
 195.235351562 76.080078125 195.235351562 76.080078125 199.0625 73.9453125 c 132,-1,67
 202.889648438 71.810546875 202.889648438 71.810546875 212.41796875 67.70703125 c 132,-1,68
 221.947265625 63.6025390625 221.947265625 63.6025390625 230.623046875 62.14453125 c 132,-1,69
 239.298828125 60.6875 239.298828125 60.6875 253.547851562 59.3115234375 c 132,-1,70
 267.797851562 57.935546875 267.797851562 57.935546875 285.7265625 57.935546875 c 4,71,72
 307.091796875 57.935546875 307.091796875 57.935546875 321.926757812 59.009765625 c 132,-1,73
 336.762695312 60.083984375 336.762695312 60.083984375 349.73046875 64.7822265625 c 132,-1,74
 362.69921875 69.4794921875 362.69921875 69.4794921875 366.42578125 70.7490234375 c 132,-1,75
 370.151367188 72.0185546875 370.151367188 72.0185546875 383.84375 81.0205078125 c 132,-1,76
 397.53515625 90.0234375 397.53515625 90.0234375 399.271484375 91.095703125 c 4,77,78
 409.469726562 97.3974609375 409.469726562 97.3974609375 423.196289062 125.037109375 c 132,-1,79
 436.921875 152.676757812 436.921875 152.676757812 445.236328125 187.899414062 c 4,80,81
 462.473632812 260.923828125 462.473632812 260.923828125 462.260742188 338.27734375 c 4,82,-1
 462.260742188 338.31640625 l 6,83,84
 462.12109375 433.997070312 462.12109375 433.997070312 449.748046875 502.504882812 c 4,85,86
 442.252929688 544.004882812 442.252929688 544.004882812 428.193359375 575.372070312 c 132,-1,87
 414.134765625 606.740234375 414.134765625 606.740234375 399.6953125 615.60546875 c 4,88,89
 377.359375 629.323242188 377.359375 629.323242188 366.6640625 632.938476562 c 4,90,49
 337.401367188 642.83203125 337.401367188 642.83203125 285.728515625 642.83203125 c 132,-1,50
EndSplineSet
Validated: 33
EndChar

StartChar: k
Encoding: 107 107 10
Width: 411
GlyphClass: 2
Flags: W
LayerCount: 2
Fore
SplineSet
84.6328125 702.154296875 m 1,0,-1
 85.080078125 702.162109375 l 2,1,2
 97.4697265625 702.162109375 97.4697265625 702.162109375 106.239257812 693.393554688 c 128,-1,3
 115.0078125 684.625 115.0078125 684.625 115.0078125 672.234375 c 0,4,-1
 115.004882812 283.770507812 l 1,5,-1
 315.271484375 490.571289062 l 2,6,7
 323.583007812 499.399414062 323.583007812 499.399414062 335.694335938 499.953125 c 0,8,9
 336.364257812 499.984375 336.364257812 499.984375 337.059570312 499.984375 c 0,10,11
 349.44921875 499.984375 349.44921875 499.984375 358.21875 491.215820312 c 128,-1,12
 366.987304688 482.447265625 366.987304688 482.447265625 366.987304688 470.056640625 c 128,-1,13
 366.987304688 457.6953125 366.987304688 457.6953125 358.263671875 448.936523438 c 2,14,-1
 164.674804688 249.025390625 l 1,15,-1
 358.396484375 46.091796875 l 2,16,17
 367 37.35546875 367 37.35546875 367 25.09375 c 128,-1,18
 367 12.703125 367 12.703125 358.231445312 3.9345703125 c 128,-1,19
 349.462890625 -4.833984375 349.462890625 -4.833984375 337.072265625 -4.833984375 c 0,20,21
 323.990234375 -4.833984375 323.990234375 -4.833984375 315.106445312 4.7666015625 c 2,22,-1
 115.006835938 214.388671875 l 1,23,-1
 115.006835938 21.4560546875 l 2,24,25
 115.009765625 8.619140625 115.009765625 8.619140625 106.241210938 -0.150390625 c 128,-1,26
 97.47265625 -8.9189453125 97.47265625 -8.9189453125 85.08203125 -8.9189453125 c 128,-1,27
 72.6923828125 -8.9189453125 72.6923828125 -8.9189453125 63.923828125 -0.150390625 c 128,-1,28
 55.154296875 8.619140625 55.154296875 8.619140625 55.154296875 21.0087890625 c 0,29,-1
 55.158203125 671.811523438 l 2,30,31
 55.1552734375 684.434570312 55.1552734375 684.434570312 63.7919921875 693.203125 c 128,-1,32
 72.4296875 701.970703125 72.4296875 701.970703125 84.6328125 702.154296875 c 1,0,-1
EndSplineSet
EndChar

StartChar: l
Encoding: 108 108 11
Width: 179
GlyphClass: 2
Flags: W
HStem: 682.154 20G<83.5201 90.0719>
VStem: 60.1451 59.8516<0.120714 692.928>
LayerCount: 2
Fore
SplineSet
89.6220703125 702.154296875 m 0,0,-1
 90.072265625 702.153320312 l 2,1,2
 102.462890625 702.153320312 102.462890625 702.153320312 111.231445312 693.384765625 c 128,-1,3
 120 684.616210938 120 684.616210938 120 672.225585938 c 0,4,-1
 119.997070312 21.451171875 l 2,5,6
 120.000976562 8.6142578125 120.000976562 8.6142578125 111.232421875 -0.154296875 c 128,-1,7
 102.462890625 -8.9228515625 102.462890625 -8.9228515625 90.0732421875 -8.9228515625 c 128,-1,8
 77.6826171875 -8.9228515625 77.6826171875 -8.9228515625 68.9140625 -0.154296875 c 128,-1,9
 60.1455078125 8.6142578125 60.1455078125 8.6142578125 60.1455078125 21.0048828125 c 0,10,-1
 60.1484375 671.806640625 l 2,11,12
 60.1455078125 684.434570312 60.1455078125 684.434570312 68.7822265625 693.203125 c 128,-1,13
 77.4189453125 701.970703125 77.4189453125 701.970703125 89.6220703125 702.154296875 c 0,0,-1
EndSplineSet
EndChar

StartChar: m
Encoding: 109 109 12
Width: 686
GlyphClass: 2
Flags: MW
LayerCount: 2
Fore
SplineSet
603.116210938 0 m 0,0,1
 590.16796875 0 590.16796875 0 581.203125 8.9638671875 c 128,-1,2
 572.239257812 17.9287109375 572.239257812 17.9287109375 572.239257812 29.880859375 c 2,3,-1
 572.239257812 346.61328125 l 2,4,5
 572.239257812 392.928710938 572.239257812 392.928710938 551.323242188 415.338867188 c 0,6,7
 529.3515625 440.239257812 529.3515625 440.239257812 472.637695312 440.239257812 c 0,8,9
 418.326171875 440.239257812 418.326171875 440.239257812 393.952148438 414.342773438 c 0,10,11
 372.571289062 391.432617188 372.571289062 391.432617188 374.032226562 347.609375 c 2,12,-1
 374.032226562 29.880859375 l 2,13,14
 374.032226562 17.927734375 374.032226562 17.927734375 365.068359375 8.9638671875 c 128,-1,15
 356.103515625 0 356.103515625 0 344.151367188 0 c 0,16,17
 331.204101562 0 331.204101562 0 322.239257812 8.9638671875 c 0,18,19
 314.271484375 18.52734375 314.271484375 18.52734375 314.271484375 29.880859375 c 2,20,-1
 314.271484375 347.609375 l 2,21,22
 314.271484375 393.42578125 314.271484375 393.42578125 292.359375 415.338867188 c 0,23,24
 270.387695312 440.239257812 270.387695312 440.239257812 214.669921875 440.239257812 c 0,25,26
 159.362304688 440.239257812 159.362304688 440.239257812 134.98828125 414.342773438 c 0,27,28
 113.607421875 391.434570312 113.607421875 391.434570312 115.068359375 347.609375 c 2,29,-1
 115.068359375 29.880859375 l 2,30,31
 115.068359375 17.927734375 115.068359375 17.927734375 106.104492188 8.9638671875 c 0,32,33
 98.6337890625 0 98.6337890625 0 85.1875 0 c 0,34,35
 73.2353515625 0 73.2353515625 0 64.271484375 8.9638671875 c 128,-1,36
 55.306640625 17.9287109375 55.306640625 17.9287109375 55.3076171875 29.880859375 c 2,37,-1
 55.3076171875 347.609375 l 2,38,39
 53.8134765625 414.841796875 53.8134765625 414.841796875 91.1640625 455.1796875 c 0,40,41
 132.99609375 500 132.99609375 500 214.669921875 500 c 0,42,43
 295.84375 500 295.84375 500 336.18359375 455.1796875 c 0,44,45
 341.1640625 450.19921875 341.1640625 450.19921875 343.15625 447.2109375 c 1,46,47
 348.13671875 452.193359375 348.13671875 452.193359375 350.127929688 455.1796875 c 0,48,49
 391.9609375 500 391.9609375 500 472.637695312 500 c 0,50,51
 554.809570312 500 554.809570312 500 595.147460938 455.1796875 c 0,52,53
 616.143554688 432.568359375 616.143554688 432.568359375 623.036132812 406.374023438 c 0,54,55
 632 379.485351562 632 379.485351562 632 347.609375 c 2,56,-1
 632 29.880859375 l 2,57,58
 632 17.927734375 632 17.927734375 623.036132812 8.9638671875 c 0,59,60
 615.56640625 0 615.56640625 0 603.116210938 0 c 0,0,1
EndSplineSet
EndChar

StartChar: n
Encoding: 110 110 13
Width: 427
GlyphClass: 2
Flags: MW
LayerCount: 2
Fore
SplineSet
344.2265625 0 m 2,0,-1
 343.234375 0 l 2,1,2
 331.926757812 0 331.926757812 0 322.400390625 7.9365234375 c 0,3,4
 313.47265625 16.8642578125 313.47265625 16.8642578125 313.47265625 29.76171875 c 2,5,-1
 313.47265625 346.23046875 l 2,6,7
 313.47265625 392.361328125 313.47265625 392.361328125 292.638671875 414.682617188 c 0,8,9
 269.879882812 440.4765625 269.879882812 440.4765625 214.265625 440.4765625 c 0,10,11
 159.177734375 440.4765625 159.177734375 440.4765625 134.900390625 414.682617188 c 0,12,13
 113.573242188 391.831054688 113.573242188 391.831054688 115.059570312 347.22265625 c 2,14,-1
 115.059570312 29.76171875 l 2,15,16
 115.059570312 16.865234375 115.059570312 16.865234375 106.130859375 7.9365234375 c 0,17,18
 96.607421875 0 96.607421875 0 85.2978515625 0 c 128,-1,19
 73.990234375 0 73.990234375 0 64.4638671875 7.9365234375 c 0,20,21
 55.5361328125 16.8642578125 55.5361328125 16.8642578125 55.5361328125 29.76171875 c 2,22,-1
 55.5361328125 347.22265625 l 1,23,-1
 55.5361328125 346.23046875 l 2,24,25
 54.05859375 414.198242188 54.05859375 414.198242188 91.25 454.365234375 c 0,26,27
 132.469726562 500 132.469726562 500 214.265625 500 c 0,28,29
 296.54296875 500 296.54296875 500 336.290039062 454.365234375 c 0,30,31
 372.99609375 416.190429688 372.99609375 416.190429688 372.99609375 347.22265625 c 2,32,-1
 372.99609375 29.76171875 l 2,33,34
 372.99609375 17.857421875 372.99609375 17.857421875 364.067382812 8.9287109375 c 0,35,36
 356.627929688 0 356.627929688 0 344.2265625 0 c 2,0,-1
EndSplineSet
EndChar

StartChar: o
Encoding: 111 111 14
Width: 429
GlyphClass: 2
Flags: W
LayerCount: 2
Fore
SplineSet
214.38671875 501.611328125 m 1,0,1
 278.923828125 501.532226562 278.923828125 501.532226562 313.294921875 478.114257812 c 0,2,3
 357.747070312 453.670898438 357.747070312 453.670898438 371.53125 379.204101562 c 0,4,5
 392.633789062 267.763671875 392.633789062 267.763671875 378.021484375 162.571289062 c 0,6,7
 377.442382812 159.47265625 377.442382812 159.47265625 375.227539062 147.280273438 c 128,-1,8
 373.012695312 135.086914062 373.012695312 135.086914062 372.176757812 130.858398438 c 128,-1,9
 371.340820312 126.629882812 371.340820312 126.629882812 368.956054688 115.723632812 c 128,-1,10
 366.571289062 104.817382812 366.571289062 104.817382812 364.868164062 99.5 c 128,-1,11
 363.165039062 94.1826171875 363.165039062 94.1826171875 360.051757812 84.9228515625 c 128,-1,12
 356.938476562 75.6640625 356.938476562 75.6640625 353.809570312 69.6171875 c 128,-1,13
 350.680664062 63.5703125 350.680664062 63.5703125 346.28125 56.318359375 c 128,-1,14
 341.881835938 49.06640625 341.881835938 49.06640625 336.822265625 42.970703125 c 0,15,16
 305.728515625 11.2451171875 305.728515625 11.2451171875 257.955078125 0.6123046875 c 128,-1,17
 210.181640625 -10.0205078125 210.181640625 -10.0205078125 167.610351562 1.1923828125 c 0,18,19
 94.19140625 20.20703125 94.19140625 20.20703125 73.626953125 72.453125 c 0,20,21
 32.736328125 180.227539062 32.736328125 180.227539062 50.431640625 337.930664062 c 0,22,23
 55.7958984375 372.8046875 55.7958984375 372.8046875 58.6025390625 387.385742188 c 128,-1,24
 61.4091796875 401.967773438 61.4091796875 401.967773438 72.5 427.494140625 c 128,-1,25
 83.5908203125 453.020507812 83.5908203125 453.020507812 100.841796875 467.841796875 c 0,26,27
 141.86328125 502.983398438 141.86328125 502.983398438 214.38671875 501.611328125 c 1,0,1
214.38671875 440.668945312 m 1,28,29
 147.553710938 439.965820312 147.553710938 439.965820312 132.588867188 408.875976562 c 0,30,31
 121.0859375 385.625 121.0859375 385.625 115.005859375 353.407226562 c 128,-1,32
 108.924804688 321.189453125 108.924804688 321.189453125 108.065429688 304.82421875 c 128,-1,33
 107.205078125 288.458984375 107.205078125 288.458984375 105.901367188 246.309570312 c 0,34,35
 107.096679688 153.450195312 107.096679688 153.450195312 130.086914062 100.987304688 c 0,36,37
 140.805664062 68.091796875 140.805664062 68.091796875 181.17578125 59.203125 c 1,38,39
 230.860351562 53.5615234375 230.860351562 53.5615234375 259.58203125 62.53125 c 0,40,41
 291.732421875 74.951171875 291.732421875 74.951171875 301.715820312 107.935546875 c 0,42,43
 323.544921875 164.896484375 323.544921875 164.896484375 322.750976562 255.546875 c 0,44,45
 322.596679688 259.201171875 322.596679688 259.201171875 322.3046875 266.557617188 c 0,46,47
 320.94921875 300.744140625 320.94921875 300.744140625 319.400390625 319.598632812 c 128,-1,48
 317.8515625 338.452148438 317.8515625 338.452148438 311.076171875 366.610351562 c 128,-1,49
 304.301757812 394.767578125 304.301757812 394.767578125 292.203125 415.724609375 c 0,50,51
 273.790039062 439.944335938 273.790039062 439.944335938 214.38671875 440.668945312 c 1,28,29
EndSplineSet
EndChar

StartChar: two
Encoding: 50 50 16
Width: 507
VWidth: 0
Flags: W
LayerCount: 2
Fore
SplineSet
83.611328125 0.005859375 m 2,0,1
 70.7392578125 0.005859375 70.7392578125 0.005859375 61.6279296875 9.1123046875 c 128,-1,2
 52.5166015625 18.21875 52.5166015625 18.21875 52.509765625 31.0859375 c 2,3,-1
 52.509765625 93.1220703125 l 2,4,5
 52.509765625 120.19140625 52.509765625 120.19140625 71.1748046875 139.836914062 c 0,6,7
 85.1630859375 154.587890625 85.1630859375 154.587890625 199.983398438 275.465820312 c 128,-1,8
 314.803710938 396.34375 314.803710938 396.34375 361.920898438 445.94921875 c 0,9,10
 395.3515625 481.150390625 395.3515625 481.150390625 394.807617188 526.754882812 c 0,11,-1
 394.807617188 526.779296875 l 2,12,13
 394.249023438 573.197265625 394.249023438 573.197265625 361.557617188 605.505859375 c 128,-1,14
 328.865234375 637.813476562 328.865234375 637.813476562 282.4453125 637.813476562 c 2,15,-1
 255.620117188 637.813476562 l 1,16,-1
 81.8642578125 637.813476562 l 2,17,18
 81.5517578125 637.807617188 81.5517578125 637.807617188 81.296875 637.807617188 c 0,19,20
 68.423828125 637.807617188 68.423828125 637.807617188 59.3115234375 646.918945312 c 128,-1,21
 50.2001953125 656.030273438 50.2001953125 656.030273438 50.2001953125 668.904296875 c 128,-1,22
 50.2001953125 681.778320312 50.2001953125 681.778320312 59.3115234375 690.888671875 c 128,-1,23
 68.4228515625 700 68.4228515625 700 81.296875 700 c 0,24,25
 81.6044921875 700 81.6044921875 700 81.8642578125 699.995117188 c 2,26,-1
 255.620117188 699.995117188 l 1,27,-1
 282.4453125 699.995117188 l 2,28,29
 353.87109375 699.995117188 353.87109375 699.995117188 405 649.470703125 c 128,-1,30
 456.129882812 598.946289062 456.129882812 598.946289062 456.990234375 527.526367188 c 0,31,-1
 456.990234375 527.501953125 l 2,32,33
 457.8359375 456.627929688 457.8359375 456.627929688 407.015625 403.118164062 c 0,34,35
 358.248046875 351.775390625 358.248046875 351.775390625 240.430664062 227.7421875 c 128,-1,36
 122.61328125 103.708007812 122.61328125 103.708007812 116.24609375 97.0048828125 c 0,37,38
 114.709960938 95.3857421875 114.709960938 95.3857421875 114.709960938 93.1220703125 c 2,39,-1
 114.709960938 62.1865234375 l 1,40,-1
 424.186523438 62.1865234375 l 2,41,42
 424.499023438 62.1923828125 424.499023438 62.1923828125 424.75390625 62.1923828125 c 0,43,44
 437.627929688 62.1923828125 437.627929688 62.1923828125 446.739257812 53.0810546875 c 128,-1,45
 455.849609375 43.9697265625 455.849609375 43.9697265625 455.849609375 31.095703125 c 128,-1,46
 455.849609375 18.2216796875 455.849609375 18.2216796875 446.739257812 9.111328125 c 128,-1,47
 437.627929688 0 437.627929688 0 424.75390625 0 c 0,48,49
 424.447265625 0 424.447265625 0 424.186523438 0.0048828125 c 2,50,-1
 83.611328125 0.005859375 l 2,0,1
EndSplineSet
EndChar

StartChar: semicolon
Encoding: 59 59 17
Width: 289
VWidth: 26
Flags: W
LayerCount: 2
Fore
SplineSet
146.6875 442.400390625 m 132,-1,1
 165.979492188 442.400390625 165.979492188 442.400390625 172.48828125 435.88671875 c 132,-1,2
 179 429.368164062 179 429.368164062 179 410.123046875 c 132,-1,3
 178.9921875 390.825195312 178.9921875 390.825195312 172.474609375 384.313476562 c 132,-1,4
 165.956054688 377.799804688 165.956054688 377.799804688 146.724609375 377.799804688 c 132,-1,5
 127.42578125 377.80859375 127.42578125 377.80859375 120.9140625 384.325195312 c 132,-1,6
 114.400390625 390.844726562 114.400390625 390.844726562 114.400390625 410.087890625 c 132,-1,7
 114.400390625 429.380859375 114.400390625 429.380859375 120.9140625 435.888671875 c 132,-1,0
 127.431640625 442.400390625 127.431640625 442.400390625 146.6875 442.400390625 c 132,-1,1
140.563476562 76.787109375 m 0,8,9
 153.879882812 76.822265625 153.879882812 76.822265625 165.50390625 67.59765625 c 0,10,11
 178.423828125 54.0859375 178.423828125 54.0859375 178.34765625 45.3681640625 c 0,12,13
 178.268554688 36.3056640625 178.268554688 36.3056640625 164.83203125 22.869140625 c 2,14,-1
 49.7099609375 -88.927734375 l 2,15,16
 35.8935546875 -102.711914062 35.8935546875 -102.711914062 26.73046875 -102.705078125 c 128,-1,17
 17.5654296875 -102.697265625 17.5654296875 -102.697265625 3.927734375 -89.0517578125 c 128,-1,18
 -9.69921875 -75.3837890625 -9.69921875 -75.3837890625 -9.6962890625 -66.1865234375 c 128,-1,19
 -9.6923828125 -56.994140625 -9.6923828125 -56.994140625 3.7822265625 -43.51953125 c 2,20,-1
 118.748046875 68.1259765625 l 2,21,22
 127.65234375 76.7529296875 127.65234375 76.7529296875 140.563476562 76.787109375 c 0,8,9
EndSplineSet
EndChar

StartChar: comma
Encoding: 44 44 18
Width: 161
VWidth: -20
Flags: W
LayerCount: 2
Fore
SplineSet
88.216796875 76.4375 m 4,0,1
 101.533203125 76.47265625 101.533203125 76.47265625 113.155273438 67.248046875 c 4,2,3
 126.075195312 53.7353515625 126.075195312 53.7353515625 126 45.0185546875 c 4,4,5
 125.920898438 35.9560546875 125.920898438 35.9560546875 112.484375 22.51953125 c 6,6,-1
 -2.6376953125 -89.27734375 l 6,7,8
 -16.455078125 -103.0625 -16.455078125 -103.0625 -25.6181640625 -103.0546875 c 132,-1,9
 -34.7822265625 -103.047851562 -34.7822265625 -103.047851562 -48.4189453125 -89.40234375 c 132,-1,10
 -62.046875 -75.734375 -62.046875 -75.734375 -62.04296875 -66.5361328125 c 132,-1,11
 -62.0400390625 -57.34375 -62.0400390625 -57.34375 -48.5654296875 -43.869140625 c 6,12,-1
 66.400390625 67.7763671875 l 6,13,14
 75.3046875 76.4033203125 75.3046875 76.4033203125 88.216796875 76.4375 c 4,0,1
EndSplineSet
EndChar

StartChar: period
Encoding: 46 46 19
Width: 164
VWidth: -4
Flags: W
LayerCount: 2
Fore
SplineSet
82.29296875 90.5625 m 132,-1,1
 101.5703125 90.5712890625 101.5703125 90.5712890625 108.078125 84.0595703125 c 132,-1,2
 114.591796875 77.54296875 114.591796875 77.54296875 114.599609375 58.2978515625 c 132,-1,3
 114.591796875 39.00390625 114.591796875 39.00390625 108.076171875 32.5 c 132,-1,4
 101.555664062 25.9912109375 101.555664062 25.9912109375 82.287109375 26 c 132,-1,5
 63.009765625 26 63.009765625 26 56.5078125 32.5107421875 c 132,-1,6
 50 39.02734375 50 39.02734375 50 58.287109375 c 132,-1,7
 50 77.5556640625 50 77.5556640625 56.509765625 84.0556640625 c 132,-1,0
 63.02734375 90.5625 63.02734375 90.5625 82.29296875 90.5625 c 132,-1,1
EndSplineSet
Validated: 1
EndChar

StartChar: slash
Encoding: 47 47 20
Width: 415
VWidth: 79
Flags: W
LayerCount: 2
Fore
SplineSet
368.631835938 773.98828125 m 2,0,-1
 369.823242188 774.006835938 l 2,1,2
 387.932617188 774.006835938 387.932617188 774.006835938 393.96484375 767.969726562 c 128,-1,3
 400 761.9296875 400 761.9296875 400 743.637695312 c 0,4,5
 400 735.84765625 400 735.84765625 396.189453125 728.920898438 c 0,6,-1
 395.936523438 728.432617188 l 1,7,-1
 62.09375 42.5029296875 l 2,8,9
 53.6279296875 25.8193359375 53.6279296875 25.8193359375 34.9814453125 25.8193359375 c 0,10,11
 16.6474609375 25.8193359375 16.6474609375 25.8193359375 10.625 31.8447265625 c 128,-1,12
 4.599609375 37.8720703125 4.599609375 37.8720703125 4.599609375 56.1884765625 c 0,13,14
 4.599609375 64.0400390625 4.599609375 64.0400390625 8.4853515625 71.013671875 c 0,15,-1
 8.7666015625 71.5537109375 l 1,16,-1
 342.60546875 757.47265625 l 2,17,18
 350.8125 773.497070312 350.8125 773.497070312 368.631835938 773.98828125 c 2,0,-1
EndSplineSet
EndChar

StartChar: zero
Encoding: 48 48 21
Width: 513
VWidth: 0
Flags: W
LayerCount: 2
Fore
SplineSet
223.88671875 0 m 2,0,1
 148.96484375 0 148.96484375 0 95.6533203125 53.310546875 c 128,-1,2
 42.341796875 106.62109375 42.341796875 106.62109375 42.341796875 181.544921875 c 2,3,-1
 42.341796875 518.455078125 l 2,4,5
 42.341796875 593.375 42.341796875 593.375 95.6533203125 646.6875 c 128,-1,6
 148.96484375 700 148.96484375 700 223.88671875 700 c 2,7,-1
 289.454101562 700 l 2,8,9
 364.376953125 700 364.376953125 700 417.688476562 646.6875 c 128,-1,10
 471 593.375 471 593.375 471 518.455078125 c 2,11,-1
 471 181.544921875 l 2,12,13
 471 106.62109375 471 106.62109375 417.688476562 53.310546875 c 128,-1,14
 364.376953125 0 364.376953125 0 289.454101562 0 c 2,15,-1
 223.88671875 0 l 2,0,1
223.88671875 62.1826171875 m 2,16,-1
 289.454101562 62.1826171875 l 2,17,18
 339.171875 62.1826171875 339.171875 62.1826171875 373.994140625 97.00390625 c 128,-1,19
 408.81640625 131.826171875 408.81640625 131.826171875 408.81640625 181.544921875 c 2,20,-1
 408.81640625 518.455078125 l 2,21,22
 408.81640625 568.166015625 408.81640625 568.166015625 373.9921875 602.9921875 c 128,-1,23
 339.16796875 637.817382812 339.16796875 637.817382812 289.454101562 637.817382812 c 2,24,-1
 223.88671875 637.817382812 l 2,25,26
 174.172851562 637.817382812 174.172851562 637.817382812 139.348632812 602.9921875 c 128,-1,27
 104.524414062 568.166015625 104.524414062 568.166015625 104.524414062 518.455078125 c 2,28,-1
 104.524414062 181.544921875 l 2,29,30
 104.524414062 131.826171875 104.524414062 131.826171875 139.346679688 97.00390625 c 128,-1,31
 174.168945312 62.1826171875 174.168945312 62.1826171875 223.88671875 62.1826171875 c 2,16,-1
EndSplineSet
EndChar

StartChar: one
Encoding: 49 49 22
Width: 315
VWidth: 79
Flags: W
LayerCount: 2
Fore
SplineSet
218.458007812 0.00390625 m 0,0,1
 205.787109375 0.1953125 205.787109375 0.1953125 196.818359375 9.2998046875 c 128,-1,2
 187.850585938 18.404296875 187.850585938 18.404296875 187.850585938 31.0771484375 c 2,3,-1
 187.853515625 31.5009765625 l 1,4,-1
 187.853515625 609.6328125 l 2,5,6
 187.853515625 621.313476562 187.853515625 621.313476562 179.57421875 629.592773438 c 128,-1,7
 171.317382812 637.8515625 171.317382812 637.8515625 159.634765625 637.8515625 c 2,8,-1
 86.4111328125 637.8515625 l 2,9,10
 86.0986328125 637.845703125 86.0986328125 637.845703125 85.84375 637.845703125 c 0,11,12
 72.978515625 637.845703125 72.978515625 637.845703125 63.8720703125 646.951171875 c 128,-1,13
 54.7666015625 656.056640625 54.7666015625 656.056640625 54.7666015625 668.922851562 c 128,-1,14
 54.7666015625 681.7890625 54.7666015625 681.7890625 63.8720703125 690.89453125 c 128,-1,15
 72.978515625 700 72.978515625 700 85.84375 700 c 0,16,17
 86.1513671875 700 86.1513671875 700 86.4111328125 699.995117188 c 2,18,-1
 159.634765625 699.995117188 l 2,19,20
 197.065429688 699.995117188 197.065429688 699.995117188 223.521484375 673.540039062 c 128,-1,21
 249.997070312 647.0625 249.997070312 647.0625 249.997070312 609.6328125 c 2,22,-1
 249.997070312 31.5009765625 l 1,23,-1
 250 31.0771484375 l 2,24,25
 250 18.2109375 250 18.2109375 240.89453125 9.10546875 c 128,-1,26
 231.7890625 0 231.7890625 0 218.458007812 0.00390625 c 0,0,1
EndSplineSet
EndChar

StartChar: three
Encoding: 51 51 23
Width: 505
VWidth: 0
Flags: W
LayerCount: 2
Fore
SplineSet
70.7490234375 0 m 2,0,1
 57.8720703125 0 57.8720703125 0 48.7421875 9.1298828125 c 128,-1,2
 39.6123046875 18.259765625 39.6123046875 18.259765625 39.6123046875 31.13671875 c 128,-1,3
 39.6123046875 44.013671875 39.6123046875 44.013671875 48.7421875 53.1435546875 c 128,-1,4
 57.8720703125 62.2734375 57.8720703125 62.2734375 70.7490234375 62.2734375 c 2,5,-1
 254.423828125 62.2734375 l 2,6,7
 307.84765625 62.2734375 307.84765625 62.2734375 345.284179688 99.708984375 c 128,-1,8
 382.719726562 137.145507812 382.719726562 137.145507812 382.719726562 190.569335938 c 128,-1,9
 382.719726562 243.994140625 382.719726562 243.994140625 345.284179688 281.4296875 c 128,-1,10
 307.848632812 318.865234375 307.848632812 318.865234375 254.423828125 318.865234375 c 2,11,-1
 187.237304688 318.865234375 l 2,12,13
 174.359375 318.865234375 174.359375 318.865234375 165.23046875 327.993164062 c 128,-1,14
 156.100585938 337.12109375 156.100585938 337.12109375 156.100585938 349.998046875 c 128,-1,15
 156.100585938 362.876953125 156.100585938 362.876953125 165.23046875 372.0078125 c 128,-1,16
 174.359375 381.138671875 174.359375 381.138671875 187.237304688 381.138671875 c 2,17,-1
 254.423828125 381.138671875 l 2,18,19
 307.84765625 381.138671875 307.84765625 381.138671875 345.283203125 418.57421875 c 128,-1,20
 382.719726562 456.009765625 382.719726562 456.009765625 382.719726562 509.430664062 c 128,-1,21
 382.719726562 562.854492188 382.719726562 562.854492188 345.284179688 600.290039062 c 128,-1,22
 307.84765625 637.7265625 307.84765625 637.7265625 254.423828125 637.7265625 c 2,23,-1
 70.7490234375 637.7265625 l 2,24,25
 57.8720703125 637.7265625 57.8720703125 637.7265625 48.7421875 646.856445312 c 128,-1,26
 39.6123046875 655.986328125 39.6123046875 655.986328125 39.6123046875 668.86328125 c 128,-1,27
 39.6123046875 681.741210938 39.6123046875 681.741210938 48.7421875 690.87109375 c 128,-1,28
 57.8720703125 700 57.8720703125 700 70.7490234375 700 c 2,29,-1
 254.423828125 700 l 2,30,31
 333.084960938 700 333.084960938 700 389.04296875 644.044921875 c 128,-1,32
 445 588.090820312 445 588.090820312 445 509.430664062 c 0,33,34
 445 460.282226562 445 460.282226562 421.368164062 418.17578125 c 128,-1,35
 397.736328125 376.069335938 397.736328125 376.069335938 357.6484375 349.998046875 c 1,36,37
 397.729492188 323.923828125 397.729492188 323.923828125 421.364257812 281.817382812 c 128,-1,38
 445 239.7109375 445 239.7109375 445 190.569335938 c 0,39,40
 445 111.912109375 445 111.912109375 389.041992188 55.9560546875 c 128,-1,41
 333.084960938 0 333.084960938 0 254.423828125 0 c 2,42,-1
 70.7490234375 0 l 2,0,1
EndSplineSet
EndChar

StartChar: four
Encoding: 52 52 24
Width: 487
VWidth: 0
Flags: W
LayerCount: 2
Fore
SplineSet
334.1015625 0.00390625 m 2,0,1
 321.4296875 0.1953125 321.4296875 0.1953125 312.461914062 9.2998046875 c 128,-1,2
 303.494140625 18.404296875 303.494140625 18.404296875 303.494140625 31.0771484375 c 2,3,-1
 303.497070312 31.5009765625 l 1,4,-1
 303.497070312 158.838867188 l 1,5,-1
 61.51953125 158.838867188 l 2,6,7
 48.666015625 158.845703125 48.666015625 158.845703125 39.564453125 167.946289062 c 128,-1,8
 30.4638671875 177.046875 30.4638671875 177.046875 30.45703125 189.900390625 c 2,9,-1
 30.45703125 255.821289062 l 2,10,11
 30.45703125 263.411132812 30.45703125 263.411132812 33.943359375 270.137695312 c 2,12,-1
 248.510742188 683.255859375 l 2,13,14
 257.215820312 700 257.215820312 700 276.0859375 700 c 0,15,-1
 334.55859375 700 l 2,16,17
 347.4296875 700 347.4296875 700 356.53515625 690.89453125 c 128,-1,18
 365.640625 681.7890625 365.640625 681.7890625 365.640625 668.922851562 c 0,19,-1
 365.640625 220.983398438 l 1,20,-1
 405.354492188 220.983398438 l 2,21,22
 418.7890625 220.98828125 418.7890625 220.98828125 427.89453125 211.8828125 c 128,-1,23
 437 202.77734375 437 202.77734375 437 189.911132812 c 128,-1,24
 437 177.044921875 437 177.044921875 427.89453125 167.939453125 c 128,-1,25
 418.7890625 158.833984375 418.7890625 158.833984375 405.922851562 158.833984375 c 0,26,-1
 365.640625 158.838867188 l 1,27,-1
 365.640625 31.5009765625 l 1,28,-1
 365.643554688 31.0771484375 l 2,29,30
 365.643554688 18.2109375 365.643554688 18.2109375 356.538085938 9.10546875 c 128,-1,31
 347.432617188 0 347.432617188 0 334.56640625 0 c 2,32,-1
 334.1015625 0.00390625 l 2,0,1
92.6015625 220.983398438 m 1,33,-1
 303.497070312 220.983398438 l 1,34,-1
 303.497070312 637.856445312 l 1,35,-1
 294.948242188 637.856445312 l 1,36,-1
 92.6015625 248.2265625 l 1,37,-1
 92.6015625 220.983398438 l 1,33,-1
EndSplineSet
EndChar

StartChar: six
Encoding: 54 54 25
Width: 496
VWidth: 0
Flags: W
LayerCount: 2
Fore
SplineSet
224.626953125 0 m 2,0,1
 152.189453125 0 152.189453125 0 100.98828125 51.220703125 c 128,-1,2
 49.7890625 102.419921875 49.7890625 102.419921875 49.7890625 174.858398438 c 2,3,-1
 49.7890625 525.13671875 l 2,4,5
 49.7890625 597.290039062 49.7890625 597.290039062 101.1328125 648.642578125 c 128,-1,6
 152.477539062 699.995117188 152.477539062 699.995117188 224.626953125 699.995117188 c 2,7,-1
 393.028320312 699.995117188 l 2,8,9
 393.2890625 700 393.2890625 700 393.595703125 700 c 0,10,11
 406.469726562 700 406.469726562 700 415.581054688 690.888671875 c 128,-1,12
 424.692382812 681.77734375 424.692382812 681.77734375 424.692382812 668.903320312 c 128,-1,13
 424.692382812 656.029296875 424.692382812 656.029296875 415.581054688 646.91796875 c 128,-1,14
 406.469726562 637.806640625 406.469726562 637.806640625 393.595703125 637.806640625 c 0,15,16
 393.340820312 637.806640625 393.340820312 637.806640625 393.028320312 637.8125 c 2,17,-1
 224.626953125 637.8125 l 2,18,19
 177.684570312 637.8125 177.684570312 637.8125 144.828125 604.947265625 c 128,-1,20
 111.971679688 572.083007812 111.971679688 572.083007812 111.971679688 525.13671875 c 2,21,-1
 111.971679688 402.204101562 l 1,22,23
 117.784179688 402.176757812 117.784179688 402.176757812 142.796875 402.049804688 c 128,-1,24
 167.809570312 401.922851562 167.809570312 401.922851562 207.42578125 401.72265625 c 128,-1,25
 247.041992188 401.5234375 247.041992188 401.5234375 281.9921875 401.352539062 c 0,26,27
 353.895507812 400.995117188 353.895507812 400.995117188 404.948242188 349.6953125 c 128,-1,28
 456 298.396484375 456 298.396484375 456 226.494140625 c 2,29,-1
 456 174.858398438 l 2,30,31
 456 102.440429688 456 102.440429688 404.779296875 51.2197265625 c 128,-1,32
 353.559570312 0 353.559570312 0 281.141601562 0 c 2,33,-1
 224.626953125 0 l 2,0,1
224.626953125 62.1826171875 m 2,34,-1
 281.141601562 62.1826171875 l 2,35,36
 327.8125 62.1826171875 327.8125 62.1826171875 360.826171875 95.1943359375 c 128,-1,37
 393.817382812 128.185546875 393.817382812 128.185546875 393.817382812 174.858398438 c 2,38,-1
 393.817382812 226.494140625 l 2,39,40
 393.817382812 273.271484375 393.817382812 273.271484375 361.1484375 306.104492188 c 128,-1,41
 328.479492188 338.9375 328.479492188 338.9375 281.702148438 339.169921875 c 0,42,43
 247.702148438 339.3359375 247.702148438 339.3359375 111.971679688 340.021484375 c 1,44,-1
 111.971679688 174.858398438 l 2,45,46
 111.971679688 128.18359375 111.971679688 128.18359375 144.962890625 95.1943359375 c 128,-1,47
 177.9609375 62.1826171875 177.9609375 62.1826171875 224.626953125 62.1826171875 c 2,34,-1
EndSplineSet
EndChar

StartChar: five
Encoding: 53 53 26
Width: 517
VWidth: 0
Flags: W
LayerCount: 2
Fore
SplineSet
81.310546875 0.0048828125 m 2,0,1
 81.048828125 0 81.048828125 0 80.7431640625 0 c 0,2,3
 67.8701171875 0 67.8701171875 0 58.7578125 9.111328125 c 128,-1,4
 49.646484375 18.22265625 49.646484375 18.22265625 49.646484375 31.0966796875 c 128,-1,5
 49.646484375 43.970703125 49.646484375 43.970703125 58.7587890625 53.0810546875 c 128,-1,6
 67.8701171875 62.1923828125 67.8701171875 62.1923828125 80.7431640625 62.1923828125 c 0,7,8
 81.048828125 62.1923828125 81.048828125 62.1923828125 81.310546875 62.1875 c 2,9,-1
 294.141601562 62.1875 l 2,10,11
 335.602539062 62.1875 335.602539062 62.1875 364.918945312 91.5029296875 c 128,-1,12
 394.254882812 120.840820312 394.254882812 120.840820312 394.254882812 162.301757812 c 2,13,-1
 394.254882812 259.903320312 l 2,14,15
 394.254882812 301.366210938 394.254882812 301.366210938 364.918945312 330.702148438 c 128,-1,16
 335.614257812 360.017578125 335.614257812 360.017578125 294.141601562 360.017578125 c 2,17,-1
 144.28125 360.017578125 l 2,18,19
 105.596679688 360.017578125 105.596679688 360.017578125 77.9130859375 387.708984375 c 128,-1,20
 50.2294921875 415.401367188 50.2294921875 415.401367188 50.2294921875 454.08984375 c 2,21,-1
 50.2294921875 668.893554688 l 2,22,23
 50.2294921875 681.765625 50.2294921875 681.765625 59.3369140625 690.876953125 c 128,-1,24
 68.443359375 699.98828125 68.443359375 699.98828125 81.310546875 699.995117188 c 2,25,-1
 425.3359375 699.995117188 l 2,26,27
 425.596679688 700 425.596679688 700 425.903320312 700 c 0,28,29
 438.77734375 700 438.77734375 700 447.888671875 690.888671875 c 128,-1,30
 457 681.77734375 457 681.77734375 457 668.903320312 c 128,-1,31
 457 656.029296875 457 656.029296875 447.888671875 646.918945312 c 128,-1,32
 438.77734375 637.807617188 438.77734375 637.807617188 425.903320312 637.807617188 c 0,33,34
 425.596679688 637.807617188 425.596679688 637.807617188 425.3359375 637.8125 c 2,35,-1
 112.411132812 637.8125 l 1,36,-1
 112.411132812 454.08984375 l 2,37,38
 112.411132812 440.602539062 112.411132812 440.602539062 121.60546875 431.401367188 c 128,-1,39
 130.798828125 422.19921875 130.798828125 422.19921875 144.28125 422.200195312 c 2,40,-1
 294.141601562 422.200195312 l 2,41,42
 361.389648438 422.200195312 361.389648438 422.200195312 408.892578125 374.67578125 c 128,-1,43
 456.4375 327.130859375 456.4375 327.130859375 456.4375 259.903320312 c 2,44,-1
 456.4375 162.301757812 l 2,45,46
 456.4375 95.07421875 456.4375 95.07421875 408.892578125 47.529296875 c 128,-1,47
 361.368164062 0.0048828125 361.368164062 0.0048828125 294.141601562 0.0048828125 c 2,48,-1
 81.310546875 0.0048828125 l 2,0,1
EndSplineSet
EndChar

StartChar: seven
Encoding: 55 55 27
Width: 467
VWidth: 0
Flags: W
LayerCount: 2
Fore
SplineSet
127.0546875 0.0341796875 m 0,0,1
 114.784179688 0.6025390625 114.784179688 0.6025390625 106.099609375 9.6982421875 c 128,-1,2
 97.4150390625 18.794921875 97.4150390625 18.794921875 97.4150390625 31.0791015625 c 0,3,4
 97.4150390625 38.123046875 97.4150390625 38.123046875 100.453125 44.48046875 c 0,5,6
 274.380859375 422.1484375 274.380859375 422.1484375 354.37109375 595.850585938 c 0,7,8
 361.143554688 610.55859375 361.143554688 610.55859375 352.400390625 624.215820312 c 128,-1,9
 343.643554688 637.848632812 343.643554688 637.848632812 327.458984375 637.848632812 c 2,10,-1
 81.736328125 637.848632812 l 2,11,12
 81.4755859375 637.84375 81.4755859375 637.84375 81.1689453125 637.84375 c 0,13,14
 68.302734375 637.84375 68.302734375 637.84375 59.1962890625 646.94921875 c 128,-1,15
 50.0908203125 656.055664062 50.0908203125 656.055664062 50.0908203125 668.921875 c 128,-1,16
 50.0908203125 681.788085938 50.0908203125 681.788085938 59.1962890625 690.89453125 c 128,-1,17
 68.302734375 700 68.302734375 700 81.1689453125 700 c 0,18,19
 81.4755859375 700 81.4755859375 700 81.736328125 699.995117188 c 2,20,-1
 327.458984375 699.995117188 l 2,21,22
 377.665039062 699.995117188 377.665039062 699.995117188 404.752929688 657.7265625 c 128,-1,23
 431.823242188 615.444335938 431.823242188 615.444335938 410.83203125 569.850585938 c 2,24,-1
 156.9140625 18.48046875 l 2,25,26
 153.521484375 10.8291015625 153.521484375 10.8291015625 145.197265625 5.4150390625 c 128,-1,27
 136.873046875 0 136.873046875 0 128.50390625 0 c 0,28,29
 127.791015625 0 127.791015625 0 127.0546875 0.0341796875 c 0,0,1
EndSplineSet
EndChar

StartChar: eight
Encoding: 56 56 28
Width: 460
VWidth: 0
Flags: W
LayerCount: 2
Fore
SplineSet
230.028320312 700 m 128,-1,1
 308.446289062 700 308.446289062 700 364.21484375 644.223632812 c 128,-1,2
 419.984375 588.448242188 419.984375 588.448242188 419.985351562 510.028320312 c 0,3,4
 419.985351562 460.509765625 419.985351562 460.509765625 395.966796875 418.184570312 c 128,-1,5
 371.94921875 375.858398438 371.94921875 375.858398438 331.311523438 350 c 1,6,7
 371.954101562 324.140625 371.954101562 324.140625 395.9765625 281.815429688 c 128,-1,8
 420 239.490234375 420 239.490234375 420 189.971679688 c 0,9,10
 420 111.55078125 420 111.55078125 364.223632812 55.775390625 c 128,-1,11
 308.448242188 0 308.448242188 0 230.028320312 0 c 128,-1,12
 151.608398438 0 151.608398438 0 95.8330078125 55.775390625 c 128,-1,13
 40.0576171875 111.551757812 40.0576171875 111.551757812 40.0576171875 189.971679688 c 0,14,15
 40.0576171875 239.491210938 40.0576171875 239.491210938 64.0791015625 281.81640625 c 128,-1,16
 88.1015625 324.141601562 88.1015625 324.141601562 128.74609375 350 c 1,17,18
 88.1015625 375.858398438 88.1015625 375.858398438 64.0791015625 418.18359375 c 128,-1,19
 40.0576171875 460.508789062 40.0576171875 460.508789062 40.0576171875 510.028320312 c 0,20,21
 40.0576171875 588.448242188 40.0576171875 588.448242188 95.8330078125 644.224609375 c 128,-1,0
 151.608398438 700 151.608398438 700 230.028320312 700 c 128,-1,1
230.028320312 640.115234375 m 128,-1,23
 175.880859375 640.115234375 175.880859375 640.115234375 137.911132812 602.145507812 c 128,-1,24
 99.9423828125 564.17578125 99.9423828125 564.17578125 99.9423828125 510.028320312 c 128,-1,25
 99.9423828125 455.881835938 99.9423828125 455.881835938 137.911132812 417.912109375 c 128,-1,26
 175.880859375 379.942382812 175.880859375 379.942382812 230.028320312 379.942382812 c 128,-1,27
 284.173828125 379.942382812 284.173828125 379.942382812 322.13671875 417.91015625 c 128,-1,28
 360.099609375 455.877929688 360.099609375 455.877929688 360.099609375 510.028320312 c 128,-1,29
 360.099609375 564.1796875 360.099609375 564.1796875 322.13671875 602.147460938 c 128,-1,22
 284.173828125 640.115234375 284.173828125 640.115234375 230.028320312 640.115234375 c 128,-1,23
230.028320312 320.057617188 m 128,-1,31
 175.880859375 320.057617188 175.880859375 320.057617188 137.911132812 282.087890625 c 128,-1,32
 99.9423828125 244.119140625 99.9423828125 244.119140625 99.9423828125 189.971679688 c 128,-1,33
 99.9423828125 135.82421875 99.9423828125 135.82421875 137.911132812 97.8544921875 c 128,-1,34
 175.880859375 59.884765625 175.880859375 59.884765625 230.028320312 59.884765625 c 128,-1,35
 284.174804688 59.884765625 284.174804688 59.884765625 322.14453125 97.8544921875 c 128,-1,36
 360.115234375 135.82421875 360.115234375 135.82421875 360.115234375 189.971679688 c 128,-1,37
 360.115234375 244.119140625 360.115234375 244.119140625 322.14453125 282.087890625 c 128,-1,30
 284.174804688 320.057617188 284.174804688 320.057617188 230.028320312 320.057617188 c 128,-1,31
EndSplineSet
EndChar

StartChar: nine
Encoding: 57 57 29
Width: 496
VWidth: 0
Flags: W
LayerCount: 2
Fore
SplineSet
102.760742188 0.0048828125 m 2,0,1
 102.5 0 102.5 0 102.193359375 0 c 0,2,3
 89.3193359375 0 89.3193359375 0 80.2080078125 9.111328125 c 128,-1,4
 71.09765625 18.22265625 71.09765625 18.22265625 71.09765625 31.0966796875 c 128,-1,5
 71.09765625 43.970703125 71.09765625 43.970703125 80.2080078125 53.08203125 c 128,-1,6
 89.3193359375 62.193359375 89.3193359375 62.193359375 102.193359375 62.193359375 c 0,7,8
 102.448242188 62.193359375 102.448242188 62.193359375 102.760742188 62.1875 c 2,9,-1
 271.141601562 62.1875 l 2,10,11
 318.0859375 62.1875 318.0859375 62.1875 350.951171875 95.0537109375 c 128,-1,12
 383.817382812 127.918945312 383.817382812 127.918945312 383.817382812 174.86328125 c 2,13,-1
 383.817382812 297.795898438 l 1,14,15
 377.0390625 297.828125 377.0390625 297.828125 353.6796875 297.944335938 c 128,-1,16
 330.3203125 298.061523438 330.3203125 298.061523438 287.658203125 298.276367188 c 128,-1,17
 244.99609375 298.491210938 244.99609375 298.491210938 213.776367188 298.647460938 c 0,18,19
 141.874023438 299.004882812 141.874023438 299.004882812 90.83203125 350.303710938 c 128,-1,20
 39.7900390625 401.6015625 39.7900390625 401.6015625 39.7900390625 473.505859375 c 2,21,-1
 39.7900390625 525.141601562 l 2,22,23
 39.7900390625 597.580078125 39.7900390625 597.580078125 91.009765625 648.780273438 c 128,-1,24
 142.2109375 700 142.2109375 700 214.6484375 700 c 2,25,-1
 271.141601562 700 l 2,26,27
 343.600585938 700 343.600585938 700 394.80078125 648.780273438 c 128,-1,28
 446 597.579101562 446 597.579101562 446 525.141601562 c 2,29,-1
 446 174.86328125 l 2,30,31
 446 102.711914062 446 102.711914062 394.646484375 51.3583984375 c 128,-1,32
 343.29296875 0.0048828125 343.29296875 0.0048828125 271.141601562 0.0048828125 c 2,33,-1
 102.760742188 0.0048828125 l 2,0,1
383.817382812 359.978515625 m 1,34,-1
 383.817382812 525.141601562 l 2,35,36
 383.817382812 571.815429688 383.817382812 571.815429688 350.827148438 604.805664062 c 0,37,-1
 350.827148438 604.829101562 l 1,38,39
 317.84765625 637.8203125 317.84765625 637.8203125 271.141601562 637.8203125 c 2,40,-1
 214.6484375 637.8203125 l 2,41,42
 167.961914062 637.8203125 167.961914062 637.8203125 134.984375 604.829101562 c 0,43,-1
 134.984375 604.805664062 l 1,44,45
 101.97265625 571.807617188 101.97265625 571.807617188 101.97265625 525.140625 c 2,46,-1
 101.97265625 473.505859375 l 2,47,48
 101.97265625 426.728515625 101.97265625 426.728515625 134.640625 393.895507812 c 128,-1,49
 167.309570312 361.0625 167.309570312 361.0625 214.087890625 360.830078125 c 0,50,51
 246.151367188 360.669921875 246.151367188 360.669921875 287.979492188 360.458984375 c 128,-1,52
 329.807617188 360.249023438 329.807617188 360.249023438 353.409179688 360.129882812 c 128,-1,53
 377.01171875 360.01171875 377.01171875 360.01171875 383.817382812 359.978515625 c 1,34,-1
EndSplineSet
EndChar

StartChar: colon
Encoding: 58 58 30
Width: 295
VWidth: 77
Flags: W
LayerCount: 2
Fore
SplineSet
147.295898438 448.401367188 m 128,-1,1
 169.301757812 448.401367188 169.301757812 448.401367188 177.15234375 440.555664062 c 128,-1,2
 185 432.711914062 185 432.711914062 185 410.75 c 128,-1,3
 184.987304688 388.748046875 184.987304688 388.748046875 177.135742188 380.896484375 c 128,-1,4
 169.287109375 373.048828125 169.287109375 373.048828125 147.314453125 373.048828125 c 128,-1,5
 125.318359375 373.048828125 125.318359375 373.048828125 117.47265625 380.892578125 c 128,-1,6
 109.62890625 388.734375 109.62890625 388.734375 109.62890625 410.715820312 c 128,-1,7
 109.62890625 432.711914062 109.62890625 432.711914062 117.47265625 440.557617188 c 128,-1,0
 125.314453125 448.401367188 125.314453125 448.401367188 147.295898438 448.401367188 c 128,-1,1
147.295898438 132.037109375 m 128,-1,9
 169.280273438 132.037109375 169.280273438 132.037109375 177.133789062 124.188476562 c 128,-1,10
 184.987304688 116.33984375 184.987304688 116.33984375 185 94.38671875 c 128,-1,11
 184.987304688 72.3955078125 184.987304688 72.3955078125 177.137695312 64.5498046875 c 128,-1,12
 169.290039062 56.7041015625 169.290039062 56.7041015625 147.314453125 56.7041015625 c 128,-1,13
 125.318359375 56.7041015625 125.318359375 56.7041015625 117.47265625 64.5478515625 c 128,-1,14
 109.62890625 72.3896484375 109.62890625 72.3896484375 109.62890625 94.37109375 c 128,-1,15
 109.62890625 116.35546875 109.62890625 116.35546875 117.470703125 124.196289062 c 128,-1,8
 125.311523438 132.037109375 125.311523438 132.037109375 147.295898438 132.037109375 c 128,-1,9
EndSplineSet
EndChar

StartChar: equal
Encoding: 61 61 31
Width: 518
VWidth: 0
Flags: W
LayerCount: 2
Fore
SplineSet
80.6748046875 483.45703125 m 2,0,-1
 436.901367188 483.45703125 l 2,1,2
 455 483 455 483 461.36328125 476.916992188 c 0,3,4
 468 470 468 470 468 453 c 128,-1,5
 468 436 468 436 461.48828125 429.053710938 c 0,6,7
 454.509513513 422.542365181 454.509513513 422.542365181 437.54296875 422.54296875 c 2,8,-1
 80.6728515625 422.555664062 l 2,9,10
 63 423 63 423 56.2099609375 429.09375 c 0,11,12
 50 436 50 436 49.57421875 453 c 0,13,14
 50 470 50 470 56.2109375 476.9140625 c 0,15,16
 63 483 63 483 80.6748046875 483.45703125 c 2,0,-1
80.6767578125 253.244140625 m 2,17,-1
 436.897460938 253.244140625 l 2,18,19
 455 253 455 253 461.362304688 246.698242188 c 0,20,21
 468 240 468 240 468 222.787109375 c 0,22,23
 468 205 468 205 461.489257812 198.840820312 c 0,24,25
 455.313114795 192.330078125 455.313114795 192.330078125 437.54296875 192.330078125 c 2,26,-1
 80.6767578125 192.330078125 l 2,27,28
 63 192 63 192 56.2119140625 198.875976562 c 0,29,30
 50 205 50 205 49.57421875 222.787109375 c 0,31,32
 50 240 50 240 56.2119140625 246.698242188 c 0,33,34
 63 253 63 253 80.6767578125 253.244140625 c 2,17,-1
EndSplineSet
EndChar

StartChar: percent
Encoding: 37 37 32
Width: 747
VWidth: 0
Flags: W
LayerCount: 2
Fore
SplineSet
584.911132812 680.458007812 m 0,0,1
 597.095703125 680.452148438 597.095703125 680.452148438 605.719726562 671.82421875 c 128,-1,2
 614.344726562 663.196289062 614.344726562 663.196289062 614.344726562 651.010742188 c 0,3,4
 614.344726562 641.418945312 614.344726562 641.418945312 608.694335938 633.66796875 c 2,5,-1
 177.764648438 24.357421875 l 2,6,7
 168.990234375 11.5712890625 168.990234375 11.5712890625 153.483398438 11.5712890625 c 0,8,9
 141.291992188 11.5712890625 141.291992188 11.5712890625 132.6640625 20.19921875 c 128,-1,10
 124.036132812 28.8271484375 124.036132812 28.8271484375 124.036132812 41.0185546875 c 0,11,12
 124.036132812 50.6103515625 124.036132812 50.6103515625 129.684570312 58.361328125 c 2,13,-1
 560.616210938 667.671875 l 2,14,15
 569.389648438 680.458007812 569.389648438 680.458007812 584.911132812 680.458007812 c 0,0,1
177.065429688 661.248046875 m 128,-1,17
 229.801757812 661.248046875 229.801757812 661.248046875 266.774414062 624.275390625 c 128,-1,18
 303.749023438 587.30078125 303.749023438 587.30078125 303.749023438 534.564453125 c 128,-1,19
 303.749023438 481.828125 303.749023438 481.828125 266.774414062 444.854492188 c 128,-1,20
 229.80078125 407.880859375 229.80078125 407.880859375 177.064453125 407.880859375 c 128,-1,21
 124.328125 407.880859375 124.328125 407.880859375 87.3544921875 444.854492188 c 128,-1,22
 50.3798828125 481.828125 50.3798828125 481.828125 50.3798828125 534.564453125 c 128,-1,23
 50.3798828125 587.30078125 50.3798828125 587.30078125 87.3544921875 624.275390625 c 128,-1,16
 124.327148438 661.248046875 124.327148438 661.248046875 177.065429688 661.248046875 c 128,-1,17
177.065429688 602.73046875 m 128,-1,25
 149.092773438 602.73046875 149.092773438 602.73046875 128.997070312 582.634765625 c 128,-1,26
 108.901367188 562.5390625 108.901367188 562.5390625 108.901367188 534.564453125 c 128,-1,27
 108.901367188 506.590820312 108.901367188 506.590820312 128.997070312 486.495117188 c 128,-1,28
 149.091796875 466.399414062 149.091796875 466.399414062 177.065429688 466.399414062 c 128,-1,29
 205.038085938 466.399414062 205.038085938 466.399414062 225.133789062 486.495117188 c 128,-1,30
 245.229492188 506.590820312 245.229492188 506.590820312 245.229492188 534.564453125 c 128,-1,31
 245.229492188 562.5390625 245.229492188 562.5390625 225.133789062 582.634765625 c 128,-1,24
 205.038085938 602.73046875 205.038085938 602.73046875 177.065429688 602.73046875 c 128,-1,25
561.317382812 284.147460938 m 128,-1,33
 614.053710938 284.147460938 614.053710938 284.147460938 651.026367188 247.174804688 c 128,-1,34
 688 210.201171875 688 210.201171875 688 157.46484375 c 128,-1,35
 688 104.728515625 688 104.728515625 651.026367188 67.75390625 c 128,-1,36
 614.052734375 30.7802734375 614.052734375 30.7802734375 561.31640625 30.7802734375 c 128,-1,37
 508.581054688 30.7802734375 508.581054688 30.7802734375 471.606445312 67.75390625 c 128,-1,38
 434.6328125 104.728515625 434.6328125 104.728515625 434.6328125 157.46484375 c 128,-1,39
 434.6328125 210.201171875 434.6328125 210.201171875 471.606445312 247.174804688 c 128,-1,32
 508.579101562 284.147460938 508.579101562 284.147460938 561.317382812 284.147460938 c 128,-1,33
561.317382812 225.62890625 m 128,-1,41
 533.34375 225.62890625 533.34375 225.62890625 513.247070312 205.534179688 c 128,-1,42
 493.15234375 185.4375 493.15234375 185.4375 493.15234375 157.463867188 c 128,-1,43
 493.15234375 129.490234375 493.15234375 129.490234375 513.247070312 109.39453125 c 128,-1,44
 533.34375 89.298828125 533.34375 89.298828125 561.31640625 89.298828125 c 128,-1,45
 589.290039062 89.298828125 589.290039062 89.298828125 609.385742188 109.39453125 c 128,-1,46
 629.48046875 129.490234375 629.48046875 129.490234375 629.48046875 157.463867188 c 128,-1,47
 629.48046875 185.4375 629.48046875 185.4375 609.385742188 205.534179688 c 128,-1,40
 589.2890625 225.62890625 589.2890625 225.62890625 561.317382812 225.62890625 c 128,-1,41
EndSplineSet
EndChar

StartChar: question
Encoding: 63 63 33
Width: 500
VWidth: 0
Flags: W
LayerCount: 2
Fore
SplineSet
172.389648438 57.8125 m 128,-1,1
 189.739257812 57.8203125 189.739257812 57.8203125 195.595703125 51.9599609375 c 128,-1,2
 201.458007812 46.095703125 201.458007812 46.095703125 201.465820312 28.7744140625 c 128,-1,3
 201.458007812 11.41015625 201.458007812 11.41015625 195.594726562 5.556640625 c 128,-1,4
 189.725585938 -0.30078125 189.725585938 -0.30078125 172.383789062 -0.29296875 c 128,-1,5
 155.034179688 -0.29296875 155.034179688 -0.29296875 149.182617188 5.56640625 c 128,-1,6
 143.325195312 11.431640625 143.325195312 11.431640625 143.325195312 28.7646484375 c 128,-1,7
 143.325195312 46.1064453125 143.325195312 46.1064453125 149.184570312 51.95703125 c 128,-1,0
 155.049804688 57.8125 155.049804688 57.8125 172.389648438 57.8125 c 128,-1,1
87.61328125 700.421875 m 1,8,-1
 307.1328125 700.421875 l 2,9,10
 374.233398438 700.421875 374.233398438 700.421875 414.524414062 652.88671875 c 0,11,12
 449.897460938 611.155273438 449.897460938 611.155273438 450 551.909179688 c 128,-1,13
 450.102539062 492.603515625 450.102539062 492.603515625 414.80078125 450.860351562 c 0,14,15
 374.579101562 403.297851562 374.579101562 403.297851562 307.280273438 403.297851562 c 0,16,17
 259.017578125 403.297851562 259.017578125 403.297851562 233.296875 390.364257812 c 0,18,19
 214.701171875 381.012695312 214.701171875 381.012695312 206.939453125 363.08203125 c 0,20,21
 204.04296875 356.390625 204.04296875 356.390625 202.317382812 347.870117188 c 128,-1,22
 200.591796875 339.350585938 200.591796875 339.350585938 200.016601562 327.33984375 c 128,-1,23
 199.44140625 315.328125 199.44140625 315.328125 199.33984375 306.908203125 c 128,-1,24
 199.23828125 298.48828125 199.23828125 298.48828125 199.4609375 281.91796875 c 128,-1,25
 199.684570312 265.348632812 199.684570312 265.348632812 199.684570312 257.788085938 c 2,26,-1
 199.684570312 195.512695312 l 1,27,-1
 199.686523438 195.177734375 l 2,28,29
 199.686523438 183.91796875 199.686523438 183.91796875 191.717773438 175.950195312 c 128,-1,30
 183.75 167.981445312 183.75 167.981445312 172.490234375 167.981445312 c 128,-1,31
 161.23046875 167.981445312 161.23046875 167.981445312 153.262695312 175.950195312 c 128,-1,32
 145.293945312 183.91796875 145.293945312 183.91796875 145.293945312 195.177734375 c 2,33,-1
 145.295898438 195.512695312 l 1,34,-1
 145.295898438 257.788085938 l 2,35,36
 145.295898438 264.658203125 145.295898438 264.658203125 144.576171875 286.311523438 c 128,-1,37
 143.857421875 307.963867188 143.857421875 307.963867188 144.071289062 320.08203125 c 128,-1,38
 144.28515625 332.19921875 144.28515625 332.19921875 147.381835938 350.877929688 c 128,-1,39
 150.478515625 369.556640625 150.478515625 369.556640625 157.026367188 384.68359375 c 0,40,41
 172.630859375 420.735351562 172.630859375 420.735351562 208.86328125 438.955078125 c 0,42,43
 246.106445312 457.68359375 246.106445312 457.68359375 307.280273438 457.68359375 c 0,44,45
 349.342773438 457.68359375 349.342773438 457.68359375 373.271484375 485.979492188 c 0,46,47
 395.68359375 512.483398438 395.68359375 512.483398438 395.615234375 551.814453125 c 128,-1,48
 395.546875 591.161132812 395.546875 591.161132812 373.036132812 617.717773438 c 0,49,50
 349.032226562 646.037109375 349.032226562 646.037109375 307.1328125 646.037109375 c 2,51,-1
 87.61328125 646.037109375 l 1,52,-1
 87.1494140625 646.033203125 l 2,53,54
 75.8896484375 646.033203125 75.8896484375 646.033203125 67.921875 654.001953125 c 128,-1,55
 59.953125 661.969726562 59.953125 661.969726562 59.953125 673.229492188 c 128,-1,56
 59.953125 684.489257812 59.953125 684.489257812 67.921875 692.45703125 c 128,-1,57
 75.8896484375 700.42578125 75.8896484375 700.42578125 87.1494140625 700.42578125 c 2,58,-1
 87.61328125 700.421875 l 1,8,-1
EndSplineSet
EndChar

StartChar: a
Encoding: 97 97 34
Width: 420
VWidth: 0
Flags: W
LayerCount: 2
Fore
SplineSet
166.697265625 499.555664062 m 0,0,1
 232.846679688 499.443359375 232.846679688 499.443359375 265.29296875 492.015625 c 0,2,3
 296.67578125 484.83203125 296.67578125 484.83203125 327.711914062 456.801757812 c 0,4,-1
 327.719726562 456.793945312 l 2,5,6
 365.038085938 423.069335938 365.038085938 423.069335938 365 350.701171875 c 2,7,-1
 364.831054688 29.6904296875 l 1,8,-1
 364.833007812 29.2978515625 l 2,9,10
 364.833007812 22.1162109375 364.833007812 22.1162109375 361.313476562 15.6298828125 c 128,-1,11
 357.794921875 9.1435546875 357.794921875 9.1435546875 351.739257812 4.9267578125 c 128,-1,12
 345.682617188 0.708984375 345.682617188 0.708984375 338.545898438 -0.0869140625 c 0,13,14
 334.8125 -1.08203125 334.8125 -1.08203125 330.942382812 -1.08203125 c 0,15,16
 308.313476562 -1.080078125 308.313476562 -1.080078125 265.93359375 -1.8740234375 c 128,-1,17
 223.5546875 -2.66796875 223.5546875 -2.66796875 205.295898438 -2.4296875 c 128,-1,18
 187.036132812 -2.1923828125 187.036132812 -2.1923828125 161.982421875 0.921875 c 128,-1,19
 136.928710938 4.037109375 136.928710938 4.037109375 118.713867188 10.953125 c 0,20,21
 77.2978515625 26.677734375 77.2978515625 26.677734375 60.0849609375 67.4521484375 c 0,22,23
 45.4091796875 102.219726562 45.4091796875 102.219726562 45.4091796875 167.486328125 c 0,24,25
 45.4091796875 227.40625 45.4091796875 227.40625 88.4111328125 260.305664062 c 0,26,27
 123.782226562 287.368164062 123.782226562 287.368164062 177.25 287.436523438 c 0,28,-1
 305.841796875 287.57421875 l 1,29,-1
 305.875976562 350.73046875 l 2,30,31
 305.885742188 368.551757812 305.885742188 368.551757812 301.40625 384.055664062 c 128,-1,32
 296.927734375 399.559570312 296.927734375 399.559570312 293.388671875 405.440429688 c 128,-1,33
 289.849609375 411.322265625 289.849609375 411.322265625 288.078125 412.921875 c 0,34,35
 286.0234375 414.778320312 286.0234375 414.778320312 281.762695312 418.744140625 c 128,-1,36
 277.501953125 422.7109375 277.501953125 422.7109375 276.340820312 423.645507812 c 128,-1,37
 275.1796875 424.579101562 275.1796875 424.579101562 272.114257812 426.86328125 c 128,-1,38
 269.048828125 429.147460938 269.048828125 429.147460938 266.783203125 429.94921875 c 128,-1,39
 264.517578125 430.75 264.517578125 430.75 260.821289062 431.987304688 c 128,-1,40
 257.125976562 433.224609375 257.125976562 433.224609375 252.103515625 434.374023438 c 0,41,42
 218.623046875 442.036132812 218.623046875 442.036132812 115.669921875 439.834960938 c 0,43,44
 115.129882812 439.81640625 115.129882812 439.81640625 114.639648438 439.81640625 c 0,45,46
 102.3984375 439.81640625 102.3984375 439.81640625 93.7353515625 448.48046875 c 128,-1,47
 85.072265625 457.143554688 85.072265625 457.143554688 85.072265625 469.384765625 c 128,-1,48
 85.072265625 481.529296875 85.072265625 481.529296875 93.6669921875 490.192382812 c 128,-1,49
 102.26171875 498.85546875 102.26171875 498.85546875 114.40625 498.951171875 c 0,50,51
 144.404296875 499.59375 144.404296875 499.59375 166.697265625 499.555664062 c 0,0,1
305.80859375 228.444335938 m 1,52,-1
 177.325195312 228.30859375 l 2,53,54
 143.84375 228.265625 143.84375 228.265625 124.344726562 213.346679688 c 0,55,56
 104.544921875 198.198242188 104.544921875 198.198242188 104.544921875 167.490234375 c 0,57,58
 104.544921875 114.1875 104.544921875 114.1875 114.564453125 90.4521484375 c 0,59,60
 118.999023438 79.947265625 118.999023438 79.947265625 124.127929688 75.076171875 c 128,-1,61
 129.256835938 70.2041015625 129.256835938 70.2041015625 139.708007812 66.236328125 c 0,62,63
 162.799804688 57.46875 162.799804688 57.46875 285.975585938 57.9404296875 c 0,64,65
 298.953125 57.990234375 298.953125 57.990234375 305.71875 58.0107421875 c 1,66,-1
 305.80859375 228.444335938 l 1,52,-1
EndSplineSet
EndChar

StartChar: backslash
Encoding: 92 92 35
Width: 410
VWidth: 79
Flags: W
LayerCount: 2
Fore
SplineSet
40.96875 773.98828125 m 2,0,1
 58.787109375 773.497070312 58.787109375 773.497070312 66.9951171875 757.47265625 c 2,2,-1
 400.833984375 71.5537109375 l 1,3,-1
 400.966796875 71.279296875 l 2,4,5
 405 64.0400390625 405 64.0400390625 405 56.1884765625 c 0,6,7
 405 37.8642578125 405 37.8642578125 398.974609375 31.84375 c 128,-1,8
 392.944335938 25.8193359375 392.944335938 25.8193359375 374.618164062 25.8193359375 c 0,9,10
 355.97265625 25.8193359375 355.97265625 25.8193359375 347.506835938 42.5029296875 c 2,11,-1
 13.6640625 728.432617188 l 1,12,-1
 13.54296875 728.6796875 l 2,13,14
 9.599609375 735.84765625 9.599609375 735.84765625 9.599609375 743.637695312 c 0,15,16
 9.599609375 761.940429688 9.599609375 761.940429688 15.634765625 767.97265625 c 128,-1,17
 21.6708984375 774.006835938 21.6708984375 774.006835938 39.77734375 774.006835938 c 2,18,-1
 40.96875 773.98828125 l 2,0,1
EndSplineSet
EndChar

StartChar: b
Encoding: 98 98 36
Width: 425
VWidth: 0
Flags: W
LayerCount: 2
Fore
SplineSet
85.0869140625 701.877929688 m 1,0,1
 97.1494140625 701.697265625 97.1494140625 701.697265625 105.686523438 693.032226562 c 128,-1,2
 114.22265625 684.366210938 114.22265625 684.366210938 114.219726562 671.87890625 c 2,3,-1
 114.219726562 499.779296875 l 1,4,5
 200.22265625 500.369140625 200.22265625 500.369140625 219.616210938 498.848632812 c 0,6,7
 273.786132812 494.599609375 273.786132812 494.599609375 312.083007812 468.079101562 c 0,8,9
 355.999023438 437.66796875 355.999023438 437.66796875 368.838867188 352.834960938 c 0,10,11
 374.891601562 312.849609375 374.891601562 312.849609375 374.999023438 234.6015625 c 0,12,13
 375.091796875 174.779296875 375.091796875 174.779296875 362.83984375 120.545898438 c 0,14,15
 354.420898438 83.2783203125 354.420898438 83.2783203125 343.03125 59.6376953125 c 128,-1,16
 331.641601562 35.998046875 331.641601562 35.998046875 307.623046875 22.4970703125 c 0,17,18
 297.059570312 16.55859375 297.059570312 16.55859375 286.418945312 12.349609375 c 128,-1,19
 275.778320312 8.140625 275.778320312 8.140625 260.86328125 5.541015625 c 128,-1,20
 245.94921875 2.94140625 245.94921875 2.94140625 236.012695312 1.4365234375 c 128,-1,21
 226.076171875 -0.068359375 226.076171875 -0.068359375 204.278320312 -0.6318359375 c 128,-1,22
 182.48046875 -1.1943359375 182.48046875 -1.1943359375 171.557617188 -1.2958984375 c 128,-1,23
 160.633789062 -1.396484375 160.633789062 -1.396484375 130.26171875 -1.224609375 c 128,-1,24
 99.8896484375 -1.052734375 99.8896484375 -1.052734375 85.4453125 -1.052734375 c 0,25,26
 82.73046875 -1.0478515625 82.73046875 -1.0478515625 79.365234375 -0.23046875 c 128,-1,27
 75.9990234375 0.587890625 75.9990234375 0.587890625 72.83203125 1.990234375 c 128,-1,28
 69.6650390625 3.3935546875 69.6650390625 3.3935546875 67.509765625 5.0439453125 c 0,29,30
 66.9326171875 5.466796875 66.9326171875 5.466796875 66.38671875 5.91015625 c 0,31,32
 55.083984375 14.7734375 55.083984375 14.7734375 55.060546875 29.138671875 c 2,33,-1
 55.0576171875 672.297851562 l 0,34,35
 55.0576171875 684.54296875 55.0576171875 684.54296875 63.724609375 693.208984375 c 128,-1,36
 72.390625 701.875 72.390625 701.875 84.6357421875 701.875 c 2,37,-1
 85.0869140625 701.877929688 l 1,0,1
165.586914062 440.93359375 m 0,38,39
 163.127929688 440.918945312 163.127929688 440.918945312 144.115234375 440.793945312 c 128,-1,40
 125.103515625 440.668945312 125.103515625 440.668945312 114.220703125 440.612304688 c 1,41,-1
 114.220703125 58.201171875 l 1,42,43
 191.446289062 58.3203125 191.446289062 58.3203125 226.103515625 61.1552734375 c 128,-1,44
 260.76171875 63.990234375 260.76171875 63.990234375 278.653320312 74.0517578125 c 0,45,46
 280.708007812 75.20703125 280.708007812 75.20703125 285.283203125 82.5712890625 c 128,-1,47
 289.858398438 89.9345703125 289.858398438 89.9345703125 295.776367188 104.161132812 c 128,-1,48
 301.694335938 118.388671875 301.694335938 118.388671875 305.123046875 133.567382812 c 0,49,50
 315.926757812 181.3984375 315.926757812 181.3984375 315.838867188 234.50390625 c 0,51,52
 315.717773438 308.483398438 315.717773438 308.483398438 310.352539062 343.974609375 c 0,53,54
 301.333984375 403.551757812 301.333984375 403.551757812 278.396484375 419.436523438 c 0,55,56
 253.265625 436.840820312 253.265625 436.840820312 214.999023438 439.842773438 c 0,57,58
 198.533203125 441.133789062 198.533203125 441.133789062 165.586914062 440.93359375 c 0,38,39
EndSplineSet
EndChar

StartChar: c
Encoding: 99 99 37
Width: 396
VWidth: 0
Flags: W
LayerCount: 2
Fore
SplineSet
231.473632812 500.77734375 m 0,0,1
 245.384765625 500.924804688 245.384765625 500.924804688 277.921875 500.352539062 c 128,-1,2
 310.459960938 499.780273438 310.459960938 499.780273438 330.159179688 499.80859375 c 0,3,4
 343.21484375 499.8125 343.21484375 499.8125 352.107421875 490.919921875 c 128,-1,5
 361 482.02734375 361 482.02734375 361 469.461914062 c 128,-1,6
 361 456.897460938 361 456.897460938 352.107421875 448.004882812 c 128,-1,7
 343.21484375 439.112304688 343.21484375 439.112304688 330.649414062 439.112304688 c 0,8,9
 309.751953125 439.0859375 309.751953125 439.0859375 280.80859375 439.53515625 c 128,-1,10
 251.866210938 439.984375 251.866210938 439.984375 240.706054688 440.047851562 c 128,-1,11
 229.544921875 440.110351562 229.544921875 440.110351562 208.779296875 439.297851562 c 0,12,13
 169.415039062 436.7421875 169.415039062 436.7421875 144.118164062 419.224609375 c 0,14,15
 120.428710938 402.817382812 120.428710938 402.817382812 111.299804688 344.96875 c 0,16,17
 105.80078125 310.116210938 105.80078125 310.116210938 105.696289062 236.190429688 c 0,18,-1
 105.696289062 236.184570312 l 2,19,20
 105.594726562 174.783203125 105.594726562 174.783203125 113.544921875 134.83984375 c 0,21,22
 118.099609375 111.961914062 118.099609375 111.961914062 126.24609375 95.7490234375 c 128,-1,23
 134.393554688 79.537109375 134.393554688 79.537109375 141.674804688 75.54296875 c 0,24,25
 166.345703125 62.01171875 166.345703125 62.01171875 207.5625 59.693359375 c 0,26,27
 218.345703125 59.0869140625 218.345703125 59.0869140625 330.017578125 59.7890625 c 0,28,29
 330.30859375 59.7958984375 330.30859375 59.7958984375 330.616210938 59.7958984375 c 0,30,31
 343.181640625 59.7958984375 343.181640625 59.7958984375 352.07421875 50.9033203125 c 128,-1,32
 360.966796875 42.009765625 360.966796875 42.009765625 360.966796875 29.4453125 c 128,-1,33
 360.966796875 16.880859375 360.966796875 16.880859375 352.07421875 7.98828125 c 128,-1,34
 343.181640625 -0.904296875 343.181640625 -0.904296875 330.616210938 -0.904296875 c 0,35,36
 216.83984375 -1.6181640625 216.83984375 -1.6181640625 204.145507812 -0.904296875 c 0,37,38
 149.202148438 2.1875 149.202148438 2.1875 112.478515625 22.3291015625 c 0,39,40
 69.3388671875 45.9921875 69.3388671875 45.9921875 54.0107421875 122.993164062 c 0,41,42
 44.884765625 168.834960938 44.884765625 168.834960938 44.99609375 236.270507812 c 0,43,44
 45.1064453125 314.913085938 45.1064453125 314.913085938 51.3408203125 354.42578125 c 0,45,46
 64.517578125 437.922851562 64.517578125 437.922851562 109.557617188 469.115234375 c 0,47,48
 148.689453125 496.213867188 148.689453125 496.213867188 204.841796875 499.859375 c 0,49,50
 216.698242188 500.62890625 216.698242188 500.62890625 231.473632812 500.77734375 c 0,0,1
EndSplineSet
EndChar

StartChar: d
Encoding: 100 100 38
Width: 425
VWidth: 0
Flags: W
LayerCount: 2
Fore
SplineSet
339.97265625 701.877929688 m 1,0,-1
 340.423828125 701.875 l 2,1,2
 352.668945312 701.875 352.668945312 701.875 361.334960938 693.208984375 c 128,-1,3
 370.001953125 684.54296875 370.001953125 684.54296875 370.001953125 672.297851562 c 0,4,-1
 369.999023438 29.138671875 l 2,5,6
 369.975585938 14.7734375 369.975585938 14.7734375 358.672851562 5.91015625 c 0,7,8
 358.126953125 5.466796875 358.126953125 5.466796875 357.549804688 5.0439453125 c 0,9,10
 355.39453125 3.3935546875 355.39453125 3.3935546875 352.227539062 1.990234375 c 128,-1,11
 349.060546875 0.587890625 349.060546875 0.587890625 345.694335938 -0.23046875 c 128,-1,12
 342.329101562 -1.0478515625 342.329101562 -1.0478515625 339.614257812 -1.052734375 c 0,13,14
 325.169921875 -1.052734375 325.169921875 -1.052734375 294.797851562 -1.224609375 c 128,-1,15
 264.42578125 -1.396484375 264.42578125 -1.396484375 253.501953125 -1.2958984375 c 128,-1,16
 242.579101562 -1.1943359375 242.579101562 -1.1943359375 220.78125 -0.6318359375 c 128,-1,17
 198.983398438 -0.068359375 198.983398438 -0.068359375 189.046875 1.4365234375 c 128,-1,18
 179.110351562 2.94140625 179.110351562 2.94140625 164.196289062 5.541015625 c 128,-1,19
 149.28125 8.140625 149.28125 8.140625 138.640625 12.349609375 c 128,-1,20
 128 16.55859375 128 16.55859375 117.436523438 22.4970703125 c 0,21,22
 93.41796875 35.998046875 93.41796875 35.998046875 82.0283203125 59.6376953125 c 128,-1,23
 70.638671875 83.2783203125 70.638671875 83.2783203125 62.2197265625 120.545898438 c 0,24,25
 49.9677734375 174.779296875 49.9677734375 174.779296875 50.060546875 234.6015625 c 0,26,27
 50.16796875 312.849609375 50.16796875 312.849609375 56.220703125 352.834960938 c 0,28,29
 69.060546875 437.66796875 69.060546875 437.66796875 112.9765625 468.079101562 c 0,30,31
 151.2734375 494.599609375 151.2734375 494.599609375 205.443359375 498.848632812 c 0,32,33
 224.836914062 500.369140625 224.836914062 500.369140625 310.83984375 499.779296875 c 1,34,-1
 310.83984375 671.87890625 l 2,35,36
 310.836914062 684.366210938 310.836914062 684.366210938 319.373046875 693.032226562 c 128,-1,37
 327.91015625 701.697265625 327.91015625 701.697265625 339.97265625 701.877929688 c 1,0,-1
259.47265625 440.93359375 m 0,38,39
 226.526367188 441.133789062 226.526367188 441.133789062 210.060546875 439.842773438 c 0,40,41
 171.793945312 436.840820312 171.793945312 436.840820312 146.663085938 419.436523438 c 0,42,43
 123.725585938 403.551757812 123.725585938 403.551757812 114.70703125 343.974609375 c 0,44,45
 109.341796875 308.483398438 109.341796875 308.483398438 109.220703125 234.50390625 c 0,46,47
 109.1328125 181.3984375 109.1328125 181.3984375 119.936523438 133.567382812 c 0,48,49
 123.365234375 118.388671875 123.365234375 118.388671875 129.283203125 104.161132812 c 128,-1,50
 135.201171875 89.9345703125 135.201171875 89.9345703125 139.776367188 82.5712890625 c 128,-1,51
 144.3515625 75.20703125 144.3515625 75.20703125 146.40625 74.0517578125 c 0,52,53
 164.297851562 63.990234375 164.297851562 63.990234375 198.956054688 61.1552734375 c 128,-1,54
 233.61328125 58.3203125 233.61328125 58.3203125 310.838867188 58.201171875 c 1,55,-1
 310.838867188 440.612304688 l 1,56,57
 299.956054688 440.668945312 299.956054688 440.668945312 280.944335938 440.793945312 c 128,-1,58
 261.931640625 440.918945312 261.931640625 440.918945312 259.47265625 440.93359375 c 0,38,39
EndSplineSet
EndChar

StartChar: e
Encoding: 101 101 39
Width: 427
VWidth: 0
Flags: W
LayerCount: 2
Fore
SplineSet
217.559570312 500.852539062 m 0,0,1
 306.032226562 500.852539062 306.032226562 500.852539062 346.467773438 458.430664062 c 0,2,3
 382 421.153320312 382 421.153320312 382 347.97265625 c 0,4,5
 382 307.794921875 382 307.794921875 379.6171875 292.359375 c 0,6,7
 374.870117188 261.616210938 374.870117188 261.616210938 355.54296875 245.555664062 c 0,8,9
 337.213867188 230.322265625 337.213867188 230.322265625 313.9453125 226.796875 c 128,-1,10
 290.676757812 223.270507812 290.676757812 223.270507812 241.87109375 223.346679688 c 0,11,12
 232.64453125 223.361328125 232.64453125 223.361328125 227.793945312 223.35546875 c 2,13,-1
 104.8203125 223.213867188 l 1,14,15
 104.77734375 107.051757812 104.77734375 107.051757812 126.895507812 77.931640625 c 0,16,17
 134.352539062 68.111328125 134.352539062 68.111328125 140.081054688 65.1796875 c 128,-1,18
 145.80859375 62.248046875 145.80859375 62.248046875 165.73046875 59.529296875 c 0,19,20
 200.866210938 54.734375 200.866210938 54.734375 329.532226562 57.2958984375 c 0,21,22
 330.032226562 57.314453125 330.032226562 57.314453125 330.579101562 57.314453125 c 0,23,24
 342.770507812 57.314453125 342.770507812 57.314453125 351.399414062 48.6865234375 c 128,-1,25
 360.02734375 40.05859375 360.02734375 40.05859375 360.02734375 27.8671875 c 128,-1,26
 360.02734375 15.7275390625 360.02734375 15.7275390625 351.435546875 7.099609375 c 128,-1,27
 342.84375 -1.529296875 342.84375 -1.529296875 330.704101562 -1.580078125 c 0,28,29
 197.458984375 -4.2333984375 197.458984375 -4.2333984375 157.767578125 1.1826171875 c 0,30,31
 105.860351562 8.265625 105.860351562 8.265625 80.0009765625 42.3115234375 c 0,32,33
 66.556640625 60.01171875 66.556640625 60.01171875 58.3916015625 81.01171875 c 128,-1,34
 50.2265625 102.01171875 50.2265625 102.01171875 47.5654296875 127.818359375 c 128,-1,35
 44.9033203125 153.625976562 44.9033203125 153.625976562 44.3583984375 171.069335938 c 128,-1,36
 43.814453125 188.51171875 43.814453125 188.51171875 44.8818359375 219.229492188 c 128,-1,37
 45.9501953125 249.946289062 45.9501953125 249.946289062 45.97265625 260.635742188 c 0,38,39
 46.1123046875 325.272460938 46.1123046875 325.272460938 52.7744140625 366.971679688 c 128,-1,40
 59.4365234375 408.671875 59.4365234375 408.671875 78.3193359375 438.840820312 c 0,41,42
 117.131835938 500.852539062 117.131835938 500.852539062 217.559570312 500.852539062 c 0,0,1
217.559570312 441.963867188 m 0,43,44
 178.891601562 441.963867188 178.891601562 441.963867188 159.420898438 434.137695312 c 128,-1,45
 139.94921875 426.311523438 139.94921875 426.311523438 128.236328125 407.59765625 c 0,46,47
 107.52734375 374.508789062 107.52734375 374.508789062 105.20703125 282.102539062 c 1,48,-1
 227.724609375 282.244140625 l 2,49,50
 255.575195312 282.276367188 255.575195312 282.276367188 277.325195312 284.123046875 c 128,-1,51
 299.075195312 285.969726562 299.075195312 285.969726562 307.740234375 287.783203125 c 128,-1,52
 316.404296875 289.596679688 316.404296875 289.596679688 317.904296875 290.84375 c 0,53,54
 320.075195312 292.647460938 320.075195312 292.647460938 321.41796875 301.345703125 c 0,55,56
 323.110351562 312.303710938 323.110351562 312.303710938 323.110351562 347.97265625 c 0,57,58
 323.110351562 397.584960938 323.110351562 397.584960938 303.841796875 417.799804688 c 0,59,60
 280.80859375 441.963867188 280.80859375 441.963867188 217.559570312 441.963867188 c 0,43,44
EndSplineSet
EndChar

StartChar: f
Encoding: 102 102 40
Width: 307
VWidth: 0
Flags: W
HStem: -1.3252 21G<116.639 128.905> 440.336 59.252<24.2169 93.1485 152.4 244.71> 642.966 59.252<174.517 333.047>
VStem: 93.1485 59.249<7.62765 440.336 499.588 627.576>
LayerCount: 2
Fore
SplineSet
302.008789062 702.217773438 m 1,0,-1
 302.372070312 702.21875 l 2,1,2
 315 702 315 702 323.319335938 693.538085938 c 0,3,4
 332 685 332 685 332 672.591796875 c 128,-1,5
 332 660 332 660 323.319335938 651.64453125 c 0,6,7
 314.900390625 642.896484375 314.900390625 642.896484375 302.372070312 642.963867188 c 2,8,-1
 302.008789062 642.965820312 l 2,9,10
 243 643 243 643 215.88671875 640.400390625 c 0,11,12
 186 637 186 637 174.157226562 627.859375 c 0,13,14
 163 619 163 619 158.166992188 593.458984375 c 0,15,16
 152 564 152 564 152.400390625 499.587890625 c 1,17,-1
 223.672851562 499.587890625 l 2,18,19
 236 500 236 500 244.982421875 490.909179688 c 128,-1,20
 254 482 254 482 253.663085938 469.961914062 c 0,21,22
 254 458 254 458 244.982421875 449.014648438 c 128,-1,23
 236 440 236 440 224.036132812 440.333984375 c 0,24,-1
 152.397460938 440.3359375 l 1,25,-1
 152.397460938 28.7470703125 l 1,26,-1
 152.400390625 28.302734375 l 2,27,28
 152 16 152 16 143.719726562 7.35546875 c 0,29,30
 135 -1 135 -1 122.772460938 -1.3251953125 c 0,31,32
 111 -1 111 -1 101.826171875 7.35546875 c 0,33,34
 93.064453125 15.9375 93.064453125 15.9375 93.1455078125 28.302734375 c 2,35,-1
 93.1484375 28.7470703125 l 1,36,-1
 93.1484375 440.3359375 l 1,37,-1
 45.2548828125 440.3359375 l 1,38,-1
 44.892578125 440.333984375 l 2,39,40
 33 440 33 440 23.9453125 449.014648438 c 128,-1,41
 15 458 15 458 15.2646484375 469.961914062 c 0,42,43
 15 482 15 482 23.9453125 490.909179688 c 0,44,45
 32.6572265625 499.65625 32.6572265625 499.65625 44.892578125 499.58984375 c 2,46,-1
 45.2548828125 499.587890625 l 1,47,-1
 93.1513671875 499.587890625 l 1,48,49
 93 570 93 570 100.043945312 604.952148438 c 0,50,51
 109 651 109 651 136.704101562 673.771484375 c 0,52,53
 162 694 162 694 209.583984375 699.314453125 c 0,54,55
 237 702 237 702 302.008789062 702.217773438 c 1,0,-1
EndSplineSet
EndChar

StartChar: g
Encoding: 103 103 41
Width: 424
VWidth: 0
Flags: W
LayerCount: 2
Fore
SplineSet
247.604492188 500.833007812 m 0,0,1
 257.881835938 500.807617188 257.881835938 500.807617188 287.326171875 500.298828125 c 128,-1,2
 316.770507812 499.7890625 316.770507812 499.7890625 335.970703125 499.815429688 c 0,3,4
 336.888671875 499.905273438 336.888671875 499.905273438 337.860351562 499.939453125 c 0,5,6
 351.024414062 499.942382812 351.024414062 499.942382812 360.013671875 490.953125 c 128,-1,7
 369.002929688 481.963867188 369.002929688 481.963867188 369.002929688 469.26171875 c 0,8,-1
 369 2.8603515625 l 2,9,10
 369 -69.322265625 369 -69.322265625 355.666992188 -110.583984375 c 0,11,12
 340.416992188 -157.771484375 340.416992188 -157.771484375 303.822265625 -180.616210938 c 0,13,14
 295.869140625 -185.581054688 295.869140625 -185.581054688 287.725585938 -189.514648438 c 128,-1,15
 279.58203125 -193.448242188 279.58203125 -193.448242188 268.934570312 -196.254882812 c 128,-1,16
 258.286132812 -199.061523438 258.286132812 -199.061523438 251.206054688 -201.112304688 c 128,-1,17
 244.126953125 -203.163085938 244.126953125 -203.163085938 230.044921875 -204.413085938 c 128,-1,18
 215.962890625 -205.663085938 215.962890625 -205.663085938 209.7578125 -206.430664062 c 128,-1,19
 203.553710938 -207.198242188 203.553710938 -207.198242188 185.849609375 -207.490234375 c 128,-1,20
 168.145507812 -207.782226562 168.145507812 -207.782226562 162.627929688 -207.865234375 c 128,-1,21
 157.109375 -207.948242188 157.109375 -207.948242188 135.594726562 -207.880859375 c 128,-1,22
 114.081054688 -207.814453125 114.081054688 -207.814453125 108.509765625 -207.814453125 c 0,23,24
 95.427734375 -207.817382812 95.427734375 -207.817382812 86.4384765625 -198.828125 c 128,-1,25
 77.44921875 -189.838867188 77.44921875 -189.838867188 77.44921875 -177.13671875 c 128,-1,26
 77.44921875 -164.434570312 77.44921875 -164.434570312 86.4384765625 -155.4453125 c 128,-1,27
 95.427734375 -146.456054688 95.427734375 -146.456054688 108.12890625 -146.456054688 c 0,28,29
 242.677734375 -146.458007812 242.677734375 -146.458007812 271.333007812 -128.5703125 c 0,30,31
 288.922851562 -117.58984375 288.922851562 -117.58984375 297.283203125 -91.716796875 c 0,32,33
 307.110351562 -61.310546875 307.110351562 -61.310546875 307.61328125 -3.298828125 c 1,34,35
 232.451171875 -4.2890625 232.451171875 -4.2890625 209.551757812 -3.0009765625 c 0,36,37
 154.374023438 0.1025390625 154.374023438 0.1025390625 117.500976562 20.328125 c 0,38,39
 74.1806640625 44.0888671875 74.1806640625 44.0888671875 58.787109375 121.415039062 c 0,40,41
 49.6220703125 167.46484375 49.6220703125 167.46484375 49.7314453125 235.173828125 c 0,42,43
 49.8447265625 314.140625 49.8447265625 314.140625 56.10546875 353.82421875 c 0,44,45
 69.3369140625 437.6796875 69.3369140625 437.6796875 114.564453125 469 c 0,46,47
 153.86328125 496.2109375 153.86328125 496.2109375 210.248046875 499.872070312 c 0,48,49
 222.19921875 500.647460938 222.19921875 500.647460938 236.990234375 500.796875 c 0,50,51
 242.053710938 500.84765625 242.053710938 500.84765625 247.604492188 500.833007812 c 0,0,1
237.517578125 439.78515625 m 0,52,53
 223.9921875 439.685546875 223.9921875 439.685546875 214.197265625 439.049804688 c 0,54,55
 174.666992188 436.483398438 174.666992188 436.483398438 149.264648438 418.893554688 c 0,56,57
 125.475585938 402.418945312 125.475585938 402.418945312 116.309570312 344.325195312 c 0,58,59
 110.788085938 309.3359375 110.788085938 309.3359375 110.681640625 235.086914062 c 0,60,-1
 110.681640625 235.080078125 l 2,61,62
 110.58203125 173.4140625 110.58203125 173.4140625 118.563476562 133.311523438 c 0,63,64
 123.13671875 110.337890625 123.13671875 110.337890625 131.318359375 94.0576171875 c 128,-1,65
 139.499023438 77.7783203125 139.499023438 77.7783203125 146.810546875 73.767578125 c 0,66,67
 171.583007812 60.1796875 171.583007812 60.1796875 212.973632812 57.8515625 c 0,68,69
 232.36328125 56.7607421875 232.36328125 56.7607421875 307.645507812 57.673828125 c 1,70,-1
 307.645507812 439.01953125 l 1,71,72
 297.727539062 439.124023438 297.727539062 439.124023438 282.657226562 439.366210938 c 128,-1,73
 267.587890625 439.608398438 267.587890625 439.608398438 256.809570312 439.728515625 c 128,-1,74
 246.03125 439.848632812 246.03125 439.848632812 237.517578125 439.78515625 c 0,52,53
EndSplineSet
EndChar

StartChar: i
Encoding: 105 105 42
Width: 181
VWidth: 0
Flags: MW
LayerCount: 2
Fore
SplineSet
90.6669921875 699.844726562 m 128,-1,1
 109.944335938 699.853515625 109.944335938 699.853515625 116.452148438 693.341796875 c 128,-1,2
 122.965820312 686.825195312 122.965820312 686.825195312 122.973632812 667.580078125 c 128,-1,3
 122.965820312 648.286132812 122.965820312 648.286132812 116.450195312 641.782226562 c 128,-1,4
 109.9296875 635.2734375 109.9296875 635.2734375 90.6611328125 635.282226562 c 128,-1,5
 71.3837890625 635.282226562 71.3837890625 635.282226562 64.8818359375 641.79296875 c 128,-1,6
 58.3740234375 648.309570312 58.3740234375 648.309570312 58.3740234375 667.569335938 c 128,-1,7
 58.3740234375 686.837890625 58.3740234375 686.837890625 64.8837890625 693.337890625 c 128,-1,0
 71.4013671875 699.844726562 71.4013671875 699.844726562 90.6669921875 699.844726562 c 128,-1,1
90.265625 501.489257812 m 0,8,9
 103.255859375 501.4921875 103.255859375 501.4921875 112.127929688 492.620117188 c 128,-1,10
 121 483.748046875 121 483.748046875 121 471.211914062 c 0,11,-1
 120.997070312 29.794921875 l 1,12,-1
 121 29.3447265625 l 2,13,14
 121 16.8095703125 121 16.8095703125 112.127929688 7.9375 c 128,-1,15
 103.255859375 -0.9345703125 103.255859375 -0.9345703125 90.720703125 -0.9345703125 c 128,-1,16
 78.1845703125 -0.9345703125 78.1845703125 -0.9345703125 69.3125 7.9375 c 128,-1,17
 60.4404296875 16.8095703125 60.4404296875 16.8095703125 60.4404296875 29.3447265625 c 2,18,-1
 60.443359375 29.794921875 l 1,19,-1
 60.443359375 470.783203125 l 2,20,21
 60.4404296875 483.561523438 60.4404296875 483.561523438 69.1796875 492.431640625 c 128,-1,22
 77.91796875 501.302734375 77.91796875 501.302734375 90.265625 501.489257812 c 0,8,9
EndSplineSet
EndChar

StartChar: j
Encoding: 106 106 43
Width: 209
VWidth: 0
Flags: W
LayerCount: 2
Fore
SplineSet
119.640625 700.166992188 m 128,-1,1
 138.91796875 700.17578125 138.91796875 700.17578125 145.42578125 693.6640625 c 128,-1,2
 151.939453125 687.147460938 151.939453125 687.147460938 151.947265625 667.90234375 c 128,-1,3
 151.939453125 648.608398438 151.939453125 648.608398438 145.423828125 642.104492188 c 128,-1,4
 138.903320312 635.595703125 138.903320312 635.595703125 119.634765625 635.604492188 c 128,-1,5
 100.357421875 635.604492188 100.357421875 635.604492188 93.85546875 642.115234375 c 128,-1,6
 87.34765625 648.631835938 87.34765625 648.631835938 87.34765625 667.891601562 c 128,-1,7
 87.34765625 687.16015625 87.34765625 687.16015625 93.857421875 693.66015625 c 128,-1,0
 100.375 700.166992188 100.375 700.166992188 119.640625 700.166992188 c 128,-1,1
119.1875 500.14453125 m 1,8,-1
 119.64453125 500.146484375 l 2,9,10
 132.209960938 500.146484375 132.209960938 500.146484375 141.102539062 491.25390625 c 128,-1,11
 149.99609375 482.360351562 149.99609375 482.360351562 149.99609375 469.794921875 c 2,12,-1
 149.993164062 469.366210938 l 1,13,-1
 149.993164062 8.3994140625 l 2,14,15
 149.993164062 -64.658203125 149.993164062 -64.658203125 142.9296875 -100.380859375 c 0,16,17
 133.529296875 -147.912109375 133.529296875 -147.912109375 105.373046875 -170.87890625 c 0,18,19
 79.7216796875 -191.802734375 79.7216796875 -191.802734375 30.7158203125 -197.04296875 c 0,20,21
 2.92578125 -200.013671875 2.92578125 -200.013671875 -74.2080078125 -200.013671875 c 0,22,23
 -87.1845703125 -200.016601562 -87.1845703125 -200.016601562 -96.0771484375 -191.124023438 c 128,-1,24
 -104.969726562 -182.23046875 -104.969726562 -182.23046875 -104.969726562 -169.665039062 c 128,-1,25
 -104.969726562 -157.099609375 -104.969726562 -157.099609375 -96.0771484375 -148.20703125 c 128,-1,26
 -87.1845703125 -139.314453125 -87.1845703125 -139.314453125 -74.619140625 -139.314453125 c 0,27,28
 -0.310546875 -139.31640625 -0.310546875 -139.31640625 24.26171875 -136.688476562 c 0,29,30
 55.3369140625 -133.366210938 55.3369140625 -133.366210938 67.009765625 -123.845703125 c 0,31,32
 78.228515625 -114.694335938 78.228515625 -114.694335938 83.38671875 -88.6064453125 c 0,33,34
 89.298828125 -58.7138671875 89.298828125 -58.7138671875 89.298828125 8.4013671875 c 2,35,-1
 89.298828125 469.368164062 l 1,36,-1
 89.2958984375 469.796875 l 2,37,38
 89.2958984375 482.172851562 89.2958984375 482.172851562 98.0537109375 491.065429688 c 128,-1,39
 106.8125 499.95703125 106.8125 499.95703125 119.1875 500.14453125 c 1,8,-1
EndSplineSet
EndChar

StartChar: p
Encoding: 112 112 44
Width: 429
Flags: W
LayerCount: 2
Fore
SplineSet
162.681640625 498.888671875 m 0,0,1
 219.206054688 498.848632812 219.206054688 498.848632812 251.731445312 494.262695312 c 128,-1,2
 284.255859375 489.67578125 284.255859375 489.67578125 310.791992188 474.759765625 c 0,3,4
 335.107421875 461.091796875 335.107421875 461.091796875 346.6328125 437.170898438 c 128,-1,5
 358.157226562 413.249023438 358.157226562 413.249023438 366.680664062 375.51953125 c 0,6,7
 379.09765625 320.545898438 379.09765625 320.545898438 378.999023438 260.03125 c 0,8,9
 378.888671875 180.782226562 378.888671875 180.782226562 372.766601562 140.331054688 c 0,10,11
 359.767578125 54.458984375 359.767578125 54.458984375 315.30078125 23.6640625 c 0,12,13
 276.549804688 -3.1708984375 276.549804688 -3.1708984375 221.696289062 -7.47265625 c 0,14,15
 203.91796875 -8.8662109375 203.91796875 -8.8662109375 114.984375 -8.3271484375 c 1,16,-1
 114.984375 -174.171875 l 2,17,18
 115.157226562 -186.6953125 115.157226562 -186.6953125 106.362304688 -195.612304688 c 128,-1,19
 97.5673828125 -204.530273438 97.5673828125 -204.530273438 85.04296875 -204.530273438 c 128,-1,20
 72.517578125 -204.530273438 72.517578125 -204.530273438 63.72265625 -195.612304688 c 128,-1,21
 54.927734375 -186.6953125 54.927734375 -186.6953125 55.1015625 -174.171875 c 2,22,-1
 55.1015625 468.05078125 l 2,23,24
 54.8740234375 485.711914062 54.8740234375 485.711914062 69.234375 493.782226562 c 0,25,26
 77.9765625 498.696289062 77.9765625 498.696289062 85.8505859375 498.618164062 c 0,27,28
 100.767578125 498.618164062 100.767578125 498.618164062 126.290039062 498.756835938 c 128,-1,29
 151.811523438 498.895507812 151.811523438 498.895507812 162.681640625 498.888671875 c 0,0,1
114.982421875 438.704101562 m 1,30,-1
 114.983398438 51.57421875 l 1,31,32
 203.250976562 51.15625 203.250976562 51.15625 217.013671875 52.2353515625 c 0,33,34
 255.751953125 55.2724609375 255.751953125 55.2724609375 281.20703125 72.900390625 c 0,35,36
 304.423828125 88.978515625 304.423828125 88.978515625 313.5546875 149.294921875 c 0,37,38
 319.006835938 185.3125 319.006835938 185.3125 319.111328125 260.122070312 c 0,39,-1
 319.111328125 260.12890625 l 2,40,41
 319.198242188 313.9296875 319.198242188 313.9296875 308.266601562 362.327148438 c 0,42,43
 304.794921875 377.693359375 304.794921875 377.693359375 298.797851562 392.091796875 c 128,-1,44
 292.801757812 406.490234375 292.801757812 406.490234375 288.166015625 413.938476562 c 128,-1,45
 283.53125 421.387695312 283.53125 421.387695312 281.44921875 422.557617188 c 0,46,47
 263.143554688 432.846679688 263.143554688 432.846679688 228.493164062 435.720703125 c 128,-1,48
 193.841796875 438.595703125 193.841796875 438.595703125 114.982421875 438.704101562 c 1,30,-1
EndSplineSet
EndChar

StartChar: q
Encoding: 113 113 45
Width: 428
Flags: W
LayerCount: 2
Fore
SplineSet
266.416015625 500.444335938 m 0,0,1
 277.2578125 500.463867188 277.2578125 500.463867188 302.780273438 500.323242188 c 128,-1,2
 328.302734375 500.18359375 328.302734375 500.18359375 343.245117188 500.18359375 c 0,3,4
 353.719726562 500.319335938 353.719726562 500.319335938 361.780273438 494.491210938 c 0,5,6
 374.19921875 485.51171875 374.19921875 485.51171875 373.994140625 469.618164062 c 2,7,-1
 373.994140625 -172.603515625 l 2,8,9
 374.16796875 -185.126953125 374.16796875 -185.126953125 365.373046875 -194.044921875 c 128,-1,10
 356.578125 -202.961914062 356.578125 -202.961914062 344.0546875 -202.961914062 c 128,-1,11
 331.529296875 -202.961914062 331.529296875 -202.961914062 322.735351562 -194.044921875 c 128,-1,12
 313.940429688 -185.126953125 313.940429688 -185.126953125 314.11328125 -172.603515625 c 2,13,-1
 314.11328125 -6.759765625 l 1,14,15
 225.19140625 -7.296875 225.19140625 -7.296875 207.403320312 -5.90234375 c 0,16,17
 152.541992188 -1.599609375 152.541992188 -1.599609375 113.796875 25.232421875 c 0,18,19
 69.3291015625 56.0263671875 69.3291015625 56.0263671875 56.3310546875 141.8984375 c 0,20,21
 50.2099609375 182.330078125 50.2099609375 182.330078125 50.1005859375 261.598632812 c 0,22,23
 50.0009765625 322.110351562 50.0009765625 322.110351562 62.4169921875 377.077148438 c 0,24,25
 70.939453125 414.807617188 70.939453125 414.807617188 82.46484375 438.729492188 c 128,-1,26
 93.9892578125 462.651367188 93.9892578125 462.651367188 118.3046875 476.319335938 c 0,27,28
 144.842773438 491.235351562 144.842773438 491.235351562 177.3671875 495.822265625 c 128,-1,29
 209.892578125 500.408203125 209.892578125 500.408203125 266.416015625 500.444335938 c 0,0,1
314.114257812 440.259765625 m 1,30,31
 235.25390625 440.147460938 235.25390625 440.147460938 200.604492188 437.2734375 c 128,-1,32
 165.954101562 434.3984375 165.954101562 434.3984375 147.650390625 424.110351562 c 0,33,34
 145.568359375 422.939453125 145.568359375 422.939453125 140.93359375 415.490234375 c 128,-1,35
 136.297851562 408.041015625 136.297851562 408.041015625 130.301757812 393.641601562 c 128,-1,36
 124.3046875 379.2421875 124.3046875 379.2421875 120.833984375 363.876953125 c 0,37,38
 109.899414062 315.466796875 109.899414062 315.466796875 109.986328125 261.680664062 c 0,39,-1
 109.986328125 261.671875 l 2,40,41
 110.090820312 186.87109375 110.090820312 186.87109375 115.543945312 150.846679688 c 0,42,43
 124.673828125 90.53125 124.673828125 90.53125 147.891601562 74.4521484375 c 0,44,45
 173.34765625 56.8232421875 173.34765625 56.8232421875 212.084960938 53.78515625 c 0,46,47
 225.834960938 52.70703125 225.834960938 52.70703125 314.114257812 53.126953125 c 1,48,-1
 314.114257812 440.259765625 l 1,30,31
EndSplineSet
EndChar

StartChar: r
Encoding: 114 114 46
Width: 253
Flags: W
LayerCount: 2
Fore
SplineSet
207.163085938 501.900390625 m 1,0,-1
 207.52734375 501.90234375 l 2,1,2
 220.001953125 502 220.001953125 502 229.071289062 492.973632812 c 128,-1,3
 238.001953125 484 238.001953125 484 238 471.428710938 c 128,-1,4
 238.001953125 459 238.001953125 459 229.071289062 449.883789062 c 0,5,6
 219.85546875 440.857421875 219.85546875 440.857421875 207.52734375 440.955078125 c 2,7,-1
 207.159179688 440.958007812 l 2,8,9
 145.001953125 441 145.001953125 441 127.224609375 421.897460938 c 0,10,11
 115.946289062 408.935546875 115.946289062 408.935546875 115.946289062 357.314453125 c 2,12,-1
 115.946289062 22.1806640625 l 2,13,14
 116.001953125 9 116.001953125 9 107.020507812 0.2685546875 c 0,15,16
 98.001953125 -9 98.001953125 -9 85.4755859375 -8.66015625 c 0,17,18
 73.001953125 -9 73.001953125 -9 63.9306640625 0.2685546875 c 0,19,20
 55.001953125 9 55.001953125 9 55.001953125 21.8134765625 c 0,21,-1
 55.0048828125 357.314453125 l 2,22,23
 55.001953125 382 55.001953125 382 55.9697265625 396.279296875 c 0,24,25
 57.001953125 410 57.001953125 410 63.2236328125 429.557617188 c 0,26,27
 70.001953125 449 70.001953125 449 81.9970703125 462.747070312 c 0,28,29
 117.001953125 502 117.001953125 502 207.163085938 501.900390625 c 1,0,-1
EndSplineSet
EndChar

StartChar: s
Encoding: 115 115 47
Width: 361
VWidth: 0
Flags: W
LayerCount: 2
Fore
SplineSet
206.287109375 499.698242188 m 2,0,-1
 206.295898438 499.698242188 l 1,1,-1
 291.956054688 499.6484375 l 1,2,-1
 292.385742188 499.651367188 l 2,3,4
 304.766601562 499.651367188 304.766601562 499.651367188 313.528320312 490.889648438 c 128,-1,5
 322.291015625 482.126953125 322.291015625 482.126953125 322.291015625 469.747070312 c 128,-1,6
 322.291015625 457.366210938 322.291015625 457.366210938 313.528320312 448.604492188 c 128,-1,7
 304.766601562 439.842773438 304.766601562 439.842773438 292.385742188 439.842773438 c 2,8,-1
 291.920898438 439.845703125 l 1,9,-1
 206.270507812 439.895507812 l 2,10,11
 146.873046875 439.895507812 146.873046875 439.895507812 130.178710938 434.275390625 c 0,12,13
 115.171875 429.223632812 115.171875 429.223632812 107.021484375 403.23828125 c 0,14,15
 99.8837890625 380.487304688 99.8837890625 380.487304688 99.802734375 348.504882812 c 2,16,-1
 99.802734375 348.498046875 l 2,17,18
 99.7314453125 324.735351562 99.7314453125 324.735351562 113.403320312 307.6796875 c 0,19,20
 133.752929688 282.293945312 133.752929688 282.293945312 183.106445312 279.02734375 c 0,21,22
 258.71875 274.025390625 258.71875 274.025390625 295.526367188 228.104492188 c 0,23,24
 322.400390625 194.576171875 322.400390625 194.576171875 322.266601562 149.71484375 c 0,25,26
 322.16015625 108.65625 322.16015625 108.65625 312.305664062 77.2431640625 c 0,27,28
 295.036132812 22.19921875 295.036132812 22.19921875 251.170898438 7.4296875 c 0,29,30
 225.185546875 -1.318359375 225.185546875 -1.318359375 155.977539062 -1.318359375 c 0,31,-1
 70.30859375 -1.2685546875 l 1,32,-1
 69.9580078125 -1.2705078125 l 2,33,34
 57.5771484375 -1.2705078125 57.5771484375 -1.2705078125 48.8154296875 7.4912109375 c 128,-1,35
 40.0537109375 16.25390625 40.0537109375 16.25390625 40.0537109375 28.634765625 c 128,-1,36
 40.0537109375 41.0146484375 40.0537109375 41.0146484375 48.8154296875 49.77734375 c 128,-1,37
 57.5771484375 58.5390625 57.5771484375 58.5390625 69.9580078125 58.5390625 c 2,38,-1
 70.34375 58.5361328125 l 1,39,-1
 155.994140625 58.486328125 l 2,40,41
 215.393554688 58.4873046875 215.393554688 58.4873046875 232.087890625 64.107421875 c 0,42,43
 247.091796875 69.158203125 247.091796875 69.158203125 255.244140625 95.142578125 c 0,44,45
 262.379882812 117.89453125 262.379882812 117.89453125 262.461914062 149.875976562 c 0,46,-1
 262.461914062 149.891601562 l 2,47,48
 262.532226562 173.645507812 262.532226562 173.645507812 248.861328125 190.700195312 c 0,49,50
 228.509765625 216.08984375 228.509765625 216.08984375 179.158203125 219.35546875 c 0,51,52
 103.546875 224.357421875 103.546875 224.357421875 66.7412109375 270.27734375 c 0,53,54
 39.8681640625 303.801757812 39.8681640625 303.801757812 40.0009765625 348.65625 c 0,55,-1
 40.0009765625 348.671875 l 2,56,57
 40.1044921875 389.725585938 40.1044921875 389.725585938 49.958984375 421.13671875 c 0,58,59
 67.2265625 476.180664062 67.2265625 476.180664062 111.096679688 490.950195312 c 0,60,61
 137.081054688 499.698242188 137.081054688 499.698242188 206.287109375 499.698242188 c 2,0,-1
EndSplineSet
EndChar

StartChar: t
Encoding: 116 116 48
Width: 310
VWidth: 0
Flags: W
HStem: -0.946289 59.4619<196.855 295.756> 440.192 59.8086<44.5126 114.564 174.383 268.015>
VStem: 114.564 59.8184<72.39 440.204 499.989 697.636>
LayerCount: 2
Fore
SplineSet
144.474609375 705.77734375 m 128,-1,1
 156.625 705.77734375 156.625 705.77734375 165.50390625 697.883789062 c 128,-1,2
 174.383789062 689.990234375 174.383789062 689.990234375 174.383789062 675.866210938 c 2,3,-1
 174.383789062 499.989257812 l 1,4,-1
 246.299804688 499.989257812 l 2,5,6
 246.701171875 500.000976562 246.701171875 500.000976562 247.1484375 500.000976562 c 0,7,8
 259.528320312 500.000976562 259.528320312 500.000976562 268.291015625 491.239257812 c 128,-1,9
 277.052734375 482.4765625 277.052734375 482.4765625 277.052734375 470.096679688 c 128,-1,10
 277.052734375 457.715820312 277.052734375 457.715820312 268.291015625 448.954101562 c 128,-1,11
 259.528320312 440.192382812 259.528320312 440.192382812 247.1484375 440.192382812 c 0,12,13
 246.701171875 440.192382812 246.701171875 440.192382812 246.299804688 440.204101562 c 2,14,-1
 174.383789062 440.204101562 l 1,15,-1
 174.383789062 201.475585938 l 2,16,17
 174.383789062 135.265625 174.383789062 135.265625 180.188476562 105.909179688 c 0,18,19
 185.272460938 80.1982421875 185.272460938 80.1982421875 196.345703125 71.16796875 c 0,20,21
 212.59765625 57.91015625 212.59765625 57.91015625 238.450195312 58.515625 c 2,22,-1
 268.673828125 59.22265625 l 2,23,24
 288.02734375 59.67578125 288.02734375 59.67578125 296.008789062 44.802734375 c 128,-1,25
 303.990234375 29.9287109375 303.990234375 29.9287109375 296.010742188 14.78515625 c 128,-1,26
 288.03125 -0.359375 288.03125 -0.359375 268.673828125 -0.5625 c 2,27,-1
 232.091796875 -0.9462890625 l 2,28,29
 190.66796875 -1.3798828125 190.66796875 -1.3798828125 158.51953125 24.84375 c 0,30,31
 130.80078125 47.4541015625 130.80078125 47.4541015625 121.538085938 94.296875 c 0,32,33
 114.565429688 129.559570312 114.565429688 129.559570312 114.565429688 201.475585938 c 2,34,-1
 114.565429688 440.204101562 l 1,35,-1
 66.23046875 440.204101562 l 2,36,37
 65.8291015625 440.192382812 65.8291015625 440.192382812 65.3818359375 440.192382812 c 0,38,39
 53.001953125 440.192382812 53.001953125 440.192382812 44.2392578125 448.954101562 c 128,-1,40
 35.4775390625 457.715820312 35.4775390625 457.715820312 35.4775390625 470.096679688 c 128,-1,41
 35.4775390625 482.4765625 35.4775390625 482.4765625 44.2392578125 491.239257812 c 128,-1,42
 53.001953125 500.000976562 53.001953125 500.000976562 65.3818359375 500.000976562 c 0,43,44
 65.8291015625 500.000976562 65.8291015625 500.000976562 66.23046875 499.989257812 c 2,45,-1
 114.565429688 499.989257812 l 1,46,-1
 114.565429688 675.866210938 l 2,47,48
 114.565429688 689.990234375 114.565429688 689.990234375 123.4453125 697.883789062 c 128,-1,0
 132.32421875 705.77734375 132.32421875 705.77734375 144.474609375 705.77734375 c 128,-1,1
EndSplineSet
EndChar

StartChar: u
Encoding: 117 117 49
Width: 430
VWidth: 0
Flags: W
LayerCount: 2
Fore
SplineSet
84.41796875 502.107421875 m 1,0,-1
 84.8662109375 502.110351562 l 2,1,2
 97.24609375 502.110351562 97.24609375 502.110351562 106.008789062 493.348632812 c 128,-1,3
 114.770507812 484.5859375 114.770507812 484.5859375 114.770507812 472.206054688 c 0,4,-1
 114.767578125 152.551757812 l 2,5,6
 115.01953125 106.645507812 115.01953125 106.645507812 135.76171875 84.041015625 c 0,7,8
 159.499023438 58.1708984375 159.499023438 58.1708984375 214.969726562 58.1708984375 c 128,-1,9
 270.618164062 58.1708984375 270.618164062 58.1708984375 294.756835938 84.353515625 c 0,10,11
 315.829101562 107.208007812 315.829101562 107.208007812 315.173828125 151.951171875 c 0,12,-1
 315.170898438 471.784179688 l 2,13,14
 315.16796875 484.610351562 315.16796875 484.610351562 323.9296875 493.373046875 c 128,-1,15
 332.692382812 502.134765625 332.692382812 502.134765625 345.072265625 502.134765625 c 128,-1,16
 357.453125 502.134765625 357.453125 502.134765625 366.21484375 493.373046875 c 128,-1,17
 374.977539062 484.610351562 374.977539062 484.610351562 374.977539062 472.23046875 c 0,18,-1
 374.973632812 152.389648438 l 1,19,-1
 374.973632812 152.828125 l 2,20,21
 375.98046875 84.2236328125 375.98046875 84.2236328125 338.725585938 43.8154296875 c 0,22,23
 296.826171875 -1.6318359375 296.826171875 -1.6318359375 214.971679688 -1.6318359375 c 128,-1,24
 133.211914062 -1.6318359375 133.211914062 -1.6318359375 91.69921875 43.6064453125 c 0,25,26
 55.345703125 83.2236328125 55.345703125 83.2236328125 54.9677734375 152.224609375 c 0,27,-1
 54.9677734375 471.784179688 l 2,28,29
 54.9638671875 484.401367188 54.9638671875 484.401367188 63.59375 493.162109375 c 128,-1,30
 72.224609375 501.923828125 72.224609375 501.923828125 84.41796875 502.107421875 c 1,0,-1
EndSplineSet
EndChar

StartChar: v
Encoding: 118 118 50
Width: 374
VWidth: 0
Flags: W
LayerCount: 2
Fore
SplineSet
320.096679688 499.373046875 m 4,0,1
 332.0625 498.82421875 332.0625 498.82421875 340.53125 489.958984375 c 132,-1,2
 349 481.094726562 349 481.094726562 349 469.116210938 c 4,3,4
 349 464.92578125 349 464.92578125 347.862304688 460.891601562 c 6,5,-1
 230.366210938 20.6923828125 l 6,6,7
 227.881835938 11.3876953125 227.881835938 11.3876953125 219.30859375 4.8017578125 c 132,-1,8
 210.734375 -1.783203125 210.734375 -1.783203125 201.104492188 -1.7841796875 c 6,9,-1
 160.637695312 -1.7841796875 l 6,10,11
 150.751953125 -1.783203125 150.751953125 -1.783203125 142.122070312 5.0205078125 c 132,-1,12
 133.493164062 11.8251953125 133.493164062 11.8251953125 131.186523438 21.4384765625 c 6,13,-1
 25.6005859375 461.638671875 l 6,14,15
 24.671875 465.30078125 24.671875 465.30078125 24.671875 469.080078125 c 4,16,17
 24.671875 481.620117188 24.671875 481.620117188 33.546875 490.494140625 c 132,-1,18
 42.4208984375 499.369140625 42.4208984375 499.369140625 54.9609375 499.369140625 c 4,19,20
 64.9794921875 499.369140625 64.9794921875 499.369140625 73.6357421875 492.453125 c 132,-1,21
 82.291015625 485.538085938 82.291015625 485.538085938 84.5029296875 475.765625 c 6,22,-1
 181.358398438 71.9599609375 l 5,23,-1
 289.33984375 476.512695312 l 6,24,25
 291.725585938 485.990234375 291.725585938 485.990234375 300.33203125 492.697265625 c 132,-1,26
 308.9375 499.404296875 308.9375 499.404296875 318.7109375 499.404296875 c 4,27,28
 319.41796875 499.404296875 319.41796875 499.404296875 320.096679688 499.373046875 c 4,0,1
EndSplineSet
EndChar

StartChar: w
Encoding: 119 119 51
Width: 689
VWidth: 0
Flags: W
LayerCount: 2
Fore
SplineSet
84.38671875 499.987304688 m 0,0,1
 96.9873046875 500.177734375 96.9873046875 500.177734375 105.903320312 491.270507812 c 128,-1,2
 114.819335938 482.36328125 114.819335938 482.36328125 114.640625 469.76171875 c 2,3,-1
 114.640625 151.51953125 l 2,4,5
 114.907226562 105.806640625 114.907226562 105.806640625 135.565429688 83.2939453125 c 0,6,7
 159.223632812 57.5107421875 159.223632812 57.5107421875 214.512695312 57.5107421875 c 128,-1,8
 269.974609375 57.5107421875 269.974609375 57.5107421875 294.03515625 83.6064453125 c 0,9,10
 315.040039062 106.390625 315.040039062 106.390625 314.38671875 150.98046875 c 0,11,-1
 314.3828125 378.712890625 l 2,12,13
 314.217773438 391.173828125 314.217773438 391.173828125 322.970703125 400.04296875 c 128,-1,14
 331.724609375 408.912109375 331.724609375 408.912109375 344.186523438 408.912109375 c 128,-1,15
 356.647460938 408.912109375 356.647460938 408.912109375 365.400390625 400.04296875 c 128,-1,16
 374.154296875 391.173828125 374.154296875 391.173828125 373.990234375 378.712890625 c 2,17,-1
 374.024414062 151.44921875 l 2,18,19
 374.271484375 106.493164062 374.271484375 106.493164062 395.55859375 83.2939453125 c 0,20,21
 419.21875 57.5107421875 419.21875 57.5107421875 474.505859375 57.5107421875 c 128,-1,22
 529.96875 57.5107421875 529.96875 57.5107421875 554.029296875 83.6064453125 c 0,23,24
 575.034179688 106.390625 575.034179688 106.390625 574.380859375 150.98046875 c 0,25,-1
 574.377929688 469.76171875 l 2,26,27
 574.202148438 482.098632812 574.202148438 482.098632812 582.797851562 490.94921875 c 128,-1,28
 591.393554688 499.80078125 591.393554688 499.80078125 603.731445312 499.987304688 c 0,29,30
 616.33203125 500.176757812 616.33203125 500.176757812 625.247070312 491.26953125 c 128,-1,31
 634.162109375 482.362304688 634.162109375 482.362304688 633.983398438 469.76171875 c 2,32,-1
 633.983398438 151.516601562 l 1,33,-1
 633.983398438 151.418945312 l 2,34,35
 634.853515625 83.3369140625 634.853515625 83.3369140625 597.852539062 43.203125 c 0,36,37
 556.090820312 -2.09375 556.090820312 -2.09375 474.505859375 -2.09375 c 128,-1,38
 393.01171875 -2.09375 393.01171875 -2.09375 351.639648438 42.9951171875 c 0,39,40
 348.001953125 46.9599609375 348.001953125 46.9599609375 344.681640625 51.291015625 c 1,41,42
 341.396484375 47.0419921875 341.396484375 47.0419921875 337.859375 43.203125 c 0,43,44
 296.09765625 -2.09375 296.09765625 -2.09375 214.512695312 -2.09375 c 128,-1,45
 133.018554688 -2.09375 133.018554688 -2.09375 91.646484375 42.9951171875 c 0,46,47
 72.4990234375 63.8603515625 72.4990234375 63.8603515625 63.8544921875 91.5087890625 c 128,-1,48
 55.2099609375 119.157226562 55.2099609375 119.157226562 55.033203125 151.25390625 c 0,49,-1
 55.033203125 469.76171875 l 2,50,51
 54.857421875 482.098632812 54.857421875 482.098632812 63.453125 490.94921875 c 128,-1,52
 72.048828125 499.80078125 72.048828125 499.80078125 84.38671875 499.987304688 c 0,0,1
EndSplineSet
EndChar

StartChar: x
Encoding: 120 120 52
Width: 415
VWidth: 0
Flags: W
LayerCount: 2
Fore
SplineSet
73.84375 499.844726562 m 0,0,1
 74.5830078125 499.8828125 74.5830078125 499.8828125 75.3564453125 499.8828125 c 128,-1,2
 76.1298828125 499.8828125 76.1298828125 499.8828125 76.869140625 499.844726562 c 0,3,4
 93.4248046875 499.094726562 93.4248046875 499.094726562 101.731445312 484.75 c 2,5,-1
 207.591796875 307.887695312 l 1,6,-1
 313.453125 484.75 l 2,7,8
 322.215820312 499.854492188 322.215820312 499.854492188 339.676757812 499.854492188 c 0,9,10
 340.078125 499.854492188 340.078125 499.854492188 340.419921875 499.844726562 c 0,11,12
 352.666992188 499.547851562 352.666992188 499.547851562 361.333984375 490.66796875 c 128,-1,13
 370.001953125 481.788085938 370.001953125 481.788085938 370.001953125 469.537109375 c 0,14,15
 370.001953125 460.930664062 370.001953125 460.930664062 365.479492188 453.607421875 c 2,16,-1
 242.912109375 248.856445312 l 1,17,-1
 365.479492188 44.138671875 l 2,18,19
 369.784179688 36.9482421875 369.784179688 36.9482421875 369.784179688 28.5673828125 c 0,20,21
 369.784179688 16.015625 369.784179688 16.015625 360.901367188 7.1328125 c 128,-1,22
 352.018554688 -1.75 352.018554688 -1.75 339.466796875 -1.75 c 0,23,24
 322.28125 -1.75 322.28125 -1.75 313.453125 12.99609375 c 2,25,-1
 207.591796875 189.858398438 l 1,26,-1
 101.731445312 12.99609375 l 2,27,28
 92.9013671875 -1.7373046875 92.9013671875 -1.7373046875 75.7255859375 -1.7373046875 c 0,29,30
 63.173828125 -1.7373046875 63.173828125 -1.7373046875 54.291015625 7.146484375 c 128,-1,31
 45.408203125 16.029296875 45.408203125 16.029296875 45.408203125 28.5810546875 c 0,32,33
 45.408203125 36.955078125 45.408203125 36.955078125 49.705078125 44.138671875 c 2,34,-1
 172.272460938 248.856445312 l 1,35,-1
 49.705078125 453.607421875 l 2,36,37
 45.16015625 460.942382812 45.16015625 460.942382812 45.16015625 469.572265625 c 0,38,39
 45.16015625 481.46484375 45.16015625 481.46484375 53.564453125 490.333984375 c 128,-1,40
 61.96875 499.204101562 61.96875 499.204101562 73.84375 499.844726562 c 0,0,1
EndSplineSet
EndChar

StartChar: y
Encoding: 121 121 53
Width: 416
VWidth: 0
Flags: W
LayerCount: 2
Fore
SplineSet
84.3203125 501.171875 m 0,0,-1
 84.7685546875 501.174804688 l 2,1,2
 97.1083984375 501.174804688 97.1083984375 501.174804688 105.841796875 492.44140625 c 128,-1,3
 114.575195312 483.708984375 114.575195312 483.708984375 114.575195312 471.369140625 c 0,4,-1
 114.561523438 198.828125 l 2,5,6
 113.888671875 103.538085938 113.888671875 103.538085938 134.426757812 80.919921875 c 0,7,8
 155.221679688 58.0185546875 155.221679688 58.0185546875 245.047851562 58.0185546875 c 2,9,-1
 301.987304688 58.1337890625 l 1,10,-1
 301.987304688 470.3125 l 1,11,-1
 301.984375 470.737304688 l 2,12,13
 301.984375 482.973632812 301.984375 482.973632812 310.643554688 491.763671875 c 128,-1,14
 319.302734375 500.5546875 319.302734375 500.5546875 331.538085938 500.73828125 c 0,15,16
 344.412109375 500.741210938 344.412109375 500.741210938 353.203125 491.950195312 c 128,-1,17
 361.995117188 483.158203125 361.995117188 483.158203125 361.995117188 470.737304688 c 2,18,-1
 361.9921875 470.3125 l 1,19,-1
 361.9921875 14.61328125 l 2,20,21
 361.9921875 -57.60546875 361.9921875 -57.60546875 355.008789062 -92.9228515625 c 0,22,23
 345.715820312 -139.911132812 345.715820312 -139.911132812 317.879882812 -162.6171875 c 0,24,25
 292.51953125 -183.301757812 292.51953125 -183.301757812 244.075195312 -188.48046875 c 0,26,27
 216.614257812 -191.416992188 216.614257812 -191.416992188 140.3515625 -191.416992188 c 2,28,-1
 139.90625 -191.419921875 l 2,29,30
 127.484375 -191.419921875 127.484375 -191.419921875 118.693359375 -182.62890625 c 128,-1,31
 109.90234375 -173.837890625 109.90234375 -173.837890625 109.90234375 -161.416015625 c 128,-1,32
 109.90234375 -148.994140625 109.90234375 -148.994140625 118.693359375 -140.202148438 c 128,-1,33
 127.484375 -131.411132812 127.484375 -131.411132812 139.90625 -131.411132812 c 2,34,-1
 140.3515625 -131.415039062 l 2,35,36
 213.399414062 -131.415039062 213.399414062 -131.415039062 237.6953125 -128.817382812 c 0,37,38
 268.411132812 -125.533203125 268.411132812 -125.533203125 279.954101562 -116.120117188 c 0,39,40
 291.045898438 -107.072265625 291.045898438 -107.072265625 296.145507812 -81.28515625 c 0,41,42
 301.301757812 -55.208984375 301.301757812 -55.208984375 301.900390625 -1.4716796875 c 1,43,-1
 245.078125 -1.5888671875 l 2,44,45
 185.53125 -1.5888671875 185.53125 -1.5888671875 149.33203125 7.05859375 c 128,-1,46
 113.131835938 15.705078125 113.131835938 15.705078125 90.298828125 40.8505859375 c 0,47,48
 67.8037109375 65.6240234375 67.8037109375 65.6240234375 61.1650390625 101.451171875 c 128,-1,49
 54.5263671875 137.278320312 54.5263671875 137.278320312 54.9560546875 198.934570312 c 0,50,-1
 54.9560546875 199.14453125 l 1,51,-1
 54.966796875 470.948242188 l 2,52,53
 54.9638671875 483.5234375 54.9638671875 483.5234375 63.5654296875 492.255859375 c 128,-1,54
 72.1669921875 500.989257812 72.1669921875 500.989257812 84.3203125 501.171875 c 0,0,-1
EndSplineSet
EndChar

StartChar: z
Encoding: 122 122 54
Width: 409
VWidth: 0
Flags: W
LayerCount: 2
Fore
SplineSet
336.162109375 500 m 2,0,1
 348.516601562 500 348.516601562 500 357.259765625 491.256835938 c 128,-1,2
 366.002929688 482.512695312 366.002929688 482.512695312 366.002929688 470.159179688 c 0,3,4
 366.002929688 461.954101562 366.002929688 461.954101562 361.80859375 454.90234375 c 2,5,-1
 126.62890625 59.732421875 l 1,6,-1
 335.102539062 59.7724609375 l 2,7,8
 347.870117188 59.7744140625 347.870117188 59.7744140625 356.614257812 51.03125 c 128,-1,9
 365.357421875 42.2880859375 365.357421875 42.2880859375 365.357421875 29.93359375 c 128,-1,10
 365.357421875 17.5791015625 365.357421875 17.5791015625 356.614257812 8.8359375 c 128,-1,11
 347.870117188 0.0927734375 347.870117188 0.0927734375 335.515625 0.0927734375 c 0,12,-1
 74.150390625 0.0458984375 l 2,13,14
 61.7958984375 0.046875 61.7958984375 0.046875 53.052734375 8.7900390625 c 128,-1,15
 44.3095703125 17.533203125 44.3095703125 17.533203125 44.3095703125 29.8876953125 c 0,16,17
 44.3095703125 38.091796875 44.3095703125 38.091796875 48.50390625 45.1435546875 c 2,18,-1
 283.68359375 440.313476562 l 1,19,-1
 75.2099609375 440.274414062 l 1,20,-1
 74.796875 440.271484375 l 2,21,22
 62.4423828125 440.271484375 62.4423828125 440.271484375 53.69921875 449.014648438 c 128,-1,23
 44.9560546875 457.758789062 44.9560546875 457.758789062 44.9560546875 470.11328125 c 128,-1,24
 44.9560546875 482.466796875 44.9560546875 482.466796875 53.69921875 491.2109375 c 128,-1,25
 62.4423828125 499.954101562 62.4423828125 499.954101562 74.796875 499.954101562 c 2,26,-1
 75.197265625 499.951171875 l 1,27,-1
 336.162109375 500 l 2,0,1
EndSplineSet
EndChar

StartChar: h
Encoding: 104 104 55
Width: 426
VWidth: 0
Flags: W
LayerCount: 2
Fore
SplineSet
84.8779296875 704.645507812 m 4,0,1
 97.7626953125 704.83984375 97.7626953125 704.83984375 106.879882812 695.732421875 c 132,-1,2
 115.99609375 686.624023438 115.99609375 686.624023438 115.813476562 673.73828125 c 6,3,-1
 115.813476562 501.631835938 l 5,4,-1
 176.6015625 501.755859375 l 6,5,6
 237.458984375 501.755859375 237.458984375 501.755859375 274.473632812 492.9140625 c 132,-1,7
 311.489257812 484.073242188 311.489257812 484.073242188 334.836914062 458.361328125 c 4,8,9
 357.858398438 433.0078125 357.858398438 433.0078125 364.639648438 396.338867188 c 132,-1,10
 371.419921875 359.669921875 371.419921875 359.669921875 370.973632812 296.5 c 6,11,-1
 370.975585938 296.71484375 l 5,12,-1
 370.962890625 24.92578125 l 6,13,14
 371.16015625 12.1630859375 371.16015625 12.1630859375 362.205078125 3.0693359375 c 132,-1,15
 353.25 -6.025390625 353.25 -6.025390625 340.486328125 -6.0244140625 c 132,-1,16
 327.72265625 -6.0234375 327.72265625 -6.0234375 318.768554688 3.072265625 c 132,-1,17
 309.814453125 12.16796875 309.814453125 12.16796875 310.014648438 24.9296875 c 6,18,-1
 310.025390625 296.823242188 l 6,19,20
 310.715820312 394.2578125 310.715820312 394.2578125 289.712890625 417.38671875 c 4,21,22
 268.44921875 440.8046875 268.44921875 440.8046875 176.6015625 440.8046875 c 6,23,-1
 115.813476562 440.681640625 l 5,24,-1
 115.813476562 23.77734375 l 6,25,26
 115.922851562 15.4248046875 115.922851562 15.4248046875 111.870117188 8.3076171875 c 132,-1,27
 107.817382812 1.19140625 107.817382812 1.19140625 100.754882812 -2.953125 c 132,-1,28
 93.69140625 -7.0986328125 93.69140625 -7.0986328125 85.337890625 -7.0986328125 c 4,29,30
 72.5966796875 -7.0986328125 72.5966796875 -7.0986328125 63.646484375 1.9697265625 c 132,-1,31
 54.6962890625 11.037109375 54.6962890625 11.037109375 54.86328125 23.77734375 c 6,32,-1
 54.86328125 673.73828125 l 6,33,34
 54.68359375 686.353515625 54.68359375 686.353515625 63.47265625 695.404296875 c 132,-1,35
 72.2626953125 704.455078125 72.2626953125 704.455078125 84.8779296875 704.645507812 c 4,0,1
EndSplineSet
EndChar

StartChar: A
Encoding: 65 65 56
Width: 547
VWidth: 0
Flags: W
LayerCount: 2
Fore
SplineSet
304.811523438 701.383789062 m 5,0,-1
 304.913085938 701.383789062 l 5,1,-1
 458.133789062 700.53125 l 6,2,3
 470.287109375 700.462890625 470.287109375 700.462890625 478.888671875 691.8125 c 132,-1,4
 487.490234375 683.162109375 487.490234375 683.162109375 487.490234375 671.0078125 c 4,5,-1
 486.619140625 28.6376953125 l 5,6,-1
 486.622070312 28.2744140625 l 6,7,8
 486.622070312 16.0517578125 486.622070312 16.0517578125 477.971679688 7.40234375 c 132,-1,9
 469.321289062 -1.248046875 469.321289062 -1.248046875 457.098632812 -1.248046875 c 132,-1,10
 444.875976562 -1.248046875 444.875976562 -1.248046875 436.225585938 7.40234375 c 132,-1,11
 427.575195312 16.0517578125 427.575195312 16.0517578125 427.575195312 28.2744140625 c 6,12,-1
 427.578125 28.7177734375 l 5,13,-1
 428.030273438 360.984375 l 5,14,-1
 113.385742188 361.1796875 l 5,15,-1
 109.16015625 361.182617188 l 5,16,-1
 109.607421875 28.58203125 l 5,17,-1
 109.610351562 28.138671875 l 6,18,19
 109.610351562 15.916015625 109.610351562 15.916015625 100.959960938 7.265625 c 132,-1,20
 92.3095703125 -1.384765625 92.3095703125 -1.384765625 80.0869140625 -1.384765625 c 132,-1,21
 67.8642578125 -1.384765625 67.8642578125 -1.384765625 59.2138671875 7.265625 c 132,-1,22
 50.5634765625 15.916015625 50.5634765625 15.916015625 50.5634765625 28.138671875 c 6,23,-1
 50.56640625 28.501953125 l 5,24,-1
 50 450.557617188 l 6,25,26
 51.0380859375 580.524414062 51.0380859375 580.524414062 117.467773438 642.56640625 c 4,27,28
 180.193359375 701.1484375 180.193359375 701.1484375 304.811523438 701.383789062 c 5,0,-1
304.900390625 642.34375 m 6,29,30
 203.533203125 642.15234375 203.533203125 642.15234375 157.7890625 599.4296875 c 4,31,32
 109.900390625 554.70703125 109.900390625 554.70703125 109.064453125 450.374023438 c 4,33,-1
 109.10546875 420.221679688 l 5,34,-1
 113.4453125 420.219726562 l 5,35,-1
 428.134765625 420.022460938 l 5,36,-1
 428.434570312 641.655273438 l 5,37,-1
 304.900390625 642.34375 l 6,29,30
EndSplineSet
Validated: 1
EndChar

StartChar: B
Encoding: 66 66 57
Width: 548
VWidth: 0
Flags: W
LayerCount: 2
Fore
SplineSet
360.970703125 700.779296875 m 5,0,-1
 361.061523438 700.779296875 l 6,1,2
 399.267578125 700.779296875 399.267578125 700.779296875 427.747070312 684.170898438 c 132,-1,3
 456.225585938 667.563476562 456.225585938 667.563476562 469.852539062 640.974609375 c 4,4,5
 488.038085938 605.490234375 488.038085938 605.490234375 488.038085938 539.522460938 c 4,6,7
 488.038085938 469.521484375 488.038085938 469.521484375 471.963867188 432.391601562 c 4,8,9
 461.600585938 408.451171875 461.600585938 408.451171875 440.85546875 391.145507812 c 5,10,11
 441.224609375 390.831054688 441.224609375 390.831054688 442.096679688 390.186523438 c 132,-1,12
 442.96875 389.541015625 442.96875 389.541015625 443.4140625 389.138671875 c 4,13,14
 488.038085938 348.724609375 488.038085938 348.724609375 488.038085938 247.18359375 c 6,15,-1
 488.038085938 167.36328125 l 6,16,17
 488.038085938 95.0048828125 488.038085938 95.0048828125 470.677734375 59.1259765625 c 4,18,19
 457.341796875 31.564453125 457.341796875 31.564453125 428.360351562 14.6396484375 c 132,-1,20
 399.379882812 -2.2861328125 399.379882812 -2.2861328125 360.544921875 -1.60546875 c 4,21,22
 315.462890625 -1.5361328125 315.462890625 -1.5361328125 221.4765625 -1.373046875 c 132,-1,23
 127.491210938 -1.208984375 127.491210938 -1.208984375 80.267578125 -1.130859375 c 4,24,25
 68.115234375 -1.109375 68.115234375 -1.109375 59.501953125 7.505859375 c 132,-1,26
 50.888671875 16.12109375 50.888671875 16.12109375 50.8701171875 28.2724609375 c 6,27,-1
 50 670.438476562 l 6,28,29
 50 682.627929688 50 682.627929688 58.6015625 691.255859375 c 132,-1,30
 67.2021484375 699.883789062 67.2021484375 699.883789062 79.35546875 699.921875 c 6,31,-1
 360.970703125 700.779296875 l 5,0,-1
361.061523438 641.890625 m 6,32,-1
 108.930664062 641.124023438 l 5,33,-1
 109.225585938 423.201171875 l 5,34,-1
 361.161132812 422.331054688 l 6,35,36
 387.384765625 422.333007812 387.384765625 422.333007812 398.754882812 430.056640625 c 132,-1,37
 410.125976562 437.780273438 410.125976562 437.780273438 417.920898438 455.788085938 c 4,38,39
 429.149414062 481.725585938 429.149414062 481.725585938 429.149414062 539.522460938 c 4,40,41
 429.149414062 591.2734375 429.149414062 591.2734375 417.444335938 614.114257812 c 4,42,43
 409.932617188 628.771484375 409.932617188 628.771484375 398.4609375 635.330078125 c 132,-1,44
 386.990234375 641.889648438 386.990234375 641.889648438 361.061523438 641.890625 c 6,32,-1
109.305664062 364.3125 m 5,45,-1
 109.720703125 57.7080078125 l 5,46,47
 145.87890625 57.6474609375 145.87890625 57.6474609375 231.848632812 57.498046875 c 132,-1,48
 317.819335938 57.3486328125 317.819335938 57.3486328125 361.109375 57.2783203125 c 6,49,-1
 361.576171875 57.2744140625 l 6,50,51
 388.049804688 56.810546875 388.049804688 56.810546875 399.15234375 63.1318359375 c 132,-1,52
 410.25390625 69.453125 410.25390625 69.453125 417.666992188 84.7744140625 c 4,53,54
 429.149414062 108.505859375 429.149414062 108.505859375 429.149414062 167.36328125 c 6,55,-1
 429.149414062 247.18359375 l 6,56,57
 429.149414062 322.607421875 429.149414062 322.607421875 403.8828125 345.490234375 c 4,58,59
 385.901367188 361.775390625 385.901367188 361.775390625 331.336914062 363.45703125 c 4,60,61
 330.388671875 363.477539062 330.388671875 363.477539062 329.494140625 363.552734375 c 6,62,-1
 109.305664062 364.3125 l 5,45,-1
EndSplineSet
EndChar

StartChar: C
Encoding: 67 67 58
Width: 512
VWidth: 0
Flags: W
LayerCount: 2
Fore
SplineSet
329.455078125 702.57421875 m 0,0,1
 344.25 702.521484375 344.25 702.521484375 388.456054688 701.795898438 c 128,-1,2
 432.662109375 701.069335938 432.662109375 701.069335938 461.752929688 701.111328125 c 2,3,-1
 462.23828125 701.115234375 l 2,4,5
 474.560546875 701.115234375 474.560546875 701.115234375 483.280273438 692.395507812 c 128,-1,6
 492 683.674804688 492 683.674804688 492 671.353515625 c 128,-1,7
 492 659.032226562 492 659.032226562 483.280273438 650.311523438 c 128,-1,8
 474.560546875 641.590820312 474.560546875 641.590820312 462.23828125 641.590820312 c 2,9,-1
 461.836914062 641.59375 l 2,10,11
 431.40625 641.549804688 431.40625 641.549804688 387.958007812 642.217773438 c 128,-1,12
 344.509765625 642.88671875 344.509765625 642.88671875 327.538085938 642.971679688 c 128,-1,13
 310.56640625 643.057617188 310.56640625 643.057617188 278.514648438 641.82421875 c 0,14,15
 214.900390625 637.811523438 214.900390625 637.811523438 173.259765625 609.791015625 c 0,16,17
 132.389648438 582.294921875 132.389648438 582.294921875 117.721679688 491.95703125 c 0,18,19
 109.297851562 440.075195312 109.297851562 440.075195312 109.140625 331.235351562 c 0,20,-1
 109.140625 331.223632812 l 2,21,22
 108.974609375 240.369140625 108.974609375 240.369140625 121.182617188 180.768554688 c 0,23,24
 137.229492188 102.44140625 137.229492188 102.44140625 171.000976562 84.4384765625 c 0,25,26
 183.818359375 77.607421875 183.818359375 77.607421875 196.637695312 72.875 c 128,-1,27
 209.458007812 68.1416015625 209.458007812 68.1416015625 227.69140625 65.267578125 c 128,-1,28
 245.92578125 62.3935546875 245.92578125 62.3935546875 258.830078125 60.8095703125 c 128,-1,29
 271.735351562 59.2265625 271.735351562 59.2265625 299.326171875 58.7880859375 c 128,-1,30
 326.91796875 58.3505859375 326.91796875 58.3505859375 342.874023438 58.3896484375 c 128,-1,31
 358.831054688 58.427734375 358.831054688 58.427734375 398.747070312 58.8994140625 c 128,-1,32
 438.663085938 59.37109375 438.663085938 59.37109375 461.612304688 59.51171875 c 0,33,34
 461.936523438 59.517578125 461.936523438 59.517578125 462.201171875 59.517578125 c 0,35,36
 474.5234375 59.517578125 474.5234375 59.517578125 483.243164062 50.7978515625 c 128,-1,37
 491.962890625 42.0771484375 491.962890625 42.0771484375 491.962890625 29.755859375 c 128,-1,38
 491.962890625 17.4345703125 491.962890625 17.4345703125 483.243164062 8.7138671875 c 128,-1,39
 474.5234375 -0.0068359375 474.5234375 -0.0068359375 462.201171875 -0.0068359375 c 0,40,41
 437.54296875 -0.1552734375 437.54296875 -0.1552734375 389.827148438 -0.87109375 c 128,-1,42
 342.112304688 -1.5869140625 342.112304688 -1.5869140625 324.232421875 -1.537109375 c 128,-1,43
 306.352539062 -1.48828125 306.352539062 -1.48828125 273.627929688 -0.1484375 c 128,-1,44
 240.90234375 1.1904296875 240.90234375 1.1904296875 223.709960938 4.7060546875 c 128,-1,45
 206.518554688 8.2216796875 206.518554688 8.2216796875 184.430664062 14.9140625 c 128,-1,46
 162.342773438 21.6064453125 162.342773438 21.6064453125 143.000976562 31.9150390625 c 0,47,48
 84.53515625 63.080078125 84.53515625 63.080078125 62.87109375 168.826171875 c 0,49,50
 49.4404296875 234.383789062 49.4404296875 234.383789062 49.6171875 331.326171875 c 0,51,-1
 49.6171875 331.336914062 l 2,52,53
 49.783203125 444.947265625 49.783203125 444.947265625 58.966796875 501.50390625 c 0,54,55
 77.7646484375 617.283203125 77.7646484375 617.283203125 140.025390625 659.181640625 c 0,56,57
 195.057617188 696.2109375 195.057617188 696.2109375 274.76953125 701.237304688 c 0,58,59
 292.001953125 702.32421875 292.001953125 702.32421875 313.794921875 702.528320312 c 0,60,61
 321.01953125 702.595703125 321.01953125 702.595703125 329.455078125 702.57421875 c 0,0,1
EndSplineSet
EndChar

StartChar: D
Encoding: 68 68 59
Width: 559
VWidth: 0
Flags: W
LayerCount: 2
Fore
SplineSet
164.090820312 702.387695312 m 0,0,1
 217.297851562 702.325195312 217.297851562 702.325195312 253.272460938 700.090820312 c 0,2,3
 360.450195312 693.435546875 360.450195312 693.435546875 411.094726562 660.776367188 c 0,4,5
 411.340820312 660.619140625 411.340820312 660.619140625 411.609375 660.4375 c 0,6,7
 472.49609375 619.365234375 472.49609375 619.365234375 490.879882812 501.038085938 c 0,8,9
 499.802734375 443.611328125 499.802734375 443.611328125 499.966796875 330.104492188 c 0,10,11
 500.122070312 245.182617188 500.122070312 245.182617188 481.428710938 165.580078125 c 0,12,13
 469.405273438 114.376953125 469.405273438 114.376953125 453.061523438 81.294921875 c 128,-1,14
 436.716796875 48.212890625 436.716796875 48.212890625 405.908203125 31.6474609375 c 0,15,16
 363.571289062 8.8828125 363.571289062 8.8828125 307.68359375 3.7255859375 c 128,-1,17
 251.795898438 -1.431640625 251.795898438 -1.431640625 123.637695312 -1.33984375 c 0,18,19
 95.0244140625 -1.318359375 95.0244140625 -1.318359375 79.685546875 -1.3369140625 c 0,20,21
 67.376953125 -1.3369140625 67.376953125 -1.3369140625 58.6884765625 7.349609375 c 128,-1,22
 50.0009765625 16.037109375 50.0009765625 16.037109375 50 28.3115234375 c 2,23,-1
 50 672.65625 l 2,24,25
 50.001953125 684.930664062 50.001953125 684.930664062 58.689453125 693.6171875 c 128,-1,26
 67.376953125 702.303710938 67.376953125 702.303710938 79.6513671875 702.303710938 c 0,27,28
 87.380859375 702.134765625 87.380859375 702.134765625 120.762695312 702.266601562 c 128,-1,29
 154.14453125 702.399414062 154.14453125 702.399414062 164.090820312 702.387695312 c 0,0,1
164.146484375 643.05078125 m 0,30,31
 144.8046875 643.072265625 144.8046875 643.072265625 109.303710938 643.020507812 c 1,32,-1
 109.303710938 58.109375 l 1,33,34
 236.134765625 58.390625 236.134765625 58.390625 291.700195312 62.9091796875 c 128,-1,35
 347.266601562 67.4267578125 347.266601562 67.4267578125 377.836914062 83.865234375 c 0,36,37
 387.563476562 89.0947265625 387.563476562 89.0947265625 401.497070312 116.4765625 c 128,-1,38
 415.431640625 143.857421875 415.431640625 143.857421875 423.712890625 179.123046875 c 0,39,40
 440.826171875 251.997070312 440.826171875 251.997070312 440.6796875 329.989257812 c 0,41,-1
 440.6796875 330.001953125 l 2,42,43
 440.5234375 438.977539062 440.5234375 438.977539062 432.296875 491.924804688 c 0,44,45
 417.948242188 584.274414062 417.948242188 584.274414062 378.724609375 611.080078125 c 0,46,47
 340.990234375 635.235351562 340.990234375 635.235351562 249.61328125 640.909179688 c 0,48,49
 216.149414062 642.987304688 216.149414062 642.987304688 164.146484375 643.05078125 c 0,30,31
EndSplineSet
EndChar

StartChar: E
Encoding: 69 69 60
Width: 559
VWidth: 0
Flags: W
LayerCount: 2
Fore
SplineSet
187.524414062 700.34765625 m 2,0,-1
 469.302734375 700.34765625 l 2,1,2
 481.946289062 700.350585938 481.946289062 700.350585938 490.598632812 691.698242188 c 128,-1,3
 499.25 683.045898438 499.25 683.045898438 499.25 670.821289062 c 128,-1,4
 499.25 658.595703125 499.25 658.595703125 490.598632812 649.943359375 c 128,-1,5
 481.946289062 641.291015625 481.946289062 641.291015625 469.720703125 641.291015625 c 0,6,-1
 187.524414062 641.293945312 l 2,7,8
 158.610351562 641.293945312 158.610351562 641.293945312 144.584960938 629.561523438 c 0,9,10
 130.174804688 617.504882812 130.174804688 617.504882812 122.217773438 586.34375 c 0,11,12
 111.057617188 542.627929688 111.057617188 542.627929688 109.53515625 421.065429688 c 1,13,-1
 434.616210938 421.065429688 l 2,14,15
 447.259765625 421.069335938 447.259765625 421.069335938 455.912109375 412.416992188 c 128,-1,16
 464.563476562 403.764648438 464.563476562 403.764648438 464.563476562 391.5390625 c 128,-1,17
 464.563476562 379.313476562 464.563476562 379.313476562 455.912109375 370.661132812 c 128,-1,18
 447.259765625 362.008789062 447.259765625 362.008789062 435.034179688 362.008789062 c 0,19,-1
 109.143554688 362.01171875 l 2,20,21
 109.142578125 361.530273438 109.142578125 361.530273438 109.114257812 353.166992188 c 128,-1,22
 109.084960938 344.803710938 109.084960938 344.803710938 109.078125 340.319335938 c 0,23,24
 108.799804688 151.329101562 108.799804688 151.329101562 122.485351562 104.380859375 c 0,25,26
 130.228515625 77.826171875 130.228515625 77.826171875 144.3046875 67.9228515625 c 0,27,28
 159.104492188 57.51171875 159.104492188 57.51171875 190.677734375 57.51171875 c 2,29,-1
 469.302734375 57.51171875 l 2,30,31
 481.9453125 57.5146484375 481.9453125 57.5146484375 490.59765625 48.8623046875 c 128,-1,32
 499.25 40.2099609375 499.25 40.2099609375 499.25 27.984375 c 128,-1,33
 499.25 15.7587890625 499.25 15.7587890625 490.59765625 7.1064453125 c 128,-1,34
 481.9453125 -1.5458984375 481.9453125 -1.5458984375 469.719726562 -1.5458984375 c 0,35,-1
 190.677734375 -1.54296875 l 2,36,37
 140.413085938 -1.54296875 140.413085938 -1.54296875 110.325195312 19.623046875 c 0,38,39
 79.326171875 41.4326171875 79.326171875 41.4326171875 65.79296875 87.8525390625 c 0,40,41
 57.9697265625 114.688476562 57.9697265625 114.688476562 54.3583984375 156.659179688 c 128,-1,42
 50.74609375 198.62890625 50.74609375 198.62890625 50.3291015625 231.0390625 c 128,-1,43
 49.9111328125 263.44921875 49.9111328125 263.44921875 50.0234375 340.40625 c 0,44,45
 50.1396484375 420.188476562 50.1396484375 420.188476562 50.5390625 451.651367188 c 128,-1,46
 50.9384765625 483.115234375 50.9384765625 483.115234375 54.3427734375 527.828125 c 128,-1,47
 57.7470703125 572.541015625 57.7470703125 572.541015625 65.0009765625 600.953125 c 0,48,49
 77.6708984375 650.575195312 77.6708984375 650.575195312 106.692382812 674.85546875 c 0,50,51
 137.1640625 700.34765625 137.1640625 700.34765625 187.524414062 700.34765625 c 2,0,-1
EndSplineSet
EndChar

StartChar: F
Encoding: 70 70 61
Width: 485
VWidth: 0
Flags: W
LayerCount: 2
Fore
SplineSet
175.133789062 700.397460938 m 2,0,-1
 435.135742188 700.397460938 l 2,1,2
 447.744140625 700.400390625 447.744140625 700.400390625 456.372070312 691.772460938 c 128,-1,3
 465 683.14453125 465 683.14453125 465 670.953125 c 128,-1,4
 465 658.76171875 465 658.76171875 456.372070312 650.1328125 c 128,-1,5
 447.744140625 641.504882812 447.744140625 641.504882812 435.552734375 641.504882812 c 0,6,-1
 175.133789062 641.5078125 l 2,7,8
 136.362304688 641.5078125 136.362304688 641.5078125 123.139648438 628.1640625 c 0,9,10
 108.45703125 613.346679688 108.45703125 613.346679688 108.45703125 568.49609375 c 2,11,-1
 108.45703125 419.305664062 l 1,12,-1
 370.671875 419.305664062 l 2,13,14
 383.280273438 419.30859375 383.280273438 419.30859375 391.908203125 410.680664062 c 128,-1,15
 400.536132812 402.052734375 400.536132812 402.052734375 400.536132812 389.861328125 c 128,-1,16
 400.536132812 377.669921875 400.536132812 377.669921875 391.908203125 369.041992188 c 128,-1,17
 383.280273438 360.4140625 383.280273438 360.4140625 371.088867188 360.4140625 c 0,18,-1
 108.45703125 360.416992188 l 1,19,-1
 108.45703125 27.97265625 l 2,20,21
 108.459960938 15.365234375 108.459960938 15.365234375 99.8310546875 6.7373046875 c 128,-1,22
 91.203125 -1.890625 91.203125 -1.890625 79.01171875 -1.890625 c 128,-1,23
 66.8203125 -1.890625 66.8203125 -1.890625 58.1923828125 6.7373046875 c 128,-1,24
 49.564453125 15.365234375 49.564453125 15.365234375 49.564453125 27.556640625 c 0,25,-1
 49.5673828125 568.49609375 l 2,26,27
 49.5673828125 637.581054688 49.5673828125 637.581054688 81.310546875 669.616210938 c 0,28,29
 111.811523438 700.397460938 111.811523438 700.397460938 175.133789062 700.397460938 c 2,0,-1
EndSplineSet
EndChar

StartChar: G
Encoding: 71 71 62
Width: 567
VWidth: 0
Flags: W
LayerCount: 2
Fore
SplineSet
476.651367188 703.5546875 m 0,0,1
 489.259765625 703.557617188 489.259765625 703.557617188 497.887695312 694.9296875 c 128,-1,2
 506.515625 686.301757812 506.515625 686.301757812 506.515625 674.110351562 c 128,-1,3
 506.515625 661.918945312 506.515625 661.918945312 497.887695312 653.291015625 c 128,-1,4
 489.259765625 644.663085938 489.259765625 644.663085938 477.068359375 644.663085938 c 0,5,6
 327.431640625 644.666015625 327.431640625 644.666015625 251.827148438 630.001953125 c 0,7,8
 179.766601562 616.026367188 179.766601562 616.026367188 149.73046875 584.4296875 c 0,9,10
 122.745117188 556.0390625 122.745117188 556.0390625 114.572265625 494.763671875 c 0,11,12
 108.888671875 452.14453125 108.888671875 452.14453125 108.888671875 327.8515625 c 0,13,14
 108.888671875 208.448242188 108.888671875 208.448242188 115.1015625 168.291992188 c 0,15,16
 123.126953125 116.428710938 123.126953125 116.428710938 148.765625 95.296875 c 128,-1,17
 174.5546875 74.0419921875 174.5546875 74.0419921875 244.489257812 64.6005859375 c 128,-1,18
 314.423828125 55.1591796875 314.423828125 55.1591796875 448.426757812 54.4208984375 c 1,19,-1
 448.426757812 243.368164062 l 1,20,-1
 448.423828125 243.78515625 l 2,21,22
 448.423828125 255.794921875 448.423828125 255.794921875 456.921875 264.421875 c 128,-1,23
 465.420898438 273.048828125 465.420898438 273.048828125 477.428710938 273.229492188 c 0,24,25
 490.0625 273.232421875 490.0625 273.232421875 498.690429688 264.604492188 c 128,-1,26
 507.318359375 255.9765625 507.318359375 255.9765625 507.318359375 243.78515625 c 2,27,-1
 507.315429688 243.368164062 l 1,28,-1
 507.315429688 25.802734375 l 1,29,-1
 507.318359375 25.4306640625 l 2,30,31
 507.318359375 9.1318359375 507.318359375 9.1318359375 493.506835938 0.4775390625 c 0,32,33
 493.2578125 0.314453125 493.2578125 0.314453125 492.981445312 0.1435546875 c 128,-1,34
 492.549804688 -0.123046875 492.549804688 -0.123046875 492.11328125 -0.37109375 c 0,35,36
 485.1328125 -4.5478515625 485.1328125 -4.5478515625 476.995117188 -4.5478515625 c 0,37,38
 306.663085938 -4.62109375 306.663085938 -4.62109375 230.97265625 4.49609375 c 128,-1,39
 155.282226562 13.61328125 155.282226562 13.61328125 111.310546875 49.8544921875 c 0,40,41
 68.3603515625 85.2548828125 68.3603515625 85.2548828125 56.9052734375 159.288085938 c 0,42,43
 50 203.916015625 50 203.916015625 50 327.8515625 c 0,44,45
 50 456.059570312 50 456.059570312 56.2001953125 502.547851562 c 0,46,47
 66.8984375 582.763671875 66.8984375 582.763671875 107.046875 625 c 0,48,49
 150.060546875 670.252929688 150.060546875 670.252929688 240.614257812 687.814453125 c 0,50,51
 321.765625 703.5546875 321.765625 703.5546875 476.651367188 703.5546875 c 0,0,1
EndSplineSet
EndChar

StartChar: H
Encoding: 72 72 63
Width: 547
VWidth: 0
Flags: W
LayerCount: 2
Fore
SplineSet
79.0517578125 702.44921875 m 4,0,-1
 79.53125 702.453125 l 6,1,2
 91.75390625 702.453125 91.75390625 702.453125 100.404296875 693.802734375 c 132,-1,3
 109.0546875 685.15234375 109.0546875 685.15234375 109.0546875 672.9296875 c 4,4,-1
 109.271484375 420.02734375 l 5,5,-1
 428.116210938 419.829101562 l 5,6,-1
 428.45703125 672.518554688 l 6,7,8
 428.454101562 684.951171875 428.454101562 684.951171875 436.985351562 693.600585938 c 132,-1,9
 445.516601562 702.25 445.516601562 702.25 457.571289062 702.416015625 c 6,10,-1
 457.977539062 702.418945312 l 6,11,12
 470.200195312 702.418945312 470.200195312 702.418945312 478.850585938 693.768554688 c 132,-1,13
 487.500976562 685.118164062 487.500976562 685.118164062 487.500976562 672.895507812 c 6,14,-1
 487.498046875 672.438476562 l 5,15,-1
 486.627929688 28.2607421875 l 6,16,17
 486.629882812 15.6748046875 486.629882812 15.6748046875 477.979492188 7.0244140625 c 132,-1,18
 469.329101562 -1.6259765625 469.329101562 -1.6259765625 457.106445312 -1.6259765625 c 132,-1,19
 444.883789062 -1.6259765625 444.883789062 -1.6259765625 436.233398438 7.0244140625 c 132,-1,20
 427.583007812 15.6748046875 427.583007812 15.6748046875 427.583007812 27.8974609375 c 4,21,-1
 428.03515625 360.796875 l 5,22,-1
 109.313476562 360.994140625 l 5,23,-1
 109.6015625 28.1943359375 l 6,24,25
 109.60546875 15.541015625 109.60546875 15.541015625 100.955078125 6.890625 c 132,-1,26
 92.3046875 -1.759765625 92.3046875 -1.759765625 80.08203125 -1.759765625 c 132,-1,27
 67.859375 -1.759765625 67.859375 -1.759765625 59.208984375 6.890625 c 132,-1,28
 50.55859375 15.541015625 50.55859375 15.541015625 50.55859375 27.763671875 c 4,29,-1
 50.0029296875 672.486328125 l 5,30,-1
 50 672.9296875 l 6,31,32
 50 684.958984375 50 684.958984375 58.5126953125 693.608398438 c 132,-1,33
 67.0244140625 702.256835938 67.0244140625 702.256835938 79.0517578125 702.44921875 c 4,0,-1
EndSplineSet
Validated: 1
EndChar

StartChar: I
Encoding: 73 73 64
Width: 168
VWidth: 0
Flags: W
LayerCount: 2
Fore
SplineSet
78.5234375 702.643554688 m 6,0,-1
 78.994140625 702.647460938 l 6,1,2
 91.1845703125 702.647460938 91.1845703125 702.647460938 99.8115234375 694.01953125 c 132,-1,3
 108.439453125 685.391601562 108.439453125 685.391601562 108.439453125 673.201171875 c 4,4,-1
 108.9921875 28.5458984375 l 5,5,-1
 108.99609375 28.07421875 l 6,6,7
 108.99609375 15.8837890625 108.99609375 15.8837890625 100.368164062 7.255859375 c 132,-1,8
 91.7412109375 -1.37109375 91.7412109375 -1.37109375 79.55078125 -1.37109375 c 132,-1,9
 67.3603515625 -1.37109375 67.3603515625 -1.37109375 58.732421875 7.2568359375 c 132,-1,10
 50.1044921875 15.8837890625 50.1044921875 15.8837890625 50.1044921875 28.07421875 c 4,11,-1
 49.5498046875 672.760742188 l 6,12,13
 49.546875 685.19921875 49.546875 685.19921875 58.037109375 693.826171875 c 132,-1,14
 66.52734375 702.452148438 66.52734375 702.452148438 78.5234375 702.643554688 c 6,0,-1
EndSplineSet
Validated: 1
EndChar

StartChar: J
Encoding: 74 74 65
Width: 428
VWidth: 0
Flags: W
LayerCount: 2
Fore
SplineSet
339.0234375 701.755859375 m 0,0,1
 351.658203125 701.758789062 351.658203125 701.758789062 360.286132812 693.130859375 c 128,-1,2
 368.9140625 684.502929688 368.9140625 684.502929688 368.9140625 672.311523438 c 0,3,-1
 368.911132812 206.05078125 l 2,4,5
 368.911132812 134.026367188 368.911132812 134.026367188 355.688476562 94.041015625 c 0,6,7
 340.073242188 46.8193359375 340.073242188 46.8193359375 301.361328125 24.27734375 c 0,8,9
 278.662109375 11.060546875 278.662109375 11.060546875 245.413085938 4.751953125 c 128,-1,10
 212.1640625 -1.5556640625 212.1640625 -1.5556640625 184.83984375 -2.5009765625 c 128,-1,11
 157.515625 -3.4462890625 157.515625 -3.4462890625 99.6865234375 -3.3623046875 c 0,12,13
 86.62109375 -3.34375 86.62109375 -3.34375 79.86328125 -3.34375 c 0,14,15
 67.255859375 -3.3466796875 67.255859375 -3.3466796875 58.6279296875 5.28125 c 128,-1,16
 50 13.9091796875 50 13.9091796875 50 26.1005859375 c 128,-1,17
 50 38.2919921875 50 38.2919921875 58.6279296875 46.919921875 c 128,-1,18
 67.255859375 55.5478515625 67.255859375 55.5478515625 79.447265625 55.5478515625 c 0,19,20
 238.029296875 55.544921875 238.029296875 55.544921875 271.727539062 75.1669921875 c 0,21,22
 291.165039062 86.4853515625 291.165039062 86.4853515625 299.779296875 112.530273438 c 0,23,24
 310.022460938 143.508789062 310.022460938 143.508789062 310.022460938 206.05078125 c 2,25,-1
 310.022460938 671.89453125 l 2,26,27
 310.01953125 684.321289062 310.01953125 684.321289062 318.517578125 692.948242188 c 128,-1,28
 327.015625 701.575195312 327.015625 701.575195312 339.0234375 701.755859375 c 0,0,1
EndSplineSet
EndChar

StartChar: P
Encoding: 80 80 66
Width: 408
VWidth: 0
Flags: W
LayerCount: 2
Fore
SplineSet
155.080078125 703.22265625 m 4,0,1
 210.7109375 703.186523438 210.7109375 703.186523438 242.7265625 698.671875 c 132,-1,2
 274.741210938 694.15625 274.741210938 694.15625 300.862304688 679.474609375 c 4,3,4
 324.793945312 666.022460938 324.793945312 666.022460938 336.147460938 642.473632812 c 132,-1,5
 347.501953125 618.924804688 347.501953125 618.924804688 355.896484375 581.798828125 c 4,6,7
 368.16015625 527.571289062 368.16015625 527.571289062 367.998046875 468.087890625 c 4,8,9
 367.887695312 390.099609375 367.887695312 390.099609375 361.86328125 350.296875 c 4,10,11
 349.069335938 265.772460938 349.069335938 265.772460938 305.30078125 235.462890625 c 4,12,13
 267.162109375 209.052734375 267.162109375 209.052734375 213.165039062 204.81640625 c 4,14,15
 195.255859375 203.412109375 195.255859375 203.412109375 109.358398438 203.970703125 c 5,16,-1
 109.358398438 28.181640625 l 6,17,18
 109.361328125 19.7744140625 109.361328125 19.7744140625 105.416015625 12.9853515625 c 132,-1,19
 101.469726562 6.1953125 101.469726562 6.1953125 94.6796875 2.2490234375 c 132,-1,20
 87.8896484375 -1.6962890625 87.8896484375 -1.6962890625 79.8876953125 -1.6962890625 c 4,21,22
 67.6865234375 -1.6962890625 67.6865234375 -1.6962890625 59.05078125 6.939453125 c 132,-1,23
 50.4150390625 15.5751953125 50.4150390625 15.5751953125 50.4150390625 27.7763671875 c 4,24,-1
 50.41796875 666.79296875 l 6,25,26
 49.6484375 670.091796875 49.6484375 670.091796875 49.6484375 673.482421875 c 4,27,28
 49.6484375 685.685546875 49.6484375 685.685546875 58.28515625 694.321289062 c 132,-1,29
 66.9208984375 702.958007812 66.9208984375 702.958007812 79.1240234375 702.958007812 c 4,30,31
 94.134765625 702.956054688 94.134765625 702.956054688 119.255859375 703.092773438 c 132,-1,32
 144.375976562 703.229492188 144.375976562 703.229492188 155.080078125 703.22265625 c 4,0,1
109.379882812 643.982421875 m 5,33,-1
 109.380859375 262.930664062 l 5,34,35
 194.692382812 262.495117188 194.692382812 262.495117188 208.578125 263.583984375 c 4,36,37
 246.708984375 266.575195312 246.708984375 266.575195312 271.763671875 283.92578125 c 4,38,39
 294.616210938 299.750976562 294.616210938 299.750976562 303.603515625 359.12109375 c 4,40,41
 308.969726562 394.576171875 308.969726562 394.576171875 309.07421875 468.208007812 c 4,42,-1
 309.07421875 468.244140625 l 6,43,44
 309.216796875 521.0625 309.216796875 521.0625 298.422851562 568.797851562 c 4,45,46
 295.00390625 583.920898438 295.00390625 583.920898438 289.095703125 598.09375 c 132,-1,47
 283.188476562 612.266601562 283.188476562 612.266601562 278.622070312 619.6015625 c 132,-1,48
 274.0546875 626.936523438 274.0546875 626.936523438 272.001953125 628.08984375 c 4,49,50
 254.051757812 638.180664062 254.051757812 638.180664062 220.131835938 641.0234375 c 132,-1,51
 186.2109375 643.866210938 186.2109375 643.866210938 109.379882812 643.982421875 c 5,33,-1
EndSplineSet
EndChar

StartChar: Q
Encoding: 81 81 67
Width: 584
VWidth: 0
Flags: W
LayerCount: 2
Fore
SplineSet
287.111328125 705.33203125 m 5,0,-1
 287.110351562 705.34375 l 5,1,2
 348.880859375 705.34375 348.880859375 705.34375 387.587890625 692.255859375 c 4,3,4
 404.700195312 686.470703125 404.700195312 686.470703125 432.895507812 669.159179688 c 4,5,6
 466.379882812 648.599609375 466.379882812 648.599609375 483.462890625 609.994140625 c 132,-1,7
 500.545898438 571.387695312 500.545898438 571.387695312 510.689453125 515.225585938 c 4,8,9
 524.072265625 441.119140625 524.072265625 441.119140625 524.22265625 339.615234375 c 4,10,11
 524.450195312 254.790039062 524.450195312 254.790039062 505.506835938 174.544921875 c 4,12,13
 493.678710938 124.435546875 493.678710938 124.435546875 477.688476562 91.2958984375 c 132,-1,14
 461.697265625 58.15625 461.697265625 58.15625 432.60546875 40.1884765625 c 4,15,16
 431.559570312 39.54296875 431.559570312 39.54296875 425.208984375 35.5400390625 c 132,-1,17
 418.857421875 31.5380859375 418.857421875 31.5380859375 416.424804688 30.138671875 c 132,-1,18
 413.9921875 28.740234375 413.9921875 28.740234375 407.291015625 24.908203125 c 132,-1,19
 400.58984375 21.0751953125 400.58984375 21.0751953125 396.19140625 19.2470703125 c 132,-1,20
 391.79296875 17.4189453125 391.79296875 17.4189453125 384.338867188 14.181640625 c 132,-1,21
 376.885742188 10.9443359375 376.885742188 10.9443359375 370.118164062 9.1123046875 c 132,-1,22
 363.3515625 7.2802734375 363.3515625 7.2802734375 354.743164062 5.0625 c 132,-1,23
 346.134765625 2.8447265625 346.134765625 2.8447265625 336.596679688 1.43359375 c 132,-1,24
 327.059570312 0.0224609375 327.059570312 0.0224609375 316.716796875 -0.8515625 c 5,25,-1
 316.862304688 -39.255859375 l 5,26,-1
 316.866210938 -39.755859375 l 6,27,28
 316.866210938 -51.958984375 316.866210938 -51.958984375 308.229492188 -60.5947265625 c 132,-1,29
 299.59375 -69.2314453125 299.59375 -69.2314453125 287.390625 -69.2314453125 c 132,-1,30
 275.1875 -69.2314453125 275.1875 -69.2314453125 266.551757812 -60.5947265625 c 132,-1,31
 257.915039062 -51.958984375 257.915039062 -51.958984375 257.915039062 -39.755859375 c 6,32,-1
 257.916992188 -39.4765625 l 5,33,-1
 257.771484375 -0.875 l 5,34,35
 228.53515625 1.5693359375 228.53515625 1.5693359375 202.171875 10.509765625 c 132,-1,36
 175.807617188 19.44921875 175.807617188 19.44921875 169.028320312 23.447265625 c 132,-1,37
 162.249023438 27.4462890625 162.249023438 27.4462890625 141.615234375 40.1884765625 c 4,38,39
 112.5234375 58.15625 112.5234375 58.15625 96.5478515625 91.2890625 c 132,-1,40
 80.572265625 124.421875 80.572265625 124.421875 68.7509765625 174.543945312 c 4,41,42
 49.8583984375 254.651367188 49.8583984375 254.651367188 50.0009765625 339.599609375 c 4,43,-1
 50.0009765625 339.63671875 l 6,44,45
 50.30078125 441.56640625 50.30078125 441.56640625 63.58203125 515.21484375 c 4,46,47
 73.712890625 571.389648438 73.712890625 571.389648438 90.7783203125 609.990234375 c 132,-1,48
 107.84375 648.590820312 107.84375 648.590820312 141.330078125 669.147460938 c 4,49,50
 169.520507812 686.458007812 169.520507812 686.458007812 186.635742188 692.244140625 c 4,51,52
 225.342773438 705.33203125 225.342773438 705.33203125 287.111328125 705.33203125 c 5,0,-1
287.088867188 645.772460938 m 132,-1,54
 235.123046875 645.776367188 235.123046875 645.776367188 205.69140625 635.82421875 c 4,55,56
 194.947265625 632.190429688 194.947265625 632.190429688 172.470703125 618.393554688 c 4,57,58
 157.954101562 609.478515625 157.954101562 609.478515625 143.830078125 577.932617188 c 132,-1,59
 129.706054688 546.38671875 129.706054688 546.38671875 122.177734375 504.637695312 c 4,60,61
 109.826171875 436.14453125 109.826171875 436.14453125 109.541015625 339.493164062 c 4,62,63
 109.411132812 261.532226562 109.411132812 261.532226562 126.702148438 188.2109375 c 4,64,65
 135.057617188 152.783203125 135.057617188 152.783203125 148.850585938 124.986328125 c 132,-1,66
 162.642578125 97.189453125 162.642578125 97.189453125 172.893554688 90.8564453125 c 4,67,68
 176.8125 88.4365234375 176.8125 88.4365234375 186.5234375 81.9921875 c 132,-1,69
 196.234375 75.546875 196.234375 75.546875 200.60546875 73.26171875 c 132,-1,70
 204.977539062 70.9765625 204.977539062 70.9765625 213.9921875 67.1005859375 c 132,-1,71
 223.006835938 63.2236328125 223.006835938 63.2236328125 233.349609375 61.3603515625 c 132,-1,72
 243.692382812 59.4970703125 243.692382812 59.4970703125 257.528320312 58.4755859375 c 5,73,-1
 257.341796875 107.950195312 l 6,74,75
 257.337890625 120.454101562 257.337890625 120.454101562 265.810546875 129.088867188 c 132,-1,76
 274.284179688 137.723632812 274.284179688 137.723632812 286.256835938 137.950195312 c 4,77,78
 286.512695312 137.955078125 286.512695312 137.955078125 286.8125 137.955078125 c 4,79,80
 299.015625 137.955078125 299.015625 137.955078125 307.651367188 129.318359375 c 132,-1,81
 316.288085938 120.682617188 316.288085938 120.682617188 316.288085938 108.479492188 c 4,82,-1
 316.473632812 58.4619140625 l 5,83,84
 330.353515625 59.478515625 330.353515625 59.478515625 340.72265625 61.3369140625 c 132,-1,85
 351.092773438 63.1953125 351.092773438 63.1953125 360.1328125 67.0791015625 c 132,-1,86
 369.172851562 70.9619140625 369.172851562 70.9619140625 373.540039062 73.240234375 c 132,-1,87
 377.908203125 75.51953125 377.908203125 75.51953125 387.646484375 81.9814453125 c 132,-1,88
 397.384765625 88.4443359375 397.384765625 88.4443359375 401.2890625 90.85546875 c 4,89,90
 411.546875 97.19140625 411.546875 97.19140625 425.3515625 124.991210938 c 132,-1,91
 439.155273438 152.791015625 439.155273438 152.791015625 447.518554688 188.216796875 c 4,92,93
 464.856445312 261.662109375 464.856445312 261.662109375 464.643554688 339.4609375 c 4,94,-1
 464.643554688 339.5 l 6,95,96
 464.505859375 435.71484375 464.505859375 435.71484375 452.05859375 504.633789062 c 4,97,98
 444.51953125 546.373046875 444.51953125 546.373046875 430.37890625 577.922851562 c 132,-1,99
 416.23828125 609.473632812 416.23828125 609.473632812 401.715820312 618.389648438 c 4,100,101
 379.249023438 632.18359375 379.249023438 632.18359375 368.493164062 635.8203125 c 4,102,53
 339.05859375 645.772460938 339.05859375 645.772460938 287.088867188 645.772460938 c 132,-1,54
EndSplineSet
Validated: 33
EndChar

StartChar: R
Encoding: 82 82 68
Width: 548
VWidth: 0
Flags: W
LayerCount: 2
Fore
SplineSet
347.556640625 700.631835938 m 1,0,-1
 347.650390625 700.631835938 l 2,1,2
 415.911132812 700.631835938 415.911132812 700.631835938 452.693359375 658.643554688 c 0,3,4
 488.984375 617.215820312 488.984375 617.215820312 488.984375 538.8515625 c 0,5,6
 488.984375 458.151367188 488.984375 458.151367188 457.794921875 412.736328125 c 0,7,8
 448.453125 399.133789062 448.453125 399.133789062 434.538085938 387.927734375 c 1,9,10
 438.328125 384.853515625 438.328125 384.853515625 441.40234375 381.91015625 c 0,11,12
 488.984375 336.337890625 488.984375 336.337890625 488.984375 217.24609375 c 2,13,-1
 488.984375 26.55859375 l 1,14,-1
 488.987304688 26.1416015625 l 2,15,16
 488.987304688 13.9501953125 488.987304688 13.9501953125 480.359375 5.322265625 c 128,-1,17
 471.731445312 -3.3056640625 471.731445312 -3.3056640625 459.540039062 -3.3056640625 c 128,-1,18
 447.348632812 -3.3056640625 447.348632812 -3.3056640625 438.720703125 5.322265625 c 128,-1,19
 430.092773438 13.9501953125 430.092773438 13.9501953125 430.092773438 26.1416015625 c 2,20,-1
 430.095703125 26.55859375 l 1,21,-1
 430.095703125 217.24609375 l 2,22,23
 430.095703125 311.198242188 430.095703125 311.198242188 400.670898438 339.37890625 c 0,24,25
 382.474609375 356.806640625 382.474609375 356.806640625 327.426757812 358.504882812 c 0,26,27
 324.9453125 358.546875 324.9453125 358.546875 322.501953125 359.005859375 c 2,28,-1
 109.310546875 359.39453125 l 1,29,-1
 109.759765625 26.599609375 l 1,30,-1
 109.762695312 26.14453125 l 2,31,32
 109.762695312 13.953125 109.762695312 13.953125 101.134765625 5.3251953125 c 128,-1,33
 92.5068359375 -3.302734375 92.5068359375 -3.302734375 80.3154296875 -3.302734375 c 128,-1,34
 68.1240234375 -3.302734375 68.1240234375 -3.302734375 59.49609375 5.3251953125 c 128,-1,35
 50.8681640625 13.953125 50.8681640625 13.953125 50.8681640625 26.14453125 c 2,36,-1
 50.8701171875 26.51953125 l 1,37,-1
 50 670.2890625 l 2,38,39
 50 682.475585938 50 682.475585938 58.599609375 691.103515625 c 128,-1,40
 67.19921875 699.731445312 67.19921875 699.731445312 79.349609375 699.772460938 c 2,41,-1
 347.556640625 700.631835938 l 1,0,-1
347.650390625 641.7421875 m 2,42,-1
 108.928710938 640.978515625 l 1,43,-1
 109.23046875 418.283203125 l 1,44,-1
 347.65234375 417.849609375 l 2,45,46
 389.8671875 417.849609375 389.8671875 417.849609375 409.251953125 446.07421875 c 0,47,48
 430.095703125 476.424804688 430.095703125 476.424804688 430.095703125 538.8515625 c 0,49,50
 430.095703125 595.068359375 430.095703125 595.068359375 408.396484375 619.83984375 c 0,51,52
 389.211914062 641.741210938 389.211914062 641.741210938 347.650390625 641.7421875 c 2,42,-1
EndSplineSet
EndChar

StartChar: S
Encoding: 83 83 69
Width: 529
VWidth: 0
Flags: W
LayerCount: 2
Fore
SplineSet
300.696289062 701.310546875 m 2,0,-1
 300.731445312 701.310546875 l 1,1,-1
 439.739257812 701.24609375 l 2,2,3
 452.333007812 701.248046875 452.333007812 701.248046875 460.9609375 692.620117188 c 128,-1,4
 469.588867188 683.9921875 469.588867188 683.9921875 469.588867188 671.80078125 c 128,-1,5
 469.588867188 659.609375 469.588867188 659.609375 460.9609375 650.981445312 c 128,-1,6
 452.333007812 642.353515625 452.333007812 642.353515625 440.141601562 642.353515625 c 2,7,-1
 439.711914062 642.356445312 l 1,8,-1
 300.80078125 642.421875 l 2,9,10
 199.671875 642.2421875 199.671875 642.2421875 153.791015625 611.173828125 c 0,11,12
 108.888671875 580.768554688 108.888671875 580.768554688 108.888671875 509.845703125 c 0,13,14
 108.888671875 434.994140625 108.888671875 434.994140625 140.9921875 407.40625 c 0,15,16
 173.655273438 379.3359375 173.655273438 379.3359375 259.928710938 379.3359375 c 0,17,18
 364.62109375 379.3359375 364.62109375 379.3359375 418.567382812 326.965820312 c 0,19,20
 469.859375 277.174804688 469.859375 277.174804688 469.859375 186.423828125 c 0,21,22
 469.859375 91.8251953125 469.859375 91.8251953125 414.04296875 46.6083984375 c 0,23,24
 354.625 -1.52734375 354.625 -1.52734375 219.1171875 -1.52734375 c 0,25,-1
 80.1240234375 -1.462890625 l 1,26,-1
 79.7216796875 -1.4658203125 l 2,27,28
 67.5302734375 -1.4658203125 67.5302734375 -1.4658203125 58.90234375 7.162109375 c 128,-1,29
 50.2744140625 15.791015625 50.2744140625 15.791015625 50.2744140625 27.982421875 c 128,-1,30
 50.2744140625 40.173828125 50.2744140625 40.173828125 58.90234375 48.8017578125 c 128,-1,31
 67.5302734375 57.4296875 67.5302734375 57.4296875 79.7216796875 57.4296875 c 2,32,-1
 80.1513671875 57.42578125 l 1,33,-1
 219.129882812 57.361328125 l 2,34,35
 333.766601562 57.3623046875 333.766601562 57.3623046875 376.974609375 92.365234375 c 0,36,37
 410.969726562 119.904296875 410.969726562 119.904296875 410.969726562 186.423828125 c 0,38,39
 410.969726562 252.270507812 410.969726562 252.270507812 377.549804688 284.713867188 c 0,40,41
 340.740234375 320.447265625 340.740234375 320.447265625 259.928710938 320.447265625 c 0,42,43
 151.828125 320.447265625 151.828125 320.447265625 102.610351562 362.743164062 c 0,44,45
 50 407.954101562 50 407.954101562 50 509.845703125 c 0,46,47
 50 612.013671875 50 612.013671875 120.772460938 659.9375 c 0,48,49
 181.557617188 701.09765625 181.557617188 701.09765625 300.696289062 701.310546875 c 2,0,-1
EndSplineSet
EndChar

StartChar: T
Encoding: 84 84 70
Width: 556
VWidth: 0
Flags: W
LayerCount: 2
Fore
SplineSet
507.090820312 703.247070312 m 5,0,-1
 507.5234375 703.252929688 l 6,1,2
 519.999023438 703 519.999023438 703 528.362304688 694.616210938 c 4,3,4
 536.999023438 686 536.999023438 686 536.999023438 673.77734375 c 4,5,6
 536.999023438 662 536.999023438 662 528.362304688 652.938476562 c 4,7,8
 519.999023438 644 519.999023438 644 507.5234375 644.301757812 c 4,9,-1
 322.5546875 644.060546875 l 1,10,-1
 323.090820312 27.9609375 l 2,11,12
 322.999023438 15 322.999023438 15 314.45703125 6.693359375 c 0,13,14
 305.999023438 -2 305.999023438 -2 293.618164062 -1.943359375 c 0,15,16
 280.999023438 -2 280.999023438 -2 272.779296875 6.693359375 c 0,17,18
 263.999023438 15 263.999023438 15 264.142578125 27.5322265625 c 0,19,-1
 263.606445312 643.98828125 l 1,20,-1
 79.5849609375 643.745117188 l 2,21,22
 66.9990234375 644 66.9990234375 644 58.306640625 652.37890625 c 0,23,24
 49.9990234375 661 49.9990234375 661 49.669921875 673.217773438 c 0,25,26
 49.9990234375 685 49.9990234375 685 58.306640625 694.056640625 c 0,27,28
 66.9990234375 703 66.9990234375 703 79.1455078125 702.693359375 c 0,29,-1
 507.090820312 703.247070312 l 5,0,-1
EndSplineSet
EndChar

StartChar: U
Encoding: 85 85 71
Width: 555
VWidth: 0
Flags: W
LayerCount: 2
Fore
SplineSet
79.07421875 701.104492188 m 4,0,-1
 79.0849609375 701.114257812 l 5,1,-1
 79.5234375 701.1171875 l 6,2,3
 91.748046875 701.1171875 91.748046875 701.1171875 100.399414062 692.465820312 c 132,-1,4
 109.05078125 683.814453125 109.05078125 683.814453125 109.05078125 671.58984375 c 6,5,-1
 109.047851562 671.170898438 l 5,6,-1
 109.047851562 208.848632812 l 6,7,8
 109.453125 137.274414062 109.453125 137.274414062 143.926757812 100.684570312 c 4,9,10
 183.6953125 58.4794921875 183.6953125 58.4794921875 272.959960938 58.4794921875 c 4,11,12
 362.46875 58.4794921875 362.46875 58.4794921875 402.827148438 101.112304688 c 4,13,14
 437.926757812 138.189453125 437.926757812 138.189453125 436.872070312 208.236328125 c 4,15,-1
 436.872070312 671.170898438 l 5,16,-1
 436.870117188 671.533203125 l 6,17,18
 436.870117188 683.7578125 436.870117188 683.7578125 445.521484375 692.41015625 c 132,-1,19
 454.172851562 701.061523438 454.172851562 701.061523438 466.397460938 701.061523438 c 132,-1,20
 478.622070312 701.061523438 478.622070312 701.061523438 487.274414062 692.41015625 c 132,-1,21
 495.92578125 683.7578125 495.92578125 683.7578125 495.92578125 671.533203125 c 6,22,-1
 495.923828125 671.170898438 l 5,23,-1
 495.923828125 209.126953125 l 6,24,25
 497.337890625 115.04296875 497.337890625 115.04296875 445.71875 60.515625 c 4,26,27
 387.888671875 -0.572265625 387.888671875 -0.572265625 272.963867188 -0.572265625 c 132,-1,28
 158.202148438 -0.572265625 158.202148438 -0.572265625 100.952148438 60.1875 c 4,29,30
 50.5380859375 113.692382812 50.5380859375 113.692382812 50.00390625 208.509765625 c 4,31,-1
 50.00390625 671.161132812 l 5,32,-1
 50 671.580078125 l 6,33,34
 50 683.618164062 50 683.618164062 58.5185546875 692.26953125 c 132,-1,35
 67.0380859375 700.919921875 67.0380859375 700.919921875 79.07421875 701.104492188 c 4,0,-1
EndSplineSet
Validated: 33
EndChar

StartChar: V
Encoding: 86 86 72
Width: 508
VWidth: 0
Flags: W
LayerCount: 2
Fore
SplineSet
79.6611328125 701.725585938 m 4,0,1
 88.93359375 701.62109375 88.93359375 701.62109375 97.181640625 695.201171875 c 132,-1,2
 105.4296875 688.780273438 105.4296875 688.780273438 107.807617188 679.814453125 c 6,3,-1
 261.640625 131.336914062 l 5,4,-1
 430.240234375 680.502929688 l 6,5,6
 432.80859375 689.276367188 432.80859375 689.276367188 441.096679688 695.486328125 c 132,-1,7
 449.385742188 701.696289062 449.385742188 701.696289062 458.52734375 701.696289062 c 4,8,9
 470.728515625 701.696289062 470.728515625 701.696289062 479.364257812 693.060546875 c 132,-1,10
 488 684.424804688 488 684.424804688 488 672.22265625 c 4,11,12
 488 667.598632812 488 667.598632812 486.5859375 663.203125 c 6,13,-1
 288.530273438 18.103515625 l 6,14,15
 285.881835938 9.486328125 285.881835938 9.486328125 277.627929688 3.388671875 c 132,-1,16
 269.373046875 -2.708984375 269.373046875 -2.708984375 260.358398438 -2.708984375 c 4,17,18
 251.111328125 -2.708984375 251.111328125 -2.708984375 242.796875 3.591796875 c 132,-1,19
 234.483398438 9.892578125 234.483398438 9.892578125 231.983398438 18.794921875 c 6,20,-1
 51.060546875 663.895507812 l 6,21,22
 49.8505859375 667.987304688 49.8505859375 667.987304688 49.8505859375 672.25390625 c 4,23,24
 49.8505859375 684.456054688 49.8505859375 684.456054688 58.486328125 693.091796875 c 132,-1,25
 67.1220703125 701.727539062 67.1220703125 701.727539062 79.6611328125 701.725585938 c 4,0,1
EndSplineSet
EndChar

StartChar: W
Encoding: 87 87 73
Width: 919
VWidth: 0
Flags: W
LayerCount: 2
Fore
SplineSet
79.0224609375 702.043945312 m 4,0,-1
 79.0361328125 702.051757812 l 5,1,-1
 79.474609375 702.0546875 l 6,2,3
 91.6767578125 702.0546875 91.6767578125 702.0546875 100.3125 693.418945312 c 132,-1,4
 108.948242188 684.783203125 108.948242188 684.783203125 108.948242188 672.581054688 c 6,5,-1
 108.944335938 672.165039062 l 5,6,-1
 108.944335938 206.975585938 l 6,7,8
 109.33984375 135.045898438 109.33984375 135.045898438 142.842773438 98.3193359375 c 4,9,10
 181.084960938 56.3974609375 181.084960938 56.3974609375 266.96484375 56.3974609375 c 4,11,12
 353.08203125 56.3974609375 353.08203125 56.3974609375 391.909179688 98.7490234375 c 4,13,14
 426.02734375 135.963867188 426.02734375 135.963867188 424.9921875 206.381835938 c 6,15,-1
 424.9921875 206.598632812 l 5,16,-1
 424.9921875 467.875976562 l 6,17,18
 424.990234375 480.482421875 424.990234375 480.482421875 433.625976562 489.118164062 c 132,-1,19
 442.26171875 497.75390625 442.26171875 497.75390625 454.462890625 497.75390625 c 132,-1,20
 466.665039062 497.75390625 466.665039062 497.75390625 475.30078125 489.118164062 c 132,-1,21
 483.936523438 480.482421875 483.936523438 480.482421875 483.936523438 468.28125 c 4,22,-1
 483.93359375 214.46484375 l 6,23,24
 484.865234375 210.8515625 484.865234375 210.8515625 484.865234375 207.114257812 c 4,25,26
 485.2578125 135.048828125 485.2578125 135.048828125 518.760742188 98.32421875 c 4,27,28
 557.00390625 56.4013671875 557.00390625 56.4013671875 642.8828125 56.4013671875 c 4,29,30
 728.997070312 56.4013671875 728.997070312 56.4013671875 767.827148438 98.75390625 c 4,31,32
 801.942382812 135.96484375 801.942382812 135.96484375 800.908203125 206.385742188 c 6,33,-1
 800.908203125 206.602539062 l 5,34,-1
 800.908203125 672.169921875 l 5,35,-1
 800.905273438 672.586914062 l 6,36,37
 800.905273438 684.602539062 800.905273438 684.602539062 809.408203125 693.237304688 c 132,-1,38
 817.912109375 701.872070312 817.912109375 701.872070312 829.926757812 702.056640625 c 4,39,-1
 829.931640625 702.056640625 l 5,40,-1
 830.372070312 702.059570312 l 6,41,42
 842.57421875 702.059570312 842.57421875 702.059570312 851.208984375 693.423828125 c 132,-1,43
 859.844726562 684.788085938 859.844726562 684.788085938 859.844726562 672.5859375 c 6,44,-1
 859.841796875 672.169921875 l 5,45,-1
 859.841796875 207.247070312 l 6,46,47
 861.221679688 113.399414062 861.221679688 113.399414062 811.270507812 58.9140625 c 4,48,49
 754.919921875 -2.5458984375 754.919921875 -2.5458984375 642.880859375 -2.5458984375 c 132,-1,50
 530.99609375 -2.5458984375 530.99609375 -2.5458984375 475.21484375 58.5888671875 c 4,51,52
 463.962890625 70.9228515625 463.962890625 70.9228515625 455.23046875 85.591796875 c 5,53,54
 446.522460938 71.0947265625 446.522460938 71.0947265625 435.35546875 58.9140625 c 4,55,56
 379.004882812 -2.5458984375 379.004882812 -2.5458984375 266.966796875 -2.5458984375 c 132,-1,57
 155.084960938 -2.5458984375 155.084960938 -2.5458984375 99.2998046875 58.5888671875 c 4,58,59
 50.521484375 112.04296875 50.521484375 112.04296875 50.0029296875 206.64453125 c 4,60,-1
 50.0029296875 672.158203125 l 5,61,-1
 50 672.57421875 l 6,62,63
 50 684.590820312 50 684.590820312 58.50390625 693.225585938 c 132,-1,64
 67.0068359375 701.860351562 67.0068359375 701.860351562 79.0224609375 702.043945312 c 4,0,-1
EndSplineSet
Validated: 33
EndChar

StartChar: X
Encoding: 88 88 74
Width: 529
VWidth: 0
Flags: W
LayerCount: 2
Fore
SplineSet
460.014648438 702.6328125 m 4,0,1
 472.014648438 702.432617188 472.014648438 702.432617188 480.5078125 693.797851562 c 132,-1,2
 489 685.1640625 489 685.1640625 489 673.163085938 c 4,3,4
 489 664.91796875 489 664.91796875 484.717773438 657.864257812 c 6,5,-1
 303.840820312 350.309570312 l 5,6,-1
 484.717773438 42.75390625 l 6,7,8
 488.989257812 35.7109375 488.989257812 35.7109375 488.989257812 27.47265625 c 4,9,10
 488.989257812 15.2705078125 488.989257812 15.2705078125 480.353515625 6.634765625 c 132,-1,11
 471.717773438 -2.0009765625 471.717773438 -2.0009765625 459.515625 -2.0009765625 c 4,12,13
 442.39453125 -2.0009765625 442.39453125 -2.0009765625 433.913085938 12.8720703125 c 6,14,-1
 269.645507812 292.172851562 l 5,15,-1
 105.37890625 12.8720703125 l 6,16,17
 96.8974609375 -2.0009765625 96.8974609375 -2.0009765625 79.7763671875 -2.0009765625 c 4,18,19
 67.57421875 -2.0009765625 67.57421875 -2.0009765625 58.9384765625 6.634765625 c 132,-1,20
 50.302734375 15.2705078125 50.302734375 15.2705078125 50.302734375 27.47265625 c 4,21,22
 50.302734375 35.7109375 50.302734375 35.7109375 54.57421875 42.75390625 c 6,23,-1
 235.451171875 350.309570312 l 5,24,-1
 54.57421875 657.864257812 l 6,25,26
 50.2919921875 664.915039062 50.2919921875 664.915039062 50.2919921875 673.163085938 c 4,27,28
 50.2919921875 684.80859375 50.2919921875 684.80859375 58.5244140625 693.434570312 c 132,-1,29
 66.7568359375 702.060546875 66.7568359375 702.060546875 78.3896484375 702.604492188 c 4,30,31
 79.083984375 702.63671875 79.083984375 702.63671875 79.7646484375 702.63671875 c 4,32,33
 96.9033203125 702.63671875 96.9033203125 702.63671875 105.37890625 687.743164062 c 6,34,-1
 269.645507812 408.443359375 l 5,35,-1
 433.913085938 687.743164062 l 6,36,37
 442.388671875 702.63671875 442.388671875 702.63671875 460.014648438 702.6328125 c 4,0,1
EndSplineSet
EndChar

StartChar: Y
Encoding: 89 89 75
Width: 523
VWidth: 0
Flags: W
LayerCount: 2
Fore
SplineSet
80.8818359375 702.55859375 m 4,0,1
 96.96484375 702.018554688 96.96484375 702.018554688 105.204101562 688.182617188 c 6,2,-1
 276.704101562 409.260742188 l 5,3,-1
 448.204101562 688.182617188 l 6,4,5
 456.7734375 702.578125 456.7734375 702.578125 473.528320312 702.578125 c 4,6,7
 474.060546875 702.578125 474.060546875 702.578125 474.594726562 702.55859375 c 4,8,9
 486.354492188 702.131835938 486.354492188 702.131835938 494.677734375 693.501953125 c 132,-1,10
 503 684.872070312 503 684.872070312 503 673.104492188 c 4,11,12
 503 664.541015625 503 664.541015625 498.413085938 657.313476562 c 6,13,-1
 306.201171875 344.702148438 l 5,14,-1
 307.239257812 27.2021484375 l 6,15,16
 307.243164062 18.7109375 307.243164062 18.7109375 303.297851562 11.921875 c 132,-1,17
 299.3515625 5.1318359375 299.3515625 5.1318359375 292.561523438 1.185546875 c 132,-1,18
 285.771484375 -2.759765625 285.771484375 -2.759765625 277.76953125 -2.759765625 c 4,19,20
 265.567382812 -2.759765625 265.567382812 -2.759765625 256.931640625 5.8759765625 c 132,-1,21
 248.295898438 14.51171875 248.295898438 14.51171875 248.295898438 26.712890625 c 4,22,-1
 247.260742188 344.622070312 l 5,23,-1
 55.0048828125 657.310546875 l 6,24,25
 50.41796875 664.540039062 50.41796875 664.540039062 50.41796875 673.1015625 c 4,26,27
 50.41796875 685.303710938 50.41796875 685.303710938 59.0537109375 693.939453125 c 132,-1,28
 67.689453125 702.575195312 67.689453125 702.575195312 79.890625 702.575195312 c 4,29,30
 80.4169921875 702.575195312 80.4169921875 702.575195312 80.8818359375 702.55859375 c 4,0,1
EndSplineSet
EndChar

StartChar: Z
Encoding: 90 90 76
Width: 528
VWidth: 0
Flags: W
LayerCount: 2
Fore
SplineSet
458.529296875 701.818359375 m 6,0,1
 470.728515625 701.81640625 470.728515625 701.81640625 479.364257812 693.180664062 c 132,-1,2
 488 684.544921875 488 684.544921875 488 672.342773438 c 4,3,4
 488 664.321289062 488 664.321289062 483.934570312 657.40625 c 6,5,-1
 130.723632812 56.83984375 l 5,6,-1
 456.946289062 56.896484375 l 6,7,8
 469.631835938 56.900390625 469.631835938 56.900390625 478.267578125 48.2646484375 c 132,-1,9
 486.903320312 39.62890625 486.903320312 39.62890625 486.903320312 27.4267578125 c 132,-1,10
 486.903320312 15.224609375 486.903320312 15.224609375 478.267578125 6.5888671875 c 132,-1,11
 469.631835938 -2.046875 469.631835938 -2.046875 457.4296875 -2.046875 c 4,12,-1
 79.201171875 -2.1103515625 l 6,13,14
 67 -2.109375 67 -2.109375 58.3642578125 6.5263671875 c 132,-1,15
 49.7294921875 15.162109375 49.7294921875 15.162109375 49.7294921875 27.36328125 c 4,16,17
 49.7294921875 35.38671875 49.7294921875 35.38671875 53.7958984375 42.302734375 c 6,18,-1
 407.006835938 642.869140625 l 5,19,-1
 80.7841796875 642.8125 l 6,20,21
 68.1728515625 642.809570312 68.1728515625 642.809570312 59.537109375 651.4453125 c 132,-1,22
 50.9013671875 660.081054688 50.9013671875 660.081054688 50.9013671875 672.283203125 c 132,-1,23
 50.9013671875 684.485351562 50.9013671875 684.485351562 59.537109375 693.120117188 c 132,-1,24
 68.1728515625 701.755859375 68.1728515625 701.755859375 80.375 701.755859375 c 4,25,-1
 458.529296875 701.818359375 l 6,0,1
EndSplineSet
EndChar

StartChar: at
Encoding: 64 64 114
Width: 648
VWidth: 0
Flags: W
LayerCount: 2
Fore
SplineSet
215.896484375 699.3984375 m 2,0,-1
 425.41015625 699.3984375 l 2,1,2
 493.932617188 699.3984375 493.932617188 699.3984375 540.16796875 652.852539062 c 128,-1,3
 586.40234375 606.306640625 586.40234375 606.306640625 586.40234375 540.813476562 c 2,4,-1
 586.4609375 235.674804688 l 1,5,-1
 586.454101562 235.379882812 l 2,6,7
 585.377929688 185.856445312 585.377929688 185.856445312 560.967773438 158.263671875 c 0,8,9
 523.8671875 116.326171875 523.8671875 116.326171875 433.852539062 116.326171875 c 0,10,11
 364.576171875 116.326171875 364.576171875 116.326171875 336.678710938 117.0234375 c 128,-1,12
 308.780273438 117.721679688 308.780273438 117.721679688 276.162109375 122.8125 c 128,-1,13
 243.544921875 127.903320312 243.544921875 127.903320312 223.19921875 139.044921875 c 0,14,15
 191.430664062 156.443359375 191.430664062 156.443359375 181.0546875 193.387695312 c 0,16,17
 174.193359375 217.8203125 174.193359375 217.8203125 174.193359375 269.776367188 c 0,18,19
 174.193359375 324.323242188 174.193359375 324.323242188 213.337890625 354.270507812 c 0,20,21
 245.541015625 378.908203125 245.541015625 378.908203125 294.209960938 378.96875 c 0,22,-1
 411.393554688 379.094726562 l 1,23,-1
 411.454101562 436.599609375 l 2,24,25
 411.470703125 452.7890625 411.470703125 452.7890625 407.380859375 466.869140625 c 128,-1,26
 403.291015625 480.94921875 403.291015625 480.94921875 400.044921875 486.302734375 c 128,-1,27
 396.798828125 491.655273438 396.798828125 491.655273438 395.104492188 493.194335938 c 128,-1,28
 393.231445312 494.885742188 393.231445312 494.885742188 389.352539062 498.497070312 c 128,-1,29
 385.47265625 502.108398438 385.47265625 502.108398438 384.415039062 502.959960938 c 128,-1,30
 383.357421875 503.811523438 383.357421875 503.811523438 380.56640625 505.890625 c 128,-1,31
 377.776367188 507.969726562 377.776367188 507.969726562 375.712890625 508.69921875 c 128,-1,32
 373.650390625 509.428710938 373.650390625 509.428710938 370.286132812 510.5546875 c 128,-1,33
 366.921875 511.680664062 366.921875 511.680664062 362.348632812 512.727539062 c 0,34,35
 331.875 519.704101562 331.875 519.704101562 238.155273438 517.69921875 c 0,36,37
 237.655273438 517.682617188 237.655273438 517.682617188 237.194335938 517.682617188 c 0,38,39
 226.05078125 517.682617188 226.05078125 517.682617188 218.165039062 525.569335938 c 128,-1,40
 210.278320312 533.455078125 210.278320312 533.455078125 210.278320312 544.598632812 c 128,-1,41
 210.278320312 555.6640625 210.278320312 555.6640625 218.109375 563.55078125 c 128,-1,42
 225.940429688 571.4375 225.940429688 571.4375 237.005859375 571.514648438 c 0,43,44
 264.310546875 572.098632812 264.310546875 572.098632812 284.60546875 572.063476562 c 0,45,46
 344.826171875 571.959960938 344.826171875 571.959960938 374.360351562 565.19921875 c 0,47,48
 402.924804688 558.66015625 402.924804688 558.66015625 431.180664062 533.142578125 c 0,49,-1
 431.1875 533.135742188 l 2,50,51
 465.349609375 502.263671875 465.349609375 502.263671875 465.280273438 436.54296875 c 2,52,-1
 465 171.779296875 l 1,53,54
 505.143554688 176.396484375 505.143554688 176.396484375 520.653320312 193.9296875 c 0,55,56
 531.974609375 206.7265625 531.974609375 206.7265625 532.6328125 236.423828125 c 2,57,-1
 532.57421875 540.811523438 l 2,58,59
 532.57421875 586 532.57421875 586 503.16796875 615.78515625 c 128,-1,60
 473.76171875 645.5703125 473.76171875 645.5703125 425.41015625 645.5703125 c 2,61,-1
 215.896484375 645.5703125 l 2,62,63
 167.680664062 645.5703125 167.680664062 645.5703125 135.75390625 617.19140625 c 128,-1,64
 103.828125 588.811523438 103.828125 588.811523438 103.828125 541.165039062 c 2,65,-1
 103.828125 164.86328125 l 2,66,67
 103.828125 108.680664062 103.828125 108.680664062 137.641601562 79.046875 c 0,68,69
 167.940429688 52.4931640625 167.940429688 52.4931640625 215.544921875 52.4931640625 c 2,70,-1
 561.354492188 52.4931640625 l 1,71,-1
 561.713867188 52.49609375 l 2,72,73
 572.857421875 52.49609375 572.857421875 52.49609375 580.744140625 44.609375 c 128,-1,74
 588.630859375 36.72265625 588.630859375 36.72265625 588.630859375 25.5791015625 c 128,-1,75
 588.630859375 14.435546875 588.630859375 14.435546875 580.744140625 6.5498046875 c 128,-1,76
 572.857421875 -1.3369140625 572.857421875 -1.3369140625 561.713867188 -1.3369140625 c 2,77,-1
 561.354492188 -1.3349609375 l 1,78,-1
 215.544921875 -1.3349609375 l 2,79,80
 147.692382812 -1.3349609375 147.692382812 -1.3349609375 102.1640625 38.5654296875 c 0,81,82
 50 84.2822265625 50 84.2822265625 50 164.86328125 c 2,83,-1
 50 541.165039062 l 2,84,85
 50 609.858398438 50 609.858398438 99.2109375 654.627929688 c 128,-1,86
 148.422851562 699.3984375 148.422851562 699.3984375 215.896484375 699.3984375 c 2,0,-1
411.336914062 325.266601562 m 1,87,-1
 294.2734375 325.140625 l 2,88,89
 263.794921875 325.102539062 263.794921875 325.102539062 246.043945312 311.521484375 c 0,90,91
 228.021484375 297.732421875 228.021484375 297.732421875 228.021484375 269.776367188 c 0,92,93
 228.021484375 225.234375 228.021484375 225.234375 232.877929688 207.942382812 c 0,94,95
 237.135742188 192.783203125 237.135742188 192.783203125 249.053710938 186.256835938 c 0,96,97
 276.37890625 171.29296875 276.37890625 171.29296875 411.171875 170.247070312 c 1,98,-1
 411.336914062 325.266601562 l 1,87,-1
EndSplineSet
Validated: 33
EndChar

StartChar: bar
Encoding: 124 124 115
Width: 380
Flags: W
HStem: 682.154 20G<183.517 190.069>
VStem: 160.142 59.8516<0.120714 692.928>
LayerCount: 2
Fore
SplineSet
189.620117188 700.154296875 m 0,0,-1
 190.0703125 700.153320312 l 2,1,2
 202.143554688 700 202.143554688 700 211.229492188 691.384765625 c 0,3,4
 220.143554688 683 220.143554688 683 219.998046875 670.225585938 c 0,5,-1
 219.995117188 -69.548828125 l 6,6,7
 220.143554688 -82 220.143554688 -82 211.23046875 -91.154296875 c 4,8,9
 202.143554688 -100 202.143554688 -100 190.071289062 -99.9228515625 c 132,-1,10
 178.143554688 -100 178.143554688 -100 168.912109375 -91.154296875 c 4,11,12
 160.143554688 -82 160.143554688 -82 160.143554688 -69.9951171875 c 4,13,-1
 160.146484375 669.806640625 l 2,14,15
 160.143554688 682 160.143554688 682 168.780273438 691.203125 c 0,16,17
 177.143554688 700 177.143554688 700 189.620117188 700.154296875 c 0,0,-1
EndSplineSet
EndChar

StartChar: exclam
Encoding: 33 33 116
Width: 180
VWidth: 0
Flags: W
LayerCount: 2
Fore
SplineSet
100.671875 63.6279296875 m 132,-1,1
 119.94921875 63.63671875 119.94921875 63.63671875 126.45703125 57.125 c 132,-1,2
 132.970703125 50.6083984375 132.970703125 50.6083984375 132.978515625 31.36328125 c 132,-1,3
 132.970703125 12.0693359375 132.970703125 12.0693359375 126.455078125 5.5654296875 c 132,-1,4
 119.934570312 -0.943359375 119.934570312 -0.943359375 100.666015625 -0.9345703125 c 132,-1,5
 81.388671875 -0.9345703125 81.388671875 -0.9345703125 74.88671875 5.576171875 c 132,-1,6
 68.37890625 12.0927734375 68.37890625 12.0927734375 68.37890625 31.3525390625 c 132,-1,7
 68.37890625 50.62109375 68.37890625 50.62109375 74.888671875 57.12109375 c 132,-1,0
 81.40625 63.6279296875 81.40625 63.6279296875 100.671875 63.6279296875 c 132,-1,1
100.264648438 186.420898438 m 0,8,9
 87.9169921875 186.607421875 87.9169921875 186.607421875 79.1787109375 195.478515625 c 128,-1,10
 70.439453125 204.348632812 70.439453125 204.348632812 70.4423828125 217.126953125 c 2,11,-1
 70.4423828125 658.115234375 l 1,12,-1
 70.439453125 658.565429688 l 2,13,14
 70.439453125 671.100585938 70.439453125 671.100585938 79.3115234375 679.97265625 c 128,-1,15
 88.18359375 688.844726562 88.18359375 688.844726562 100.719726562 688.844726562 c 128,-1,16
 113.254882812 688.844726562 113.254882812 688.844726562 122.126953125 679.97265625 c 128,-1,17
 130.999023438 671.100585938 130.999023438 671.100585938 130.999023438 658.565429688 c 2,18,-1
 130.99609375 658.115234375 l 1,19,-1
 130.999023438 216.698242188 l 0,20,21
 130.999023438 204.162109375 130.999023438 204.162109375 122.126953125 195.290039062 c 128,-1,22
 113.254882812 186.41796875 113.254882812 186.41796875 100.264648438 186.420898438 c 0,8,9
EndSplineSet
EndChar

StartChar: parenleft
Encoding: 40 40 117
Width: 245
VWidth: 0
Flags: W
LayerCount: 2
Fore
SplineSet
167.267578125 700.4296875 m 2,0,1
 178.748046875 700.247070312 178.748046875 700.247070312 186.873046875 691.9921875 c 128,-1,2
 194.998046875 683.736328125 194.998046875 683.736328125 194.998046875 672.254882812 c 0,3,4
 194.998046875 661.240234375 194.998046875 661.240234375 187.528320312 653.14453125 c 0,5,6
 157.53515625 619.69921875 157.53515625 619.69921875 142.608398438 579.895507812 c 0,7,8
 111.752929688 497.622070312 111.752929688 497.622070312 111.752929688 352.315429688 c 128,-1,9
 111.752929688 206.841796875 111.752929688 206.841796875 142.688476562 122.224609375 c 0,10,11
 157.927734375 80.5419921875 157.927734375 80.5419921875 187.951171875 45.486328125 c 0,12,13
 195 37.49609375 195 37.49609375 195 26.84375 c 0,14,15
 195 15.177734375 195 15.177734375 186.743164062 6.921875 c 128,-1,16
 178.487304688 -1.3349609375 178.487304688 -1.3349609375 166.821289062 -1.3349609375 c 0,17,18
 153.602539062 -1.3349609375 153.602539062 -1.3349609375 145.151367188 8.830078125 c 0,19,20
 108.498046875 51.630859375 108.498046875 51.630859375 89.763671875 102.875 c 0,21,22
 55.4013671875 196.865234375 55.4013671875 196.865234375 55.4013671875 352.315429688 c 128,-1,23
 55.4013671875 507.836914062 55.4013671875 507.836914062 89.845703125 599.68359375 c 0,24,25
 108.502929688 649.431640625 108.502929688 649.431640625 145.575195312 690.768554688 c 0,26,27
 153.998046875 700.43359375 153.998046875 700.43359375 166.818359375 700.43359375 c 2,28,-1
 167.267578125 700.4296875 l 2,0,1
EndSplineSet
EndChar

StartChar: parenright
Encoding: 41 41 118
Width: 245
VWidth: 0
Flags: W
LayerCount: 2
Fore
SplineSet
78.1337890625 700.4296875 m 2,0,1
 78.5830078125 700.43359375 l 2,2,3
 91.4033203125 700.43359375 91.4033203125 700.43359375 99.826171875 690.768554688 c 0,4,5
 136.8984375 649.431640625 136.8984375 649.431640625 155.555664062 599.68359375 c 0,6,7
 190 507.836914062 190 507.836914062 190 352.315429688 c 128,-1,8
 190 196.865234375 190 196.865234375 155.637695312 102.875 c 0,9,10
 136.903320312 51.630859375 136.903320312 51.630859375 100.25 8.830078125 c 0,11,12
 91.798828125 -1.3349609375 91.798828125 -1.3349609375 78.580078125 -1.3349609375 c 0,13,14
 66.9140625 -1.3349609375 66.9140625 -1.3349609375 58.658203125 6.921875 c 128,-1,15
 50.4013671875 15.177734375 50.4013671875 15.177734375 50.4013671875 26.84375 c 0,16,17
 50.4013671875 37.49609375 50.4013671875 37.49609375 57.4501953125 45.486328125 c 0,18,19
 87.4736328125 80.5419921875 87.4736328125 80.5419921875 102.712890625 122.224609375 c 0,20,21
 133.6484375 206.841796875 133.6484375 206.841796875 133.6484375 352.315429688 c 128,-1,22
 133.6484375 497.622070312 133.6484375 497.622070312 102.79296875 579.895507812 c 0,23,24
 87.8662109375 619.69921875 87.8662109375 619.69921875 57.873046875 653.14453125 c 0,25,26
 50.4033203125 661.240234375 50.4033203125 661.240234375 50.4033203125 672.254882812 c 0,27,28
 50.4033203125 683.736328125 50.4033203125 683.736328125 58.5283203125 691.9921875 c 128,-1,29
 66.6533203125 700.247070312 66.6533203125 700.247070312 78.1337890625 700.4296875 c 2,0,1
EndSplineSet
EndChar

StartChar: quotesingle
Encoding: 39 39 119
Width: 140
Flags: W
HStem: 682.154 20G<63.517 70.0688>
VStem: 40.142 59.8516<0.120714 692.928>
LayerCount: 2
Fore
SplineSet
69.6201171875 700.154296875 m 0,0,-1
 70.0703125 700.153320312 l 2,1,2
 82.1435546875 700 82.1435546875 700 91.2294921875 691.384765625 c 0,3,4
 100.143554688 683 100.143554688 683 99.998046875 670.225585938 c 0,5,-1
 99.9951171875 530.451171875 l 6,6,7
 100.143554688 518 100.143554688 518 91.23046875 508.845703125 c 4,8,9
 82.1435546875 500 82.1435546875 500 70.0712890625 500.077148438 c 132,-1,10
 58.1435546875 500 58.1435546875 500 48.912109375 508.845703125 c 4,11,12
 40.1435546875 518 40.1435546875 518 40.1435546875 530.004882812 c 4,13,-1
 40.146484375 669.806640625 l 2,14,15
 40.1435546875 682 40.1435546875 682 48.7802734375 691.203125 c 0,16,17
 57.1435546875 700 57.1435546875 700 69.6201171875 700.154296875 c 0,0,-1
EndSplineSet
EndChar

